<?xml version="1.0" encoding="utf-8"?>
<!-- Generator: Adobe Illustrator 26.0.1, SVG Export Plug-In . SVG Version: 6.00 Build 0)  -->
<svg version="1.1" id="Layer_1" xmlns="http://www.w3.org/2000/svg" xmlns:xlink="http://www.w3.org/1999/xlink" x="0px" y="0px"
	 viewBox="0 0 923.1 273.9" style="enable-background:new 0 0 923.1 273.9;" xml:space="preserve">
<style type="text/css">
	.st0{fill:none;}
	.st1{fill:#FFFFFF;}
	.st2{fill:#A6A6A6;}
	.st3{fill:url(#SVGID_1_);}
</style>
<path class="st0" d="M0-17.3"/>
<path class="st0" d="M0-17.3"/>
<path class="st0" d="M0-17.3"/>
<g transform="scale(4.00216 4.0011)">
	<path class="st1" d="M229.1,60.3c0,3.6-2.9,6.5-6.5,6.5c0,0,0,0,0,0H8.1c-3.6,0-6.6-2.9-6.6-6.5V8.1c0-3.6,2.9-6.6,6.6-6.6h214.5
		c3.6,0,6.6,2.9,6.6,6.6c0,0,0,0,0,0L229.1,60.3L229.1,60.3z"/>
	<path class="st2" d="M222.6,68.4H8.1c-4.5,0-8.1-3.6-8.1-8.1V8.1C0,3.7,3.6,0.1,8.1,0h214.5c4.5,0,8.1,3.6,8.1,8.1v52.2
		C230.7,64.8,227,68.4,222.6,68.4L222.6,68.4z"/>
	<path d="M229.1,60.3c0,3.6-2.9,6.5-6.5,6.5c0,0,0,0,0,0H8.1c-3.6,0-6.6-2.9-6.6-6.5V8.1c0-3.6,2.9-6.6,6.6-6.6h214.5
		c3.6,0,6.6,2.9,6.6,6.6c0,0,0,0,0,0L229.1,60.3L229.1,60.3z"/>
	<path class="st1" d="M51.5,33.9c0-5.5,4.5-8.2,4.7-8.3c-2.6-3.8-6.6-4.3-8-4.3c-3.4-0.4-6.6,2-8.3,2c-1.7,0-4.4-2-7.2-1.9
		c-3.7,0.1-7.1,2.2-9,5.5c-3.9,6.7-1,16.6,2.7,22c1.9,2.7,4,5.6,6.9,5.5c2.8-0.1,3.8-1.8,7.2-1.8c3.3,0,4.3,1.8,7.2,1.7
		c3,0,4.9-2.7,6.6-5.3c2.1-3,3-6,3-6.2C57.3,42.7,51.6,40.5,51.5,33.9L51.5,33.9z M46,17.7c1.5-1.9,2.5-4.4,2.2-7
		c-2.2,0.1-4.9,1.5-6.4,3.3c-1.4,1.6-2.6,4.2-2.3,6.7C42,20.9,44.5,19.5,46,17.7z"/>
	
		<linearGradient id="SVGID_1_" gradientUnits="userSpaceOnUse" x1="-117.8524" y1="137.0464" x2="-117.8524" y2="198.6634" gradientTransform="matrix(16.0174 0 0 -16.0088 2056.8606 2262.5376)">
		<stop  offset="0" style="stop-color:#1A1A1A;stop-opacity:0.1"/>
		<stop  offset="0.123" style="stop-color:#212121;stop-opacity:0.151"/>
		<stop  offset="0.308" style="stop-color:#353535;stop-opacity:0.227"/>
		<stop  offset="0.532" style="stop-color:#575757;stop-opacity:0.318"/>
		<stop  offset="0.783" style="stop-color:#858585;stop-opacity:0.421"/>
		<stop  offset="1" style="stop-color:#B3B3B3;stop-opacity:0.51"/>
	</linearGradient>
	<path class="st3" d="M222.6,0H107.7l45,68.4h69.9c4.5,0,8.1-3.6,8.1-8.1V8.1C230.6,3.7,227,0.1,222.6,0z"/>
	<g>
		<path class="st1" d="M91.7,53.9h-3.9l-2.1-6.7h-7.4l-2,6.7h-3.8l7.3-22.7h4.5C84.4,31.2,91.7,53.9,91.7,53.9z M85.1,44.4l-1.9-5.9
			c-0.2-0.6-0.6-2-1.1-4.3h-0.1c-0.2,1-0.6,2.4-1.1,4.3L79,44.4H85.1z M110.5,45.5c0,2.8-0.8,5-2.3,6.6c-1.4,1.4-3,2.2-5.1,2.2
			c-2.2,0-3.7-0.8-4.7-2.3v8.6h-3.6V42.9c0-1.8,0-3.5-0.1-5.4h3.2l0.2,2.6h0.1c1.2-2,3.1-2.9,5.5-2.9c1.9,0,3.6,0.8,4.8,2.3
			C109.9,41,110.5,43,110.5,45.5z M106.8,45.6c0-1.6-0.4-2.9-1.1-4c-0.8-1.1-1.8-1.6-3.2-1.6c-0.9,0-1.7,0.3-2.4,0.9
			c-0.7,0.6-1.2,1.4-1.4,2.3c-0.1,0.4-0.2,0.7-0.2,1.1v2.7c0,1.2,0.4,2.2,1.1,3c0.7,0.8,1.7,1.2,2.9,1.2c1.4,0,2.4-0.5,3.2-1.6
			C106.4,48.8,106.8,47.4,106.8,45.6z M129.4,45.5c0,2.8-0.8,5-2.3,6.6c-1.4,1.4-3,2.2-5.1,2.2c-2.2,0-3.7-0.8-4.7-2.3v8.6h-3.6
			V42.9c0-1.8,0-3.5-0.1-5.4h3.2l0.2,2.6h0.1c1.2-2,3.1-2.9,5.5-2.9c1.9,0,3.5,0.8,4.8,2.3C128.8,41,129.4,43,129.4,45.5L129.4,45.5
			z M125.7,45.6c0-1.6-0.4-2.9-1.1-4c-0.8-1.1-1.8-1.6-3.2-1.6c-0.9,0-1.7,0.3-2.4,0.9c-0.7,0.6-1.2,1.4-1.4,2.3
			c-0.1,0.5-0.2,0.8-0.2,1.1v2.7c0,1.2,0.4,2.2,1.1,3c0.7,0.8,1.7,1.2,2.9,1.2c1.4,0,2.4-0.5,3.2-1.6
			C125.3,48.8,125.7,47.4,125.7,45.6z M150.5,47.5c0,1.9-0.7,3.5-2,4.7c-1.5,1.3-3.5,2-6.2,2c-2.4,0-4.4-0.5-5.9-1.4l0.8-3
			c1.6,0.9,3.4,1.4,5.3,1.4c1.4,0,2.4-0.3,3.2-0.9c0.8-0.6,1.2-1.4,1.2-2.5c0-0.9-0.3-1.7-0.9-2.3c-0.6-0.6-1.7-1.2-3.1-1.8
			c-4-1.5-6-3.7-6-6.5c0-1.9,0.7-3.4,2.1-4.6c1.4-1.2,3.3-1.8,5.6-1.8c2.1,0,3.8,0.4,5.2,1.1l-0.9,3c-1.3-0.7-2.7-1-4.4-1
			c-1.3,0-2.3,0.3-3,0.9c-0.6,0.6-0.9,1.2-0.9,2.1c0,0.9,0.4,1.6,1,2.2c0.6,0.5,1.7,1.1,3.3,1.8c2,0.8,3.4,1.7,4.3,2.8
			C150,44.6,150.5,46,150.5,47.5L150.5,47.5z M162.6,40.2h-4v8c0,2,0.7,3,2.1,3c0.7,0,1.2-0.1,1.6-0.2l0.1,2.8
			c-0.7,0.3-1.7,0.4-2.8,0.4c-1.4,0-2.6-0.4-3.4-1.3c-0.8-0.9-1.2-2.4-1.2-4.4v-8.3h-2.4v-2.7h2.4v-3l3.6-1.1v4.1h4L162.6,40.2
			L162.6,40.2z M180.7,45.6c0,2.5-0.7,4.6-2.2,6.2c-1.5,1.7-3.5,2.5-6,2.5c-2.4,0-4.3-0.8-5.8-2.4c-1.4-1.6-2.1-3.6-2.1-6
			c0-2.5,0.7-4.6,2.2-6.2c1.5-1.6,3.5-2.4,6-2.4c2.4,0,4.3,0.8,5.8,2.4C180,41.1,180.7,43.1,180.7,45.6z M176.9,45.6
			c0-1.5-0.3-2.8-1-3.9c-0.8-1.3-1.9-2-3.3-2c-1.5,0-2.6,0.7-3.3,2c-0.7,1.1-1,2.4-1,3.9c0,1.5,0.3,2.8,1,3.9c0.8,1.3,1.9,2,3.3,2
			c1.4,0,2.5-0.7,3.3-2C176.6,48.5,176.9,47.2,176.9,45.6L176.9,45.6z M192.5,40.7c-0.4-0.1-0.8-0.1-1.1-0.1c-1.3,0-2.3,0.5-3,1.5
			c-0.6,0.9-0.9,1.9-0.9,3.2v8.6h-3.6V42.7c0-1.7,0-3.4-0.1-5.2h3.2l0.1,3.1h0.1c0.4-1.1,1-1.9,1.8-2.6c0.8-0.6,1.7-0.9,2.6-0.9
			c0.3,0,0.6,0,0.9,0.1L192.5,40.7L192.5,40.7z M208.8,44.9c0,0.6,0,1.1-0.1,1.7h-10.9c0,1.6,0.6,2.9,1.6,3.7
			c0.9,0.8,2.1,1.1,3.6,1.1c1.6,0,3.1-0.3,4.4-0.8l0.6,2.5c-1.6,0.7-3.4,1-5.5,1c-2.5,0-4.5-0.7-6-2.2c-1.4-1.5-2.2-3.5-2.2-6
			c0-2.5,0.7-4.5,2-6.2c1.4-1.8,3.3-2.6,5.7-2.6c2.4,0,4.2,0.9,5.4,2.6C208.3,41.2,208.8,42.9,208.8,44.9z M205.3,44
			c0-1.1-0.2-2-0.7-2.8c-0.6-1-1.6-1.5-2.9-1.5c-1.2,0-2.2,0.5-2.9,1.5c-0.6,0.8-1,1.7-1.1,2.8L205.3,44L205.3,44z"/>
	</g>
	<g>
		<path class="st1" d="M77.3,23.1c-1,0-1.9,0-2.6-0.1V12c1-0.2,2.1-0.2,3.1-0.2c4.2,0,6.1,2.1,6.1,5.4C83.9,21,81.6,23.1,77.3,23.1z
			 M77.9,13.2c-0.6,0-1,0-1.4,0.1v8.4c0.2,0,0.6,0,1.2,0c2.7,0,4.3-1.6,4.3-4.5C82,14.6,80.6,13.2,77.9,13.2z M89.9,23.2
			c-2.4,0-3.9-1.8-3.9-4.1c0-2.5,1.6-4.3,4-4.3c2.3,0,3.9,1.7,3.9,4.1C93.9,21.4,92.3,23.2,89.9,23.2z M89.9,16.1
			c-1.3,0-2.1,1.2-2.1,2.9c0,1.7,0.8,2.9,2.1,2.9c1.3,0,2.1-1.3,2.1-2.9C92,17.3,91.2,16.1,89.9,16.1L89.9,16.1z M107.3,14.9
			l-2.5,8.1h-1.6l-1-3.5c-0.3-0.9-0.5-1.7-0.6-2.6h0c-0.1,0.9-0.4,1.8-0.6,2.6L99.7,23H98l-2.4-8.1h1.8l0.9,3.8
			c0.2,0.9,0.4,1.8,0.5,2.6h0c0.1-0.7,0.3-1.5,0.7-2.6l1.1-3.8h1.5l1.1,3.8c0.3,0.9,0.5,1.8,0.6,2.7h0c0.1-0.8,0.3-1.7,0.5-2.7
			l1-3.8L107.3,14.9L107.3,14.9z M116.6,23h-1.8v-4.6c0-1.4-0.5-2.1-1.6-2.1c-1.1,0-1.8,0.9-1.8,2V23h-1.8v-5.8c0-0.7,0-1.5-0.1-2.3
			h1.6l0.1,1.2h0c0.5-0.9,1.5-1.4,2.6-1.4c1.7,0,2.8,1.3,2.8,3.4L116.6,23L116.6,23z M121.5,23h-1.8V11.3h1.8V23z M128.1,23.2
			c-2.4,0-3.9-1.8-3.9-4.1c0-2.5,1.6-4.3,4-4.3c2.3,0,3.9,1.7,3.9,4.1C132.1,21.4,130.5,23.2,128.1,23.2z M128.1,16.1
			c-1.3,0-2.1,1.2-2.1,2.9c0,1.7,0.8,2.9,2.1,2.9c1.3,0,2.1-1.3,2.1-2.9C130.2,17.3,129.4,16.1,128.1,16.1L128.1,16.1z M139.1,23
			l-0.1-0.9h0c-0.5,0.7-1.3,1.1-2.4,1.1c-1.4,0-2.5-1-2.5-2.4c0-2,1.7-3,4.7-3v-0.1c0-1.1-0.6-1.6-1.7-1.6c-0.8,0-1.5,0.2-2.1,0.6
			l-0.4-1.2c0.7-0.5,1.7-0.7,2.8-0.7c2.1,0,3.2,1.1,3.2,3.3v3c0,0.8,0,1.4,0.1,1.9L139.1,23L139.1,23z M138.9,19c-2,0-3,0.5-3,1.6
			c0,0.8,0.5,1.3,1.2,1.3c0.9,0,1.8-0.7,1.8-1.6V19z M149.3,23l-0.1-1.3h0c-0.5,1-1.4,1.5-2.6,1.5c-1.9,0-3.4-1.7-3.4-4.1
			c0-2.5,1.5-4.3,3.5-4.3c1.1,0,1.8,0.4,2.3,1.1h0v-4.6h1.8v9.6c0,0.8,0,1.5,0.1,2.2L149.3,23L149.3,23z M149.1,18.3
			c0-1.1-0.7-2.1-1.9-2.1c-1.3,0-2.1,1.2-2.1,2.8c0,1.6,0.8,2.7,2.1,2.7c1.1,0,1.9-1,1.9-2.1L149.1,18.3L149.1,18.3z M162.2,23.2
			c-2.4,0-3.9-1.8-3.9-4.1c0-2.5,1.6-4.3,4-4.3c2.3,0,3.9,1.7,3.9,4.1C166.2,21.4,164.6,23.2,162.2,23.2L162.2,23.2z M162.3,16.1
			c-1.3,0-2.1,1.2-2.1,2.9c0,1.7,0.8,2.9,2.1,2.9c1.3,0,2.1-1.3,2.1-2.9C164.4,17.3,163.6,16.1,162.3,16.1L162.3,16.1z M175.9,23
			h-1.8v-4.6c0-1.4-0.5-2.1-1.6-2.1c-1.1,0-1.8,0.9-1.8,2V23h-1.8v-5.8c0-0.7,0-1.5-0.1-2.3h1.6l0.1,1.2h0c0.5-0.9,1.5-1.4,2.6-1.4
			c1.7,0,2.8,1.3,2.8,3.4V23z M187.9,16.3h-2v3.9c0,1,0.3,1.5,1,1.5c0.3,0,0.6,0,0.8-0.1l0,1.4c-0.3,0.1-0.8,0.2-1.4,0.2
			c-1.4,0-2.3-0.8-2.3-2.8v-4.1H183v-1.3h1.2v-1.5l1.8-0.5v2h2V16.3L187.9,16.3z M197.4,23h-1.8v-4.6c0-1.4-0.5-2.2-1.6-2.2
			c-0.9,0-1.8,0.6-1.8,1.9V23h-1.8V11.3h1.8v4.8h0c0.6-0.9,1.4-1.3,2.4-1.3c1.7,0,2.7,1.3,2.7,3.4L197.4,23L197.4,23z M207.1,19.4
			h-5.4c0,1.5,1,2.4,2.5,2.4c0.8,0,1.5-0.1,2.2-0.4l0.3,1.2c-0.8,0.3-1.7,0.5-2.7,0.5c-2.5,0-4-1.6-4-4.1c0-2.5,1.5-4.3,3.8-4.3
			c2.1,0,3.4,1.5,3.4,3.8C207.2,18.9,207.2,19.1,207.1,19.4L207.1,19.4z M205.5,18.1c0-1.2-0.6-2.1-1.8-2.1c-1,0-1.8,0.9-2,2.1
			H205.5L205.5,18.1z"/>
	</g>
</g>
</svg>
