<?xml version="1.0" encoding="utf-8"?>
<!-- Generator: Adobe Illustrator 26.0.1, SVG Export Plug-In . SVG Version: 6.00 Build 0)  -->
<svg version="1.1" id="Layer_1" xmlns="http://www.w3.org/2000/svg" xmlns:xlink="http://www.w3.org/1999/xlink" x="0px" y="0px"
	 viewBox="0 0 923.1 273.9" style="enable-background:new 0 0 923.1 273.9;" xml:space="preserve">
<style type="text/css">
	.st0{fill:none;}
	.st1{fill:#010101;}
	.st2{fill:#A7A6A6;}
	.st3{fill:#FFFFFF;}
	.st4{fill:#3FBDED;}
	.st5{fill:url(#SVGID_1_);}
	.st6{fill:url(#SVGID_00000157281589939909235810000016058533404946922658_);}
	.st7{fill:url(#SVGID_00000021804826780812524070000010723684272170278555_);}
	.st8{fill:url(#SVGID_00000080188780698689710140000000120883369035054015_);}
	.st9{fill:url(#SVGID_00000009555509814795297950000002053678340979781030_);}
	.st10{fill:url(#SVGID_00000150816951719551996110000010442125724935419281_);}
	.st11{fill:url(#SVGID_00000173134877615102646720000015774969635751934900_);}
	.st12{fill:url(#SVGID_00000043444688317270438910000004544385119099802254_);}
	.st13{fill:url(#SVGID_00000007401425158757666830000018070764953120890764_);}
	.st14{fill:url(#SVGID_00000145043777607205898020000005017406204687098275_);}
</style>
<path class="st0" d="M0-17.3"/>
<path class="st0" d="M0-17.3"/>
<path class="st0" d="M0-17.3"/>
<g>
	<path class="st1" d="M888.9,274.4H34.2C15.4,274.4,0,259,0,240.2V34.7C0,15.9,15.4,0.5,34.2,0.5h854.7c18.8,0,34.2,15.4,34.2,34.2
		v205.5C923.1,259,907.7,274.4,888.9,274.4"/>
	<path class="st2" d="M888.9,0.5H34.2C15.4,0.5,0,15.9,0,34.7v205.5c0,18.8,15.4,34.2,34.2,34.2h854.7c18.8,0,34.2-15.4,34.2-34.2
		V34.7C923.1,15.9,907.7,0.5,888.9,0.5 M888.9,6c15.8,0,28.7,12.9,28.7,28.8v205.5c0,15.9-12.9,28.8-28.7,28.8H34.2
		c-15.8,0-28.7-12.9-28.7-28.8V34.7C5.5,18.9,18.4,6,34.2,6L888.9,6"/>
	<path class="st3" d="M324.2,70.7c0,5.7-1.7,10.3-5.1,13.7c-3.9,4.1-8.9,6.1-15.1,6.1c-5.9,0-11-2.1-15.1-6.2
		c-4.1-4.1-6.2-9.2-6.2-15.3c0-6.1,2.1-11.2,6.2-15.3c4.1-4.1,9.2-6.2,15.1-6.2c2.9,0,5.8,0.6,8.4,1.7c2.7,1.2,4.8,2.7,6.4,4.6
		l-3.6,3.6c-2.7-3.3-6.5-4.9-11.2-4.9c-4.3,0-8.1,1.5-11.2,4.6c-3.2,3-4.7,7-4.7,11.9c0,4.9,1.6,8.8,4.7,11.9
		c3.2,3,6.9,4.6,11.2,4.6c4.6,0,8.4-1.5,11.5-4.6c2-2,3.1-4.8,3.4-8.3h-14.9v-4.9h19.9C324.1,68.6,324.2,69.7,324.2,70.7"/>
	<path class="st3" d="M324.2,70.7h-0.7c0,5.6-1.6,10-4.9,13.2l0,0l0,0c-3.7,3.9-8.5,5.9-14.6,5.9c-5.8,0-10.6-2-14.6-6
		c-4-4-6-8.9-6-14.8c0-5.9,2-10.8,6-14.8c4-4,8.9-6,14.6-6c2.9,0,5.6,0.6,8.2,1.7c2.6,1.1,4.6,2.6,6.2,4.4l0.5-0.4l-0.5-0.5
		l-3.6,3.6l0.5,0.5l0.5-0.4c-2.8-3.4-6.8-5.1-11.8-5.1c-4.5,0-8.4,1.6-11.7,4.8c-3.3,3.2-4.9,7.3-4.9,12.3c0,5,1.6,9.2,4.9,12.3
		c3.3,3.2,7.2,4.8,11.7,4.8c4.7,0,8.8-1.6,11.9-4.8c2.1-2.1,3.3-5.1,3.6-8.7l0.1-0.7h-15v-3.6h19.2v-0.7l-0.7,0.1c0.2,1,0.3,2,0.3,3
		h1.4c0-1-0.1-2.1-0.3-3.2l-0.1-0.6h-21.1v6.3H319v-0.7l-0.7-0.1c-0.3,3.4-1.4,6-3.2,7.9c-2.9,2.9-6.5,4.4-11,4.4
		c-4.2,0-7.7-1.4-10.7-4.4c-3-2.9-4.5-6.6-4.5-11.4c0-4.7,1.5-8.4,4.5-11.4c3-2.9,6.6-4.4,10.7-4.4c4.6,0,8.1,1.5,10.7,4.6l0.5,0.6
		l4.1-4.1l0.4-0.4l-0.4-0.5c-1.7-2-3.9-3.6-6.7-4.8c-2.8-1.2-5.7-1.8-8.7-1.8c-6.1,0-11.3,2.1-15.6,6.4c-4.3,4.2-6.4,9.5-6.4,15.8
		c0,6.2,2.1,11.6,6.4,15.8c4.3,4.2,9.5,6.4,15.6,6.4c6.3,0,11.6-2.1,15.6-6.3l-0.5-0.5l0.5,0.5c3.5-3.5,5.3-8.3,5.3-14.2L324.2,70.7
		 M355.7,53.5h-18.7v13h16.8v4.9h-16.8v13h18.7v5h-24V48.4h24V53.5"/>
	<path class="st3" d="M355.7,53.5v-0.7h-19.4v14.4h16.8v3.6l-16.8,0v14.4h18.7v3.7h-22.6V49.1h22.6v4.4L355.7,53.5v-0.7V53.5l0.7,0
		v-5.7h-25.3v42.5h25.3v-6.4h-18.7V72.1h16.8v-6.3h-16.8V54.2h18.7v-0.7L355.7,53.5 M378,89.5h-5.3v-36h-11.5v-5h28.2v5H378V89.5"/>
	<path class="st3" d="M378,89.5v-0.7h-4.6v-36h-11.5v-3.7h26.8v3.7h-11.5v36.7L378,89.5l0-0.7L378,89.5l0.7,0V54.2h11.5v-6.4h-29.6
		v6.4H372v36h6.6v-0.7L378,89.5 M409.8,89.5V48.4h5.3v41.1L409.8,89.5"/>
	<path class="st3" d="M409.8,89.5h0.7V49.1h3.9v39.7h-4.6V89.5l0.7,0L409.8,89.5v0.7h6V47.8h-6.6v42.5h0.7V89.5 M438.5,89.5h-5.3
		v-36h-11.5v-5h28.2v5h-11.5V89.5"/>
	<path class="st3" d="M438.5,89.5v-0.7h-4.6v-36h-11.5v-3.7h26.8v3.7h-11.5v36.7L438.5,89.5l0-0.7L438.5,89.5l0.7,0V54.2h11.5v-6.4
		h-29.6v6.4h11.5v36h6.6v-0.7L438.5,89.5 M477.1,80.8c3,3.1,6.8,4.6,11.1,4.6s8.1-1.5,11.1-4.6c3-3.1,4.6-7,4.6-11.8
		c0-4.8-1.5-8.7-4.6-11.8c-3-3.1-6.7-4.6-11.1-4.6s-8.1,1.5-11.1,4.6c-3,3.1-4.6,7-4.6,11.8C472.6,73.8,474.1,77.7,477.1,80.8z
		 M503.3,84.2c-4,4.2-9,6.2-15,6.2c-6,0-11-2.1-15-6.2c-4-4.1-6-9.2-6-15.2s2-11.1,6-15.2c4-4.2,9-6.2,15-6.2c6,0,11,2.1,15,6.3
		c4,4.2,6.1,9.2,6.1,15.2C509.4,75,507.3,80.1,503.3,84.2z"/>
	<path class="st3" d="M477.1,80.8l-0.5,0.5c3.1,3.2,7.1,4.8,11.6,4.8c4.6,0,8.5-1.6,11.6-4.8c3.2-3.2,4.8-7.4,4.8-12.3
		c0-4.9-1.6-9.1-4.8-12.3c-3.1-3.2-7.1-4.8-11.6-4.8c-4.6,0-8.5,1.6-11.6,4.8c-3.2,3.2-4.8,7.4-4.8,12.3c0,4.9,1.6,9.1,4.8,12.3
		L477.1,80.8l0.5-0.5c-2.9-3-4.4-6.7-4.4-11.3c0-4.6,1.5-8.4,4.4-11.3c2.9-3,6.4-4.4,10.7-4.4c4.2,0,7.7,1.5,10.7,4.4
		c2.9,3,4.4,6.7,4.4,11.3c0,4.6-1.5,8.4-4.4,11.3c-2.9,3-6.4,4.4-10.7,4.4c-4.2,0-7.7-1.5-10.7-4.4L477.1,80.8z M503.3,84.2
		l-0.5-0.5c-3.9,4-8.7,6-14.6,6c-5.8,0-10.6-2-14.5-6l0,0l0,0c-3.9-4-5.8-8.9-5.8-14.8c0-5.9,1.9-10.7,5.8-14.8c3.9-4,8.7-6,14.5-6
		c5.8,0,10.6,2,14.5,6.1c3.9,4.1,5.9,8.9,5.9,14.7c0,5.9-1.9,10.7-5.8,14.8L503.3,84.2l0.5,0.5c4.1-4.3,6.2-9.6,6.2-15.7
		c0-6.1-2.1-11.4-6.3-15.7c-4.2-4.3-9.4-6.5-15.5-6.5c-6.2,0-11.4,2.2-15.5,6.4v0c-4.2,4.3-6.2,9.6-6.2,15.7
		c0,6.2,2.1,11.4,6.2,15.7l0,0l0,0c4.1,4.3,9.4,6.4,15.5,6.4c6.2,0,11.4-2.2,15.5-6.4L503.3,84.2z M516.8,89.5V48.4h6.4l19.9,32h0.2
		l-0.2-7.9v-24h5.3v41.1h-5.5L522,56h-0.2l0.2,7.9v25.6L516.8,89.5"/>
	<path class="st3" d="M516.8,89.5h0.7V49.1h5.4l19.9,32h1.3l-0.2-8.6V49.1h3.9v39.7h-4.4l-20.9-33.5h-1.3l0.2,8.6v24.9h-4.6
		L516.8,89.5l0.7,0L516.8,89.5l0,0.7h6V63.9l-0.2-7.9l-0.7,0v0.7h0.2V56l-0.6,0.4l21.1,33.8h6.6V47.8h-6.6v24.7l0.2,7.9l0.7,0v-0.7
		h-0.2v0.7l0.6-0.4l-20.1-32.3h-7.5v42.5h0.7L516.8,89.5 M731.2,206h12.8v-85.6h-12.8L731.2,206z M846.1,151.2l-14.6,37.1H831
		l-15.2-37.1h-13.7l22.8,51.9l-13,28.9h13.3l35.1-80.7L846.1,151.2z M773.8,196.2c-4.2,0-10-2.1-10-7.3c0-6.6,7.3-9.1,13.5-9.1
		c5.6,0,8.2,1.2,11.7,2.9C787.9,190.6,781.1,196.2,773.8,196.2L773.8,196.2z M775.3,149.3c-9.2,0-18.8,4.1-22.8,13.1l11.3,4.7
		c2.4-4.7,6.9-6.3,11.7-6.3c6.6,0,13.3,4,13.4,11v0.9c-2.3-1.3-7.3-3.3-13.3-3.3c-12.2,0-24.6,6.7-24.6,19.3
		c0,11.5,10,18.8,21.2,18.8c8.6,0,13.3-3.9,16.3-8.4h0.4v6.6h12.3V173C801.2,157.8,789.9,149.3,775.3,149.3L775.3,149.3z
		 M696.4,161.6h-18.1v-29.3h18.1c9.5,0,15,7.9,15,14.7C711.4,153.6,706,161.6,696.4,161.6z M696.1,120.3h-30.6V206h12.8v-32.4h17.8
		c14.1,0,28-10.3,28-26.6C724.2,130.6,710.2,120.3,696.1,120.3L696.1,120.3z M529.4,196.3c-8.8,0-16.2-7.4-16.2-17.5
		c0-10.3,7.4-17.8,16.2-17.8c8.7,0,15.5,7.5,15.5,17.8C544.9,188.9,538.1,196.3,529.4,196.3L529.4,196.3z M544.1,156h-0.4
		c-2.9-3.4-8.4-6.5-15.3-6.5c-14.5,0-27.9,12.8-27.9,29.2c0,16.3,13.3,29,27.9,29c6.9,0,12.4-3.1,15.3-6.6h0.4v4.2
		c0,11.1-5.9,17.1-15.5,17.1c-7.8,0-12.7-5.6-14.7-10.4l-11.1,4.6c3.2,7.7,11.7,17.2,25.8,17.2c15,0,27.6-8.8,27.6-30.3v-52.3h-12.1
		L544.1,156z M565,206h12.8v-85.6H565V206z M596.6,177.7c-0.3-11.3,8.7-17,15.2-17c5.1,0,9.4,2.5,10.8,6.2L596.6,177.7z M636.3,168
		c-2.4-6.5-9.8-18.5-24.9-18.5c-15,0-27.4,11.8-27.4,29.1c0,16.3,12.3,29.1,28.9,29.1c13.3,0,21-8.2,24.2-12.9l-9.9-6.6
		c-3.3,4.9-7.8,8.1-14.3,8.1c-6.5,0-11.1-3-14.1-8.8l38.9-16.1L636.3,168z M326.5,158.4v12.4H356c-0.9,7-3.2,12-6.7,15.6
		c-4.3,4.3-11,9-22.8,9c-18.2,0-32.4-14.7-32.4-32.9c0-18.2,14.2-32.9,32.4-32.9c9.8,0,17,3.9,22.3,8.8l8.7-8.7
		c-7.4-7.1-17.2-12.5-31-12.5c-24.9,0-45.8,20.3-45.8,45.2c0,24.9,20.9,45.2,45.8,45.2c13.4,0,23.6-4.4,31.5-12.7
		c8.2-8.2,10.7-19.6,10.7-28.9c0-2.9-0.2-5.5-0.7-7.7L326.5,158.4z M402.2,196.3c-8.8,0-16.4-7.3-16.4-17.7
		c0-10.5,7.6-17.7,16.4-17.7c8.8,0,16.4,7.2,16.4,17.7C418.6,189,411,196.3,402.2,196.3z M402.2,149.5c-16.1,0-29.2,12.2-29.2,29.1
		c0,16.8,13.1,29.1,29.2,29.1c16.1,0,29.2-12.4,29.2-29.1C431.4,161.7,418.3,149.5,402.2,149.5z M465.9,196.3
		c-8.8,0-16.4-7.3-16.4-17.7c0-10.5,7.6-17.7,16.4-17.7c8.8,0,16.4,7.2,16.4,17.7C482.3,189,474.7,196.3,465.9,196.3L465.9,196.3z
		 M465.9,149.5c-16.1,0-29.2,12.2-29.2,29.1c0,16.8,13.1,29.1,29.2,29.1c16.1,0,29.2-12.4,29.2-29.1
		C495.1,161.7,482,149.5,465.9,149.5L465.9,149.5z"/>
	<path class="st4" d="M71.9,52.6c-2.3,2.1-3.7,5.5-3.7,10.1v-1v151.5v-1c0,4.2,1.2,7.5,3.2,9.6l0.5,0.5v0c1.6,1.5,3.7,2.2,6,2.2
		c2.3,0,4.9-0.7,7.7-2.3l99.2-56.5l34.1-19.4c4.3-2.5,6.8-5.6,7.2-8.9v0c-0.4-3.2-2.8-6.4-7.2-8.9l-34.1-19.4L85.6,52.7
		c-2.8-1.6-5.4-2.3-7.7-2.3C75.5,50.4,73.5,51.2,71.9,52.6L71.9,52.6z"/>
	
		<linearGradient id="SVGID_1_" gradientUnits="userSpaceOnUse" x1="3389.6521" y1="1147.2948" x2="3249.5251" y2="1416.7838" gradientTransform="matrix(0.2221 0 0 0.4265 -630.1962 -428.7677)">
		<stop  offset="0" style="stop-color:#4998D3"/>
		<stop  offset="6.569999e-03" style="stop-color:#4A99D3"/>
		<stop  offset="0.2601" style="stop-color:#42BAEB"/>
		<stop  offset="0.5122" style="stop-color:#41C7F2"/>
		<stop  offset="0.7604" style="stop-color:#56C9E9"/>
		<stop  offset="1" style="stop-color:#5BCAE8"/>
	</linearGradient>
	<path class="st5" d="M71.9,222.3l-0.5-0.5c-2-2.1-3.2-5.4-3.2-9.6v1V61.8v1c0-4.6,1.4-8,3.7-10.1l84.7,84.9L71.9,222.3"/>
	
		<linearGradient id="SVGID_00000000184343110832300790000010147036087231447222_" gradientUnits="userSpaceOnUse" x1="2093.4492" y1="1878.7933" x2="1608.4441" y2="1878.7933" gradientTransform="matrix(0.3411 0 0 0.2777 -482.7915 -384.293)">
		<stop  offset="0" style="stop-color:#FEE000"/>
		<stop  offset="0.4087" style="stop-color:#FEBD11"/>
		<stop  offset="0.7754" style="stop-color:#FAA51A"/>
		<stop  offset="1" style="stop-color:#F99C1C"/>
	</linearGradient>
	<path style="fill:url(#SVGID_00000000184343110832300790000010147036087231447222_);" d="M184.8,165.8l-28.2-28.3l28.2-28.3
		l34.1,19.4c4.3,2.5,6.8,5.6,7.2,8.9v0c-0.4,3.2-2.8,6.4-7.2,8.9L184.8,165.8"/>
	
		<linearGradient id="SVGID_00000083810101743872164070000013926504223288801948_" gradientUnits="userSpaceOnUse" x1="2067.7925" y1="1766.1995" x2="1625.7174" y2="2105.0474" gradientTransform="matrix(0.3506 0 0 0.2702 -562.7324 -320.6357)">
		<stop  offset="0" style="stop-color:#EF4049"/>
		<stop  offset="1" style="stop-color:#C31E63"/>
	</linearGradient>
	<path style="fill:url(#SVGID_00000083810101743872164070000013926504223288801948_);" d="M77.9,224.6c-2.4,0-4.4-0.8-6-2.2v0
		l84.7-84.8l28.2,28.3l-99.2,56.5C82.8,223.8,80.2,224.6,77.9,224.6"/>
	
		<linearGradient id="SVGID_00000143598384663812433350000017037016720482298803_" gradientUnits="userSpaceOnUse" x1="1726.4574" y1="1683.8459" x2="1923.5564" y2="1835.1509" gradientTransform="matrix(0.3506 0 0 0.2702 -562.6613 -407.5287)">
		<stop  offset="0" style="stop-color:#32A072"/>
		<stop  offset="6.850000e-02" style="stop-color:#2DA771"/>
		<stop  offset="0.4762" style="stop-color:#4BBA71"/>
		<stop  offset="0.8009" style="stop-color:#5EBD6B"/>
		<stop  offset="1" style="stop-color:#66BE69"/>
	</linearGradient>
	<path style="fill:url(#SVGID_00000143598384663812433350000017037016720482298803_);" d="M156.6,137.5L71.9,52.6
		c1.6-1.5,3.7-2.2,6-2.2c2.3,0,4.9,0.7,7.7,2.3l99.2,56.5L156.6,137.5"/>
	
		<linearGradient id="SVGID_00000108311041306188789380000000092894009929671080_" gradientUnits="userSpaceOnUse" x1="1807.851" y1="2343.6184" x2="1807.851" y2="2343.6184" gradientTransform="matrix(0.3506 0 0 0.2702 -562.6613 -407.5287)">
		<stop  offset="0" style="stop-color:#32A072"/>
		<stop  offset="6.850000e-02" style="stop-color:#2DA771"/>
		<stop  offset="0.4762" style="stop-color:#4BBA71"/>
		<stop  offset="0.8009" style="stop-color:#5EBD6B"/>
		<stop  offset="1" style="stop-color:#66BE69"/>
	</linearGradient>
	<path style="fill:url(#SVGID_00000108311041306188789380000000092894009929671080_);" d="M71.1,225.8"/>
	
		<linearGradient id="SVGID_00000134240364363756696220000015996341949760691101_" gradientUnits="userSpaceOnUse" x1="4079.9836" y1="1074.1548" x2="4004.1797" y2="1293.7388" gradientTransform="matrix(0.181 0 0 0.5234 -650.6587 -493.8016)">
		<stop  offset="0" style="stop-color:#308ACA"/>
		<stop  offset="6.569999e-03" style="stop-color:#308ACA"/>
		<stop  offset="0.2601" style="stop-color:#05A7E0"/>
		<stop  offset="0.5122" style="stop-color:#03B8E0"/>
		<stop  offset="0.7604" style="stop-color:#24C1DD"/>
		<stop  offset="1" style="stop-color:#2AC1DB"/>
	</linearGradient>
	<path style="fill:url(#SVGID_00000134240364363756696220000015996341949760691101_);" d="M71.4,222.8c-2-2.1-3.2-5.4-3.2-9.6v-1
		c0,4.2,1.2,7.5,3.2,9.6l0.5,0.5L71.4,222.8"/>
	
		<linearGradient id="SVGID_00000016795315326420049850000009326154486493758642_" gradientUnits="userSpaceOnUse" x1="1829.7809" y1="2026.4449" x2="1379.7449" y2="2026.4449" gradientTransform="matrix(0.3676 0 0 0.2577 -441.3489 -370.2569)">
		<stop  offset="0" style="stop-color:#DFC523"/>
		<stop  offset="0.4087" style="stop-color:#DFA726"/>
		<stop  offset="0.7754" style="stop-color:#DF9226"/>
		<stop  offset="1" style="stop-color:#DF8A26"/>
	</linearGradient>
	<path style="fill:url(#SVGID_00000016795315326420049850000009326154486493758642_);" d="M185.4,166.4l-0.6-0.6l34.1-19.4
		c4.3-2.5,6.8-5.6,7.2-8.9c0,1.2-0.3,2.4-0.8,3.5c-1.1,2.3-3.2,4.5-6.4,6.3L185.4,166.4"/>
	
		<linearGradient id="SVGID_00000123420887195681001790000010597167055014062253_" gradientUnits="userSpaceOnUse" x1="1829.8197" y1="2025.7689" x2="1379.7777" y2="2025.7689" gradientTransform="matrix(0.3676 0 0 0.2577 -441.3519 -399.0231)">
		<stop  offset="0" style="stop-color:#FEE741"/>
		<stop  offset="0.4087" style="stop-color:#FFCF41"/>
		<stop  offset="0.7754" style="stop-color:#FDBB41"/>
		<stop  offset="1" style="stop-color:#FCB442"/>
	</linearGradient>
	<path style="fill:url(#SVGID_00000123420887195681001790000010597167055014062253_);" d="M226.1,137.5c-0.4-3.2-2.8-6.4-7.2-8.9
		l-34.1-19.4l0.6-0.6h0l33.5,19C223.7,130.3,226.1,133.9,226.1,137.5"/>
	
		<linearGradient id="SVGID_00000108279958348408955760000001845531979389970819_" gradientUnits="userSpaceOnUse" x1="3991.6675" y1="1346.3815" x2="3916.2883" y2="1555.8484" gradientTransform="matrix(0.1807 0 0 0.5242 -650.7827 -654.5488)">
		<stop  offset="0" style="stop-color:#5DB4E5"/>
		<stop  offset="6.569999e-03" style="stop-color:#5CB5E5"/>
		<stop  offset="0.2601" style="stop-color:#50C9F5"/>
		<stop  offset="0.5122" style="stop-color:#62CCED"/>
		<stop  offset="0.7604" style="stop-color:#6FCEE9"/>
		<stop  offset="1" style="stop-color:#71CEE8"/>
	</linearGradient>
	<path style="fill:url(#SVGID_00000108279958348408955760000001845531979389970819_);" d="M68.2,62.8v-1c0-0.4,0-0.7,0-1.1v0
		c0,0,0,0,0,0v0c0.2-3.7,1.3-6.5,3.1-8.4l0.5,0.5C69.6,54.7,68.2,58.2,68.2,62.8"/>
	
		<linearGradient id="SVGID_00000115484955349599582570000011702493926164532389_" gradientUnits="userSpaceOnUse" x1="3994.02" y1="1457.4684" x2="3994.02" y2="1457.4684" gradientTransform="matrix(0.1807 0 0 0.5242 -650.7827 -654.5488)">
		<stop  offset="0" style="stop-color:#5DB4E5"/>
		<stop  offset="6.569999e-03" style="stop-color:#5CB5E5"/>
		<stop  offset="0.2601" style="stop-color:#50C9F5"/>
		<stop  offset="0.5122" style="stop-color:#62CCED"/>
		<stop  offset="0.7604" style="stop-color:#6FCEE9"/>
		<stop  offset="1" style="stop-color:#71CEE8"/>
	</linearGradient>
	<path style="fill:url(#SVGID_00000115484955349599582570000011702493926164532389_);" d="M71.1,109.4"/>
</g>
</svg>
