<?xml version="1.0" encoding="utf-8"?>
<!-- Generator: Adobe Illustrator 26.0.1, SVG Export Plug-In . SVG Version: 6.00 Build 0)  -->
<svg version="1.1" id="Layer_1" xmlns="http://www.w3.org/2000/svg" xmlns:xlink="http://www.w3.org/1999/xlink" x="0px" y="0px"
	 viewBox="0 0 750 512" style="enable-background:new 0 0 750 512;" xml:space="preserve">
<style type="text/css">
	.st0{opacity:0.15;fill:#185ADB;enable-background:new    ;}
	.st1{fill:url(#SVGID_1_);}
	.st2{fill:url(#SVGID_00000170991371922388587620000015057695564677967750_);}
	.st3{fill:url(#SVGID_00000002384418587170758040000009723235037259031974_);}
	.st4{fill:url(#SVGID_00000145058815337161427710000000608413000823383228_);}
	.st5{fill:url(#SVGID_00000080179995807027387540000006385413279666086831_);}
	.st6{fill:url(#SVGID_00000019658200905590914000000008422487931783691653_);}
	.st7{fill:url(#SVGID_00000111873373603044578140000003650796286865612712_);}
	.st8{fill:#768589;}
</style>
<path class="st0" d="M706.4,489.4H43.6c-13.8,0-25-11.2-25-25V47.6c0-13.8,11.2-25,25-25h662.9c13.8,0,25,11.2,25,25v416.8
	C731.4,478.2,720.2,489.4,706.4,489.4z"/>
<g>
	
		<linearGradient id="SVGID_1_" gradientUnits="userSpaceOnUse" x1="167.8522" y1="979.4914" x2="234.0197" y2="979.4914" gradientTransform="matrix(0 -1 -1 0 1467.9414 393.6602)">
		<stop  offset="0" style="stop-color:#00DAF8"/>
		<stop  offset="0.9984" style="stop-color:#008FC4"/>
	</linearGradient>
	<path class="st1" d="M488.4,189.5v0.1c0.1,1.4,0.1,2.8,0.1,4.1l0,0c0-1.3,0-2.7-0.1-4C488.5,189.7,488.4,189.6,488.4,189.5z"/>
	<g>
		
			<linearGradient id="SVGID_00000143588861926027875570000009551670177357976740_" gradientUnits="userSpaceOnUse" x1="240.2363" y1="265.2805" x2="353.8363" y2="265.2805" gradientTransform="matrix(1 0 0 -1 134.7637 376.9805)">
			<stop  offset="0" style="stop-color:#5300A9"/>
			<stop  offset="1" style="stop-color:#C300FF"/>
		</linearGradient>
		<polygon style="fill:url(#SVGID_00000143588861926027875570000009551670177357976740_);" points="439,158.8 439,158.8 
			488.6,130.1 375,64.6 375,121.8 		"/>
		
			<linearGradient id="SVGID_00000064329496418734565640000014248504657953152948_" gradientUnits="userSpaceOnUse" x1="271.0051" y1="115.6805" x2="271.0051" y2="246.8805" gradientTransform="matrix(-1 0 0 -1 557.2051 376.9805)">
			<stop  offset="0" style="stop-color:#5300A9"/>
			<stop  offset="1" style="stop-color:#C300FF"/>
		</linearGradient>
		<polygon style="fill:url(#SVGID_00000064329496418734565640000014248504657953152948_);" points="310.9,232.7 310.9,232.7 
			310.9,158.8 310.9,158.8 261.4,130.1 261.4,261.3 311,232.7 		"/>
		
			<linearGradient id="SVGID_00000138545324120944793530000001913900259828069025_" gradientUnits="userSpaceOnUse" x1="126.6363" y1="265.2805" x2="240.2363" y2="265.2805" gradientTransform="matrix(1 0 0 -1 134.7637 376.9805)">
			<stop  offset="0" style="stop-color:#5300A9"/>
			<stop  offset="1" style="stop-color:#C300FF"/>
		</linearGradient>
		<polygon style="fill:url(#SVGID_00000138545324120944793530000001913900259828069025_);" points="310.9,158.8 375,121.8 375,64.6 
			261.4,130.1 		"/>
		
			<linearGradient id="SVGID_00000181085665211566218000000001939349879302049200_" gradientUnits="userSpaceOnUse" x1="131.5996" y1="1106.1477" x2="245.1996" y2="1106.1477" gradientTransform="matrix(-1 0 0 1 506.5996 -826.3477)">
			<stop  offset="0" style="stop-color:#5300A9"/>
			<stop  offset="1" style="stop-color:#C300FF"/>
		</linearGradient>
		<polygon style="fill:url(#SVGID_00000181085665211566218000000001939349879302049200_);" points="375,269.7 311,232.7 
			261.4,261.3 375,326.9 		"/>
		
			<linearGradient id="SVGID_00000153691175629422899150000001774894457348237984_" gradientUnits="userSpaceOnUse" x1="18.0996" y1="1106.1477" x2="131.5996" y2="1106.1477" gradientTransform="matrix(-1 0 0 1 506.5996 -826.3477)">
			<stop  offset="0" style="stop-color:#5300A9"/>
			<stop  offset="1" style="stop-color:#C300FF"/>
		</linearGradient>
		<polygon style="fill:url(#SVGID_00000153691175629422899150000001774894457348237984_);" points="375,269.7 375,326.9 
			488.5,261.3 439,232.7 		"/>
		
			<linearGradient id="SVGID_00000126319796406098625300000016965171141116143292_" gradientUnits="userSpaceOnUse" x1="336.2871" y1="105.5485" x2="261.9445" y2="234.3138" gradientTransform="matrix(1 0 0 -1 134.7637 376.9805)">
			<stop  offset="0" style="stop-color:#C300FF"/>
			<stop  offset="1" style="stop-color:#5300A9"/>
		</linearGradient>
		<polygon style="fill:url(#SVGID_00000126319796406098625300000016965171141116143292_);" points="439,158.8 410.1,175.5 
			410.1,175.5 410.1,175.5 375,155.2 339.9,175.5 339.9,216 375,236.3 410.1,216 488.6,261.3 488.6,130.1 		"/>
	</g>
	<g>
		<g>
			<path class="st8" d="M250,401.6c0.2,0,0.5,0,0.7,0.1s0.5,0.3,0.7,0.5l4.1,4.3c-1.8,2.4-4.1,4.1-6.8,5.3c-2.7,1.2-5.9,1.8-9.6,1.8
				c-3.4,0-6.4-0.6-9.1-1.7c-2.7-1.2-5-2.7-6.8-4.8c-1.9-2-3.3-4.4-4.3-7.2c-1-2.8-1.5-5.8-1.5-9.1c0-3.3,0.5-6.4,1.6-9.2
				c1.1-2.8,2.6-5.2,4.6-7.2s4.3-3.6,7-4.7s5.8-1.7,9-1.7c1.7,0,3.2,0.1,4.7,0.4s2.9,0.7,4.2,1.2s2.5,1.2,3.6,1.9
				c1.1,0.7,2,1.5,2.9,2.4l-3.5,4.7c-0.2,0.3-0.5,0.5-0.8,0.8c-0.3,0.2-0.7,0.4-1.3,0.4c-0.4,0-0.7-0.1-1-0.2
				c-0.3-0.2-0.7-0.4-1-0.6c-0.4-0.2-0.8-0.5-1.2-0.8s-1-0.5-1.6-0.8c-0.6-0.2-1.3-0.4-2.1-0.6s-1.8-0.2-2.8-0.2
				c-1.7,0-3.3,0.3-4.7,0.9s-2.6,1.6-3.7,2.8c-1,1.2-1.8,2.7-2.4,4.5c-0.6,1.8-0.8,3.8-0.8,6.1c0,2.3,0.3,4.3,0.9,6.1
				c0.6,1.8,1.5,3.3,2.5,4.5c1.1,1.2,2.3,2.1,3.8,2.8c1.4,0.6,3,1,4.6,1c0.9,0,1.8,0,2.6-0.1s1.5-0.2,2.2-0.5
				c0.7-0.2,1.3-0.5,1.9-0.9c0.6-0.4,1.2-0.8,1.8-1.4c0.2-0.2,0.5-0.4,0.8-0.5C249.4,401.6,249.7,401.6,250,401.6z"/>
			<path class="st8" d="M302.9,390.8c0,3.2-0.6,6.2-1.7,9s-2.7,5.2-4.7,7.2c-2,2.1-4.5,3.7-7.3,4.8c-2.8,1.2-6,1.7-9.5,1.7
				s-6.6-0.6-9.5-1.7c-2.9-1.2-5.3-2.8-7.3-4.8c-2-2.1-3.6-4.5-4.7-7.2c-1.1-2.8-1.7-5.8-1.7-9s0.6-6.2,1.7-9s2.7-5.2,4.7-7.2
				s4.5-3.7,7.3-4.8c2.9-1.2,6-1.7,9.5-1.7s6.6,0.6,9.5,1.8c2.8,1.2,5.3,2.8,7.3,4.8s3.6,4.5,4.7,7.2
				C302.4,384.6,302.9,387.6,302.9,390.8z M292.3,390.8c0-2.2-0.3-4.2-0.9-6s-1.4-3.3-2.5-4.5s-2.4-2.2-3.9-2.8s-3.3-1-5.3-1
				s-3.8,0.3-5.3,1c-1.6,0.7-2.9,1.6-4,2.8c-1.1,1.2-1.9,2.7-2.5,4.5s-0.9,3.8-0.9,6s0.3,4.2,0.9,6s1.4,3.3,2.5,4.5s2.4,2.2,4,2.8
				c1.6,0.6,3.3,1,5.3,1s3.8-0.3,5.3-1c1.6-0.6,2.9-1.6,3.9-2.8c1.1-1.2,1.9-2.7,2.5-4.5S292.3,393,292.3,390.8z"/>
			<path class="st8" d="M359.2,368.5v44.7h-9.1v-25.7c0-0.6,0-1.2,0.1-1.9c0-0.7,0.1-1.4,0.2-2.1l-11.9,23c-0.4,0.7-0.9,1.3-1.5,1.6
				c-0.6,0.4-1.3,0.6-2.1,0.6h-1.4c-0.8,0-1.5-0.2-2.1-0.6s-1.1-0.9-1.5-1.6l-11.9-23c0.1,0.7,0.1,1.5,0.2,2.2
				c0,0.7,0.1,1.4,0.1,1.9v25.7H309v-44.7h7.9c0.5,0,0.8,0,1.2,0c0.3,0,0.6,0.1,0.9,0.2s0.5,0.3,0.7,0.5s0.4,0.5,0.6,0.9l11.5,22.7
				c0.4,0.8,0.8,1.6,1.2,2.4c0.4,0.8,0.7,1.7,1.1,2.6c0.3-0.9,0.7-1.8,1.1-2.6c0.4-0.9,0.8-1.7,1.2-2.5l11.5-22.6
				c0.2-0.4,0.4-0.7,0.6-0.9c0.2-0.2,0.5-0.4,0.7-0.5c0.3-0.1,0.6-0.2,0.9-0.2s0.7,0,1.2,0h7.9V368.5z"/>
			<path class="st8" d="M383.6,368.5c3.1,0,5.9,0.4,8.1,1.1c2.3,0.7,4.1,1.8,5.6,3.1c1.5,1.3,2.5,2.9,3.2,4.6c0.7,1.8,1,3.7,1,5.8
				c0,2.2-0.4,4.3-1.1,6.1c-0.7,1.9-1.8,3.5-3.3,4.8s-3.3,2.4-5.6,3.1c-2.3,0.7-4.9,1.1-8,1.1h-5.4v14.9h-10.4v-44.7h15.9V368.5z
				 M383.6,390.4c2.7,0,4.6-0.6,5.8-1.9c1.2-1.3,1.8-3.1,1.8-5.4c0-1-0.2-2-0.5-2.8s-0.8-1.6-1.4-2.2s-1.4-1.1-2.4-1.4
				s-2.1-0.5-3.4-0.5h-5.4v14.2L383.6,390.4L383.6,390.4z"/>
			<path class="st8" d="M443.8,413.1h-8c-0.9,0-1.6-0.2-2.2-0.6s-1-1-1.3-1.6l-2.6-7.8h-17l-2.6,7.8c-0.2,0.6-0.6,1.1-1.2,1.5
				c-0.6,0.5-1.3,0.7-2.2,0.7h-8.1l17.3-44.7h10.6L443.8,413.1z M427.3,396.1l-4.1-12.2c-0.3-0.8-0.6-1.7-1-2.7
				c-0.4-1.1-0.7-2.2-1-3.4c-0.3,1.2-0.6,2.4-1,3.5c-0.3,1.1-0.7,2-1,2.8l-4.1,12.2h12.2V396.1z"/>
			<path class="st8" d="M486.3,368.5v44.7h-5.4c-0.8,0-1.5-0.1-2-0.4s-1.1-0.7-1.6-1.3l-21.1-26.6c0.1,0.8,0.1,1.6,0.2,2.3
				c0,0.7,0.1,1.4,0.1,2.1v23.9h-9.1v-44.7h5.5c0.4,0,0.8,0,1.1,0.1c0.3,0,0.6,0.1,0.8,0.2c0.2,0.1,0.5,0.3,0.7,0.5s0.5,0.5,0.8,0.8
				l21.2,26.8c-0.1-0.9-0.2-1.7-0.2-2.5s-0.1-1.6-0.1-2.3v-23.6H486.3z"/>
			<path class="st8" d="M516.4,396.1v17H506v-17l-16.2-27.7h9.1c0.9,0,1.6,0.2,2.1,0.6s1,1,1.3,1.6l6.3,13c0.5,1,1,2,1.4,2.9
				s0.8,1.8,1.1,2.6c0.3-0.9,0.7-1.8,1.1-2.7c0.4-0.9,0.9-1.8,1.4-2.8l6.3-13c0.1-0.3,0.3-0.5,0.5-0.8s0.4-0.5,0.7-0.7
				s0.6-0.4,1-0.5s0.8-0.2,1.2-0.2h9.2L516.4,396.1z"/>
		</g>
		<g>
			<path class="st8" d="M291.9,428.8h-6.7v18.4h-3.1v-18.4h-6.7v-2.6h16.5L291.9,428.8L291.9,428.8z"/>
			<path class="st8" d="M310.3,447.2h-2.4c-0.3,0-0.5-0.1-0.7-0.2s-0.3-0.3-0.4-0.5l-1.9-4.9h-9.3l-1.9,4.9
				c-0.1,0.2-0.2,0.4-0.4,0.5c-0.2,0.2-0.4,0.2-0.7,0.2h-2.4l8.4-21h3.1L310.3,447.2z M304.1,439.4l-3.1-8.2
				c-0.2-0.6-0.5-1.3-0.7-2.1c-0.1,0.4-0.2,0.8-0.3,1.2c-0.1,0.4-0.2,0.7-0.3,1l-3.1,8.1H304.1z"/>
			<path class="st8" d="M329.5,437v8.2c-1.1,0.8-2.2,1.3-3.4,1.7c-1.2,0.4-2.5,0.6-3.9,0.6c-1.7,0-3.2-0.3-4.6-0.8s-2.5-1.3-3.5-2.2
				c-1-0.9-1.7-2.1-2.2-3.4s-0.8-2.8-0.8-4.3c0-1.6,0.3-3,0.8-4.4c0.5-1.3,1.2-2.5,2.2-3.4c0.9-0.9,2.1-1.7,3.4-2.2s2.8-0.8,4.5-0.8
				c0.8,0,1.6,0.1,2.3,0.2c0.7,0.1,1.4,0.3,2,0.5s1.2,0.5,1.7,0.8s1,0.7,1.5,1.1l-0.9,1.4c-0.1,0.2-0.3,0.4-0.5,0.4
				c-0.2,0.1-0.5,0-0.7-0.2c-0.3-0.1-0.5-0.3-0.8-0.5s-0.7-0.4-1.1-0.5c-0.4-0.2-0.9-0.3-1.5-0.4s-1.2-0.2-2-0.2
				c-1.2,0-2.2,0.2-3.1,0.6s-1.7,0.9-2.4,1.6c-0.7,0.7-1.2,1.5-1.5,2.5c-0.4,1-0.5,2.1-0.5,3.3c0,1.3,0.2,2.4,0.6,3.5
				c0.4,1,0.9,1.9,1.6,2.6s1.5,1.2,2.5,1.6s2.1,0.6,3.3,0.6c0.5,0,0.9,0,1.3-0.1s0.8-0.1,1.2-0.2c0.4-0.1,0.7-0.2,1.1-0.4
				c0.3-0.1,0.7-0.3,1-0.5v-4.4H324c-0.2,0-0.4-0.1-0.5-0.2s-0.2-0.3-0.2-0.4V437H329.5z"/>
			<path class="st8" d="M345.7,444.6v2.6h-12v-21h3.1v18.4H345.7z"/>
			<path class="st8" d="M351.9,447.2h-3.1v-21h3.1V447.2z"/>
			<path class="st8" d="M374.3,426.2v21h-1.6c-0.2,0-0.5,0-0.6-0.1c-0.2-0.1-0.3-0.2-0.5-0.4l-11.9-15.4c0,0.3,0,0.5,0.1,0.8
				c0,0.3,0,0.5,0,0.7v14.4h-2.7v-21h1.6c0.3,0,0.5,0,0.6,0.1s0.3,0.2,0.5,0.4l11.9,15.4c0-0.3-0.1-0.6-0.1-0.8c0-0.3,0-0.5,0-0.8
				v-14.3L374.3,426.2L374.3,426.2z"/>
			<path class="st8" d="M392.5,444.7v2.5h-13v-21h13v2.5h-9.9v6.7h8v2.4h-8v6.8h9.9V444.7z"/>
			<path class="st8" d="M420.9,426.2v21h-3.1v-9.5h-11v9.5h-3.1v-21h3.1v9.3h11v-9.3H420.9z"/>
			<path class="st8" d="M439.2,444.7v2.5h-13v-21h13v2.5h-9.9v6.7h8v2.4h-8v6.8h9.9V444.7z"/>
			<path class="st8" d="M458.8,447.2H456c-0.6,0-1-0.2-1.2-0.7l-5.2-7.3c-0.2-0.2-0.4-0.4-0.5-0.5c-0.2-0.1-0.5-0.2-0.9-0.2h-2v8.6
				H443v-21h6.1c1.4,0,2.5,0.1,3.5,0.4s1.8,0.7,2.4,1.2s1.1,1.1,1.4,1.9c0.3,0.7,0.5,1.5,0.5,2.4c0,0.7-0.1,1.4-0.3,2.1
				c-0.2,0.6-0.6,1.2-1,1.7s-1,1-1.6,1.3c-0.6,0.4-1.3,0.7-2.1,0.9c0.4,0.2,0.7,0.6,1,1L458.8,447.2z M449,436.3
				c0.8,0,1.5-0.1,2.1-0.3s1.1-0.5,1.5-0.8c0.4-0.4,0.7-0.8,0.9-1.3c0.2-0.5,0.3-1,0.3-1.6c0-1.2-0.4-2.1-1.2-2.7
				c-0.8-0.6-2-0.9-3.6-0.9h-2.9v7.7h2.9V436.3z"/>
			<path class="st8" d="M474.5,444.7v2.5h-13v-21h13v2.5h-9.9v6.7h8v2.4h-8v6.8h9.9V444.7z"/>
		</g>
	</g>
</g>
</svg>
