<?xml version="1.0" encoding="utf-8"?>
<!-- Generator: Adobe Illustrator 26.0.1, SVG Export Plug-In . SVG Version: 6.00 Build 0)  -->
<svg version="1.1" id="Layer_1" xmlns="http://www.w3.org/2000/svg" xmlns:xlink="http://www.w3.org/1999/xlink" x="0px" y="0px"
	 viewBox="0 0 750 512" style="enable-background:new 0 0 750 512;" xml:space="preserve">
<style type="text/css">
	.st0{opacity:0.15;fill:#185ADB;}
	.st1{opacity:0.67;fill:#185ADB;}
	.st2{fill:#768589;}
	.st3{fill:url(#SVGID_1_);}
	.st4{fill:url(#SVGID_00000126318739782807013250000007023221920739396537_);}
	.st5{fill:url(#SVGID_00000051359116914688717350000009839457087309845900_);}
	.st6{fill:url(#SVGID_00000183956506953786125250000014225033917569181337_);}
	.st7{fill:url(#SVGID_00000011713752718454102070000013061162588850884486_);}
	.st8{fill:url(#SVGID_00000120522182519939075670000000108496962149254538_);}
	.st9{fill:url(#SVGID_00000109020829988460857910000017140062783093706925_);}
	.st10{fill:url(#SVGID_00000154399221535896322240000015436666006190765444_);}
	.st11{fill:url(#SVGID_00000080208539249363911770000006640434866595370677_);}
	.st12{fill:url(#SVGID_00000067224923920242085570000005858950699002133686_);}
	.st13{fill:url(#SVGID_00000110462017666653132770000014683270148634376887_);}
	.st14{fill:url(#SVGID_00000113316788324125238830000017528596891999050676_);}
	.st15{fill:url(#SVGID_00000077291390627110977000000001265769621750722465_);}
	.st16{fill:url(#SVGID_00000060014308183840004110000013378660449711449472_);}
	.st17{fill:url(#SVGID_00000019641159411798225420000013227073220477688470_);}
	.st18{fill:url(#SVGID_00000022528095658761480370000004077031663857450650_);}
	.st19{fill:url(#SVGID_00000050655184273076223730000004768926603878823095_);}
	.st20{fill:url(#SVGID_00000044136700807400220690000001661285382781722027_);}
	.st21{fill:url(#SVGID_00000057847158317848487590000006974423128453336251_);}
	.st22{fill:url(#SVGID_00000080166538126190359680000015649690156233226658_);}
	.st23{fill:none;}
	.st24{fill:url(#SVGID_00000073000573939813728980000012570896163070827162_);}
	.st25{fill:url(#SVGID_00000083047869530861379610000008044905344381655728_);}
	.st26{fill:#FFFFFF;}
	.st27{fill:#231F20;}
	.st28{fill:url(#SVGID_00000172430796910690586350000005524409886653954447_);}
	.st29{fill:url(#SVGID_00000013906765311590355140000004297065151373095829_);}
</style>
<path class="st0" d="M706.4,489.4H43.6c-13.8,0-25-11.2-25-25V47.6c0-13.8,11.2-25,25-25h662.9c13.8,0,25,11.2,25,25v416.8
	C731.4,478.2,720.2,489.4,706.4,489.4z"/>
<g>
	<g>
		<g>
			<path class="st2" d="M250,401.3c0.2,0,0.5,0,0.7,0.1c0.2,0.1,0.5,0.3,0.7,0.5l4.1,4.3c-1.8,2.4-4.1,4.1-6.8,5.3
				c-2.7,1.2-5.9,1.8-9.6,1.8c-3.4,0-6.4-0.6-9.1-1.7c-2.7-1.2-5-2.7-6.8-4.8c-1.9-2-3.3-4.4-4.3-7.2c-1-2.8-1.5-5.8-1.5-9.1
				c0-3.3,0.5-6.4,1.6-9.2c1.1-2.8,2.6-5.2,4.6-7.2c2-2,4.3-3.6,7-4.7c2.7-1.1,5.8-1.7,9-1.7c1.7,0,3.2,0.1,4.7,0.4
				c1.5,0.3,2.9,0.7,4.2,1.2c1.3,0.5,2.5,1.2,3.6,1.9c1.1,0.7,2,1.5,2.9,2.4l-3.5,4.7c-0.2,0.3-0.5,0.5-0.8,0.8
				c-0.3,0.2-0.7,0.4-1.3,0.4c-0.4,0-0.7-0.1-1-0.2c-0.3-0.2-0.7-0.4-1-0.6c-0.4-0.2-0.8-0.5-1.2-0.8c-0.4-0.3-1-0.5-1.6-0.8
				c-0.6-0.2-1.3-0.4-2.1-0.6c-0.8-0.2-1.8-0.2-2.8-0.2c-1.7,0-3.3,0.3-4.7,0.9c-1.4,0.6-2.6,1.6-3.7,2.8c-1,1.2-1.8,2.7-2.4,4.5
				c-0.6,1.8-0.8,3.8-0.8,6.1c0,2.3,0.3,4.3,0.9,6.1c0.6,1.8,1.5,3.3,2.5,4.5c1.1,1.2,2.3,2.1,3.8,2.8c1.4,0.6,3,1,4.6,1
				c0.9,0,1.8,0,2.6-0.1c0.8-0.1,1.5-0.2,2.2-0.5c0.7-0.2,1.3-0.5,1.9-0.9c0.6-0.4,1.2-0.8,1.8-1.4c0.2-0.2,0.5-0.4,0.8-0.5
				C249.4,401.3,249.7,401.3,250,401.3z"/>
			<path class="st2" d="M302.9,390.5c0,3.2-0.6,6.2-1.7,9c-1.1,2.8-2.7,5.2-4.7,7.2c-2,2.1-4.5,3.7-7.3,4.8c-2.8,1.2-6,1.7-9.5,1.7
				c-3.5,0-6.6-0.6-9.5-1.7c-2.9-1.2-5.3-2.8-7.3-4.8c-2-2.1-3.6-4.5-4.7-7.2c-1.1-2.8-1.7-5.8-1.7-9c0-3.2,0.6-6.2,1.7-9
				c1.1-2.8,2.7-5.2,4.7-7.2c2-2,4.5-3.7,7.3-4.8c2.9-1.2,6-1.7,9.5-1.7c3.5,0,6.6,0.6,9.5,1.8c2.8,1.2,5.3,2.8,7.3,4.8
				c2,2,3.6,4.5,4.7,7.2C302.4,384.3,302.9,387.3,302.9,390.5z M292.3,390.5c0-2.2-0.3-4.2-0.9-6c-0.6-1.8-1.4-3.3-2.5-4.5
				c-1.1-1.2-2.4-2.2-3.9-2.8s-3.3-1-5.3-1c-2,0-3.8,0.3-5.3,1c-1.6,0.7-2.9,1.6-4,2.8c-1.1,1.2-1.9,2.7-2.5,4.5
				c-0.6,1.8-0.9,3.8-0.9,6c0,2.2,0.3,4.2,0.9,6c0.6,1.8,1.4,3.3,2.5,4.5c1.1,1.2,2.4,2.2,4,2.8c1.6,0.6,3.3,1,5.3,1
				c2,0,3.8-0.3,5.3-1s2.9-1.6,3.9-2.8c1.1-1.2,1.9-2.7,2.5-4.5C292,394.7,292.3,392.7,292.3,390.5z"/>
			<path class="st2" d="M359.2,368.1v44.7h-9.1v-25.7c0-0.6,0-1.2,0.1-1.9c0-0.7,0.1-1.4,0.2-2.1l-11.9,23c-0.4,0.7-0.9,1.3-1.5,1.6
				c-0.6,0.4-1.3,0.6-2.1,0.6h-1.4c-0.8,0-1.5-0.2-2.1-0.6c-0.6-0.4-1.1-0.9-1.5-1.6l-11.9-23c0.1,0.7,0.1,1.5,0.2,2.2
				c0,0.7,0.1,1.4,0.1,1.9v25.7H309v-44.7h7.9c0.5,0,0.8,0,1.2,0c0.3,0,0.6,0.1,0.9,0.2c0.3,0.1,0.5,0.3,0.7,0.5
				c0.2,0.2,0.4,0.5,0.6,0.9l11.5,22.7c0.4,0.8,0.8,1.6,1.2,2.4c0.4,0.8,0.7,1.7,1.1,2.6c0.3-0.9,0.7-1.8,1.1-2.6
				c0.4-0.9,0.8-1.7,1.2-2.5l11.5-22.6c0.2-0.4,0.4-0.7,0.6-0.9c0.2-0.2,0.5-0.4,0.7-0.5c0.3-0.1,0.6-0.2,0.9-0.2c0.3,0,0.7,0,1.2,0
				H359.2z"/>
			<path class="st2" d="M383.6,368.1c3.1,0,5.9,0.4,8.1,1.1c2.3,0.7,4.1,1.8,5.6,3.1c1.5,1.3,2.5,2.9,3.2,4.6c0.7,1.8,1,3.7,1,5.8
				c0,2.2-0.4,4.3-1.1,6.1c-0.7,1.9-1.8,3.5-3.3,4.8c-1.5,1.3-3.3,2.4-5.6,3.1c-2.3,0.7-4.9,1.1-8,1.1h-5.4v14.9h-10.4v-44.7H383.6z
				 M383.6,390.1c2.7,0,4.6-0.6,5.8-1.9c1.2-1.3,1.8-3.1,1.8-5.4c0-1-0.2-2-0.5-2.8c-0.3-0.8-0.8-1.6-1.4-2.2
				c-0.6-0.6-1.4-1.1-2.4-1.4c-1-0.3-2.1-0.5-3.4-0.5h-5.4v14.2H383.6z"/>
			<path class="st2" d="M443.8,412.8h-8c-0.9,0-1.6-0.2-2.2-0.6c-0.6-0.4-1-1-1.3-1.6l-2.6-7.8h-17l-2.6,7.8
				c-0.2,0.6-0.6,1.1-1.2,1.5c-0.6,0.5-1.3,0.7-2.2,0.7h-8.1l17.3-44.7h10.6L443.8,412.8z M427.3,395.7l-4.1-12.2
				c-0.3-0.8-0.6-1.7-1-2.7c-0.4-1.1-0.7-2.2-1-3.4c-0.3,1.2-0.6,2.4-1,3.5c-0.3,1.1-0.7,2-1,2.8l-4.1,12.2H427.3z"/>
			<path class="st2" d="M486.3,368.1v44.7h-5.4c-0.8,0-1.5-0.1-2-0.4c-0.5-0.3-1.1-0.7-1.6-1.3l-21.1-26.6c0.1,0.8,0.1,1.6,0.2,2.3
				c0,0.7,0.1,1.4,0.1,2.1v23.9h-9.1v-44.7h5.5c0.4,0,0.8,0,1.1,0.1c0.3,0,0.6,0.1,0.8,0.2c0.2,0.1,0.5,0.3,0.7,0.5
				c0.2,0.2,0.5,0.5,0.8,0.8l21.2,26.8c-0.1-0.9-0.2-1.7-0.2-2.5c0-0.8-0.1-1.6-0.1-2.3v-23.6H486.3z"/>
			<path class="st2" d="M516.4,395.8v17H506v-17l-16.2-27.7h9.1c0.9,0,1.6,0.2,2.1,0.6c0.5,0.4,1,1,1.3,1.6l6.3,13
				c0.5,1,1,2,1.4,2.9c0.4,0.9,0.8,1.8,1.1,2.6c0.3-0.9,0.7-1.8,1.1-2.7c0.4-0.9,0.9-1.8,1.4-2.8l6.3-13c0.1-0.3,0.3-0.5,0.5-0.8
				c0.2-0.3,0.4-0.5,0.7-0.7c0.3-0.2,0.6-0.4,1-0.5c0.4-0.1,0.8-0.2,1.2-0.2h9.2L516.4,395.8z"/>
		</g>
		<g>
			<path class="st2" d="M291.9,428.5h-6.7v18.4h-3.1v-18.4h-6.7v-2.6h16.5V428.5z"/>
			<path class="st2" d="M310.3,446.9h-2.4c-0.3,0-0.5-0.1-0.7-0.2c-0.2-0.1-0.3-0.3-0.4-0.5l-1.9-4.9h-9.3l-1.9,4.9
				c-0.1,0.2-0.2,0.4-0.4,0.5c-0.2,0.2-0.4,0.2-0.7,0.2h-2.4l8.4-21h3.1L310.3,446.9z M304.1,439l-3.1-8.2c-0.2-0.6-0.5-1.3-0.7-2.1
				c-0.1,0.4-0.2,0.8-0.3,1.2c-0.1,0.4-0.2,0.7-0.3,1l-3.1,8.1H304.1z"/>
			<path class="st2" d="M329.5,436.6v8.2c-1.1,0.8-2.2,1.3-3.4,1.7c-1.2,0.4-2.5,0.6-3.9,0.6c-1.7,0-3.2-0.3-4.6-0.8
				c-1.4-0.5-2.5-1.3-3.5-2.2c-1-0.9-1.7-2.1-2.2-3.4c-0.5-1.3-0.8-2.8-0.8-4.3c0-1.6,0.3-3,0.8-4.4c0.5-1.3,1.2-2.5,2.2-3.4
				c0.9-0.9,2.1-1.7,3.4-2.2c1.3-0.5,2.8-0.8,4.5-0.8c0.8,0,1.6,0.1,2.3,0.2c0.7,0.1,1.4,0.3,2,0.5c0.6,0.2,1.2,0.5,1.7,0.8
				c0.5,0.3,1,0.7,1.5,1.1l-0.9,1.4c-0.1,0.2-0.3,0.4-0.5,0.4c-0.2,0.1-0.5,0-0.7-0.2c-0.3-0.1-0.5-0.3-0.8-0.5
				c-0.3-0.2-0.7-0.4-1.1-0.5c-0.4-0.2-0.9-0.3-1.5-0.4c-0.6-0.1-1.2-0.2-2-0.2c-1.2,0-2.2,0.2-3.1,0.6c-0.9,0.4-1.7,0.9-2.4,1.6
				c-0.7,0.7-1.2,1.5-1.5,2.5c-0.4,1-0.5,2.1-0.5,3.3c0,1.3,0.2,2.4,0.6,3.5c0.4,1,0.9,1.9,1.6,2.6c0.7,0.7,1.5,1.2,2.5,1.6
				c1,0.4,2.1,0.6,3.3,0.6c0.5,0,0.9,0,1.3-0.1c0.4-0.1,0.8-0.1,1.2-0.2c0.4-0.1,0.7-0.2,1.1-0.4c0.3-0.1,0.7-0.3,1-0.5V439h-3.1
				c-0.2,0-0.4-0.1-0.5-0.2c-0.1-0.1-0.2-0.3-0.2-0.4v-1.8H329.5z"/>
			<path class="st2" d="M345.7,444.3v2.6h-12v-21h3.1v18.4H345.7z"/>
			<path class="st2" d="M351.9,446.9h-3.1v-21h3.1V446.9z"/>
			<path class="st2" d="M374.3,425.9v21h-1.6c-0.2,0-0.5,0-0.6-0.1c-0.2-0.1-0.3-0.2-0.5-0.4L359.7,431c0,0.3,0,0.5,0.1,0.8
				c0,0.3,0,0.5,0,0.7v14.4h-2.7v-21h1.6c0.3,0,0.5,0,0.6,0.1c0.1,0.1,0.3,0.2,0.5,0.4l11.9,15.4c0-0.3-0.1-0.6-0.1-0.8
				c0-0.3,0-0.5,0-0.8v-14.3H374.3z"/>
			<path class="st2" d="M392.5,444.3l0,2.5h-13v-21h13v2.5h-9.9v6.7h8v2.4h-8v6.8H392.5z"/>
			<path class="st2" d="M420.9,425.9v21h-3.1v-9.5h-11v9.5h-3.1v-21h3.1v9.3h11v-9.3H420.9z"/>
			<path class="st2" d="M439.2,444.3l0,2.5h-13v-21h13v2.5h-9.9v6.7h8v2.4h-8v6.8H439.2z"/>
			<path class="st2" d="M458.8,446.9H456c-0.6,0-1-0.2-1.2-0.7l-5.2-7.3c-0.2-0.2-0.4-0.4-0.5-0.5c-0.2-0.1-0.5-0.2-0.9-0.2h-2v8.6
				H443v-21h6.1c1.4,0,2.5,0.1,3.5,0.4c1,0.3,1.8,0.7,2.4,1.2c0.6,0.5,1.1,1.1,1.4,1.9c0.3,0.7,0.5,1.5,0.5,2.4
				c0,0.7-0.1,1.4-0.3,2.1c-0.2,0.6-0.6,1.2-1,1.7c-0.4,0.5-1,1-1.6,1.3c-0.6,0.4-1.3,0.7-2.1,0.9c0.4,0.2,0.7,0.6,1,1L458.8,446.9z
				 M449,436c0.8,0,1.5-0.1,2.1-0.3s1.1-0.5,1.5-0.8c0.4-0.4,0.7-0.8,0.9-1.3c0.2-0.5,0.3-1,0.3-1.6c0-1.2-0.4-2.1-1.2-2.7
				c-0.8-0.6-2-0.9-3.6-0.9h-2.9v7.7H449z"/>
			<path class="st2" d="M474.5,444.3l0,2.5h-13v-21h13v2.5h-9.9v6.7h8v2.4h-8v6.8H474.5z"/>
		</g>
	</g>
	<g id="letter_C_3_">
		<linearGradient id="SVGID_1_" gradientUnits="userSpaceOnUse" x1="258.5211" y1="196.0627" x2="491.4359" y2="196.0627">
			<stop  offset="0" style="stop-color:#008D84"/>
			<stop  offset="0.5" style="stop-color:#00C2B7"/>
			<stop  offset="1" style="stop-color:#7ADFDA"/>
		</linearGradient>
		<path class="st3" d="M389.7,295.8c-55,0-99.7-44.7-99.7-99.7c0-55,44.7-99.7,99.7-99.7c31.2,0,59.1,14.4,77.4,37l24-20.5
			C467,83.6,430.5,64.9,389.7,64.9c-72.4,0-131.2,58.7-131.2,131.2c0,72.4,58.7,131.2,131.2,131.2c41.1,0,77.7-18.9,101.7-48.4
			l-23.9-20.6C449.3,281.1,421.2,295.8,389.7,295.8z"/>
		
			<linearGradient id="SVGID_00000049919786038045364530000002774833716341035924_" gradientUnits="userSpaceOnUse" x1="443.7636" y1="196.0609" x2="321.4874" y2="196.0609">
			<stop  offset="0" style="stop-color:#C3D2D9"/>
			<stop  offset="1" style="stop-color:#8F969E"/>
		</linearGradient>
		<path style="fill:url(#SVGID_00000049919786038045364530000002774833716341035924_);" d="M389.7,232.8
			c-20.2,0-36.7-16.5-36.7-36.7c0-20.3,16.5-36.7,36.7-36.7c12.1,0,22.9,5.9,29.6,14.9l23.9-20.5c-12.5-15.8-31.8-25.9-53.5-25.9
			c-37.6,0-68.2,30.6-68.2,68.2c0,37.6,30.6,68.2,68.2,68.2c22,0,41.6-10.5,54.1-26.7l-23.9-20.7
			C413.2,226.5,402.2,232.8,389.7,232.8z"/>
	</g>
</g>
</svg>
