<?xml version="1.0" encoding="utf-8"?>
<!-- Generator: Adobe Illustrator 26.0.1, SVG Export Plug-In . SVG Version: 6.00 Build 0)  -->
<svg version="1.1" id="Layer_1" xmlns="http://www.w3.org/2000/svg" xmlns:xlink="http://www.w3.org/1999/xlink" x="0px" y="0px"
	 viewBox="0 0 750 512" style="enable-background:new 0 0 750 512;" xml:space="preserve">
<style type="text/css">
	.st0{opacity:0.15;fill:#185ADB;enable-background:new    ;}
	.st1{fill:#768589;}
	.st2{fill:url(#SVGID_1_);}
	.st3{fill:url(#SVGID_00000167386993703323324350000010143480401035584432_);}
	.st4{fill:url(#SVGID_00000029029172973092263770000002617392381923338907_);}
	.st5{fill:url(#SVGID_00000173121095205014683840000012309802938304557472_);}
</style>
<path class="st0" d="M706.4,489.4H43.6c-13.8,0-25-11.2-25-25V47.6c0-13.8,11.2-25,25-25h662.9c13.8,0,25,11.2,25,25v416.8
	C731.4,478.2,720.2,489.4,706.4,489.4z"/>
<g>
	<g>
		<g>
			<path class="st1" d="M250,401.6c0.2,0,0.5,0,0.7,0.1s0.5,0.3,0.7,0.5l4.1,4.3c-1.8,2.4-4.1,4.1-6.8,5.3c-2.7,1.2-5.9,1.8-9.6,1.8
				c-3.4,0-6.4-0.6-9.1-1.7c-2.7-1.2-5-2.7-6.8-4.8c-1.9-2-3.3-4.4-4.3-7.2c-1-2.8-1.5-5.8-1.5-9.1c0-3.3,0.5-6.4,1.6-9.2
				c1.1-2.8,2.6-5.2,4.6-7.2s4.3-3.6,7.1-4.7c2.7-1.1,5.8-1.7,9-1.7c1.7,0,3.3,0.1,4.7,0.4c1.5,0.3,2.9,0.7,4.2,1.2s2.5,1.2,3.6,1.9
				c1.1,0.7,2,1.5,2.9,2.4l-3.5,4.7c-0.2,0.3-0.5,0.5-0.8,0.8c-0.3,0.2-0.7,0.4-1.3,0.4c-0.4,0-0.7-0.1-1-0.2
				c-0.3-0.2-0.7-0.4-1-0.6c-0.4-0.2-0.8-0.5-1.2-0.8s-1-0.5-1.6-0.8c-0.6-0.2-1.3-0.4-2.1-0.6s-1.8-0.2-2.8-0.2
				c-1.7,0-3.3,0.3-4.7,0.9s-2.6,1.6-3.7,2.8c-1,1.2-1.8,2.7-2.4,4.5c-0.6,1.8-0.8,3.8-0.8,6.1c0,2.3,0.3,4.3,0.9,6.1
				c0.6,1.8,1.5,3.3,2.5,4.5c1.1,1.2,2.3,2.1,3.8,2.8c1.4,0.6,3,1,4.6,1c0.9,0,1.8,0,2.6-0.1s1.5-0.2,2.2-0.5
				c0.7-0.2,1.3-0.5,1.9-0.9c0.6-0.4,1.2-0.8,1.8-1.4c0.2-0.2,0.5-0.4,0.8-0.5C249.4,401.7,249.7,401.6,250,401.6z"/>
			<path class="st1" d="M302.9,390.8c0,3.2-0.6,6.2-1.7,9s-2.7,5.2-4.7,7.2c-2,2.1-4.5,3.7-7.3,4.8c-2.8,1.2-6,1.7-9.5,1.7
				s-6.6-0.6-9.5-1.7c-2.9-1.2-5.3-2.8-7.3-4.8c-2-2.1-3.6-4.5-4.7-7.2c-1.1-2.8-1.7-5.8-1.7-9s0.6-6.2,1.7-9s2.7-5.2,4.7-7.2
				s4.5-3.7,7.3-4.8c2.9-1.2,6-1.7,9.5-1.7s6.6,0.6,9.5,1.8c2.9,1.2,5.3,2.8,7.3,4.8s3.6,4.5,4.7,7.2
				C302.4,384.6,302.9,387.6,302.9,390.8z M292.3,390.8c0-2.2-0.3-4.2-0.9-6s-1.4-3.3-2.5-4.5s-2.4-2.2-3.9-2.8
				c-1.6-0.7-3.3-1-5.3-1s-3.8,0.3-5.3,1c-1.6,0.7-2.9,1.6-4,2.8c-1.1,1.2-1.9,2.7-2.5,4.5s-0.9,3.8-0.9,6s0.3,4.2,0.9,6
				s1.4,3.3,2.5,4.5s2.4,2.2,4,2.8c1.6,0.6,3.3,1,5.3,1s3.8-0.3,5.3-1c1.6-0.6,2.9-1.6,3.9-2.8c1.1-1.2,1.9-2.7,2.5-4.5
				S292.3,393.1,292.3,390.8z"/>
			<path class="st1" d="M359.2,368.5v44.7h-9.1v-25.7c0-0.6,0-1.2,0-1.9c0-0.7,0.1-1.4,0.2-2.1l-11.9,23c-0.4,0.7-0.9,1.3-1.5,1.6
				c-0.6,0.4-1.3,0.6-2.1,0.6h-1.4c-0.8,0-1.5-0.2-2.1-0.6s-1.1-0.9-1.5-1.6l-11.9-23c0.1,0.7,0.1,1.5,0.2,2.2
				c0,0.7,0.1,1.4,0.1,1.9v25.7H309v-44.7h7.9c0.5,0,0.8,0,1.2,0c0.3,0,0.6,0.1,0.9,0.2s0.5,0.3,0.7,0.5s0.4,0.5,0.6,0.9l11.5,22.7
				c0.4,0.8,0.8,1.6,1.2,2.4c0.4,0.8,0.7,1.7,1.1,2.6c0.3-0.9,0.7-1.8,1.1-2.6c0.4-0.9,0.8-1.7,1.2-2.5l11.5-22.6
				c0.2-0.4,0.4-0.7,0.6-0.9c0.2-0.2,0.5-0.4,0.7-0.5c0.3-0.1,0.6-0.2,0.9-0.2s0.7,0,1.2,0h7.9V368.5z"/>
			<path class="st1" d="M383.6,368.5c3.1,0,5.8,0.4,8.1,1.1c2.3,0.7,4.1,1.8,5.6,3.1c1.5,1.3,2.5,2.9,3.2,4.6c0.7,1.8,1,3.7,1,5.8
				c0,2.2-0.4,4.3-1.1,6.1c-0.7,1.9-1.8,3.5-3.3,4.8s-3.3,2.4-5.6,3.1c-2.3,0.7-4.9,1.1-8,1.1h-5.4v14.9h-10.4v-44.7h15.9V368.5z
				 M383.6,390.4c2.7,0,4.6-0.6,5.8-1.9c1.2-1.3,1.8-3.1,1.8-5.4c0-1-0.2-2-0.5-2.8s-0.8-1.6-1.4-2.2s-1.4-1.1-2.4-1.4
				s-2.1-0.5-3.4-0.5h-5.4v14.2L383.6,390.4L383.6,390.4z"/>
			<path class="st1" d="M443.8,413.2h-8c-0.9,0-1.6-0.2-2.2-0.6s-1-1-1.3-1.6l-2.6-7.8h-17l-2.6,7.8c-0.2,0.6-0.6,1.1-1.2,1.5
				c-0.6,0.5-1.3,0.7-2.2,0.7h-8.1l17.3-44.7h10.6L443.8,413.2z M427.3,396.1l-4.1-12.2c-0.3-0.8-0.6-1.7-1-2.7
				c-0.3-1.1-0.7-2.2-1-3.4c-0.3,1.2-0.6,2.4-1,3.5s-0.7,2-1,2.8l-4.1,12.2h12.2V396.1z"/>
			<path class="st1" d="M486.3,368.5v44.7h-5.4c-0.8,0-1.5-0.1-2-0.4s-1.1-0.7-1.6-1.3l-21.1-26.6c0.1,0.8,0.1,1.6,0.2,2.3
				c0,0.7,0,1.4,0,2.1v23.9h-9.1v-44.7h5.5c0.5,0,0.8,0,1.1,0.1c0.3,0,0.6,0.1,0.8,0.2c0.2,0.1,0.5,0.3,0.7,0.5s0.5,0.5,0.8,0.8
				l21.2,26.8c-0.1-0.9-0.2-1.7-0.2-2.5s-0.1-1.6-0.1-2.3v-23.6H486.3z"/>
			<path class="st1" d="M516.4,396.2v17H506v-17l-16.2-27.7h9.1c0.9,0,1.6,0.2,2.1,0.6s1,1,1.3,1.6l6.3,13c0.5,1,1,2,1.4,2.9
				s0.8,1.8,1.1,2.6c0.3-0.9,0.7-1.8,1.1-2.7c0.4-0.9,0.9-1.8,1.4-2.8l6.3-13c0.1-0.3,0.3-0.5,0.5-0.8s0.4-0.5,0.7-0.7
				s0.6-0.4,1-0.5s0.8-0.2,1.2-0.2h9.2L516.4,396.2z"/>
		</g>
		<g>
			<path class="st1" d="M291.9,428.8h-6.7v18.4h-3.1v-18.4h-6.7v-2.6h16.5L291.9,428.8L291.9,428.8z"/>
			<path class="st1" d="M310.3,447.2h-2.4c-0.3,0-0.5-0.1-0.7-0.2s-0.3-0.3-0.4-0.5l-1.9-4.9h-9.3l-1.9,4.9
				c-0.1,0.2-0.2,0.4-0.4,0.5c-0.2,0.2-0.4,0.2-0.7,0.2h-2.4l8.4-21h3.1L310.3,447.2z M304.1,439.4l-3.1-8.2
				c-0.2-0.6-0.4-1.3-0.7-2.1c-0.1,0.4-0.2,0.8-0.3,1.2c-0.1,0.4-0.2,0.7-0.3,1l-3.1,8.1H304.1z"/>
			<path class="st1" d="M329.5,437v8.2c-1.1,0.8-2.2,1.3-3.4,1.7c-1.2,0.4-2.5,0.6-3.9,0.6c-1.7,0-3.2-0.3-4.6-0.8s-2.5-1.3-3.5-2.2
				c-1-0.9-1.7-2.1-2.2-3.4s-0.8-2.8-0.8-4.3c0-1.6,0.3-3,0.8-4.4c0.5-1.3,1.2-2.5,2.2-3.4c0.9-0.9,2.1-1.7,3.4-2.2s2.8-0.8,4.5-0.8
				c0.8,0,1.6,0.1,2.3,0.2c0.7,0.1,1.4,0.3,2,0.5s1.2,0.5,1.7,0.8s1,0.7,1.5,1.1l-0.9,1.4c-0.1,0.2-0.3,0.4-0.5,0.4
				c-0.2,0.1-0.5,0-0.7-0.2c-0.3-0.1-0.5-0.3-0.8-0.5s-0.7-0.4-1.1-0.5c-0.4-0.2-0.9-0.3-1.5-0.4s-1.2-0.2-2-0.2
				c-1.2,0-2.2,0.2-3.1,0.6s-1.7,0.9-2.4,1.6c-0.7,0.7-1.2,1.5-1.5,2.5c-0.4,1-0.5,2.1-0.5,3.3c0,1.3,0.2,2.4,0.6,3.5
				c0.4,1,0.9,1.9,1.6,2.6s1.5,1.2,2.5,1.6s2.1,0.6,3.3,0.6c0.5,0,0.9,0,1.3-0.1s0.8-0.1,1.2-0.2c0.4-0.1,0.7-0.2,1.1-0.4
				c0.3-0.1,0.7-0.3,1-0.5v-4.4H324c-0.2,0-0.4-0.1-0.5-0.2s-0.2-0.3-0.2-0.4V437H329.5z"/>
			<path class="st1" d="M345.7,444.6v2.6h-12v-21h3.1v18.4H345.7z"/>
			<path class="st1" d="M351.9,447.2h-3.1v-21h3.1V447.2z"/>
			<path class="st1" d="M374.3,426.2v21h-1.6c-0.2,0-0.4,0-0.6-0.1s-0.3-0.2-0.5-0.4l-11.9-15.4c0,0.3,0,0.5,0,0.8s0,0.5,0,0.7v14.4
				H357v-21h1.6c0.3,0,0.5,0,0.6,0.1s0.3,0.2,0.5,0.4l11.9,15.4c0-0.3-0.1-0.6-0.1-0.8c0-0.3,0-0.5,0-0.8v-14.3L374.3,426.2
				L374.3,426.2z"/>
			<path class="st1" d="M392.5,444.7v2.5h-13v-21h13v2.5h-9.9v6.7h8v2.4h-8v6.8h9.9V444.7z"/>
			<path class="st1" d="M421,426.2v21h-3.1v-9.5h-11v9.5h-3.1v-21h3.1v9.3h11v-9.3H421z"/>
			<path class="st1" d="M439.2,444.7v2.5h-13v-21h13v2.5h-9.9v6.7h8v2.4h-8v6.8h9.9V444.7z"/>
			<path class="st1" d="M458.8,447.2H456c-0.6,0-1-0.2-1.2-0.7l-5.2-7.3c-0.2-0.2-0.3-0.4-0.5-0.5s-0.5-0.2-0.9-0.2h-2v8.6H443v-21
				h6.1c1.4,0,2.5,0.1,3.5,0.4s1.8,0.7,2.4,1.2s1.1,1.1,1.4,1.9c0.3,0.7,0.5,1.5,0.5,2.4c0,0.7-0.1,1.4-0.3,2.1
				c-0.2,0.6-0.6,1.2-1,1.7s-1,1-1.6,1.3c-0.6,0.4-1.3,0.7-2.1,0.9c0.4,0.2,0.7,0.6,1,1L458.8,447.2z M449,436.3
				c0.8,0,1.5-0.1,2.1-0.3s1.1-0.5,1.5-0.8c0.4-0.4,0.7-0.8,0.9-1.3c0.2-0.5,0.3-1,0.3-1.6c0-1.2-0.4-2.1-1.2-2.7
				c-0.8-0.6-2-0.9-3.6-0.9h-2.9v7.7h2.9V436.3z"/>
			<path class="st1" d="M474.5,444.7v2.5h-13v-21h13v2.5h-9.9v6.7h8v2.4h-8v6.8h9.9V444.7z"/>
		</g>
	</g>
	<g id="letter_C">
		
			<linearGradient id="SVGID_1_" gradientUnits="userSpaceOnUse" x1="455.3058" y1="296.0957" x2="368.5179" y2="241.0184" gradientTransform="matrix(1 0 0 -1 0 514)">
			<stop  offset="0" style="stop-color:#9ADC47"/>
			<stop  offset="1" style="stop-color:#009800"/>
		</linearGradient>
		<path class="st2" d="M435.7,231.9c-12.8,16.7-34.6,24.1-55.2,20.6c-22.6-3.8-41.3-21.4-46.4-43.6c4.5,25.9,18.9,49.4,40,65.2
			c19.7,14.9,44.5,22.5,69.2,21.1c8.7-0.5,17.3-2,25.6-4.6c4.3-1.3,8.6-3,12.7-4.8c1.8-0.8,3.6-1.7,5.3-2.6c1.6-0.8,4.4-1.8,5.5-3.2
			c-18.6-15.8-37.2-31.6-55.7-47.3C436.4,232.5,436,232.2,435.7,231.9z"/>
		
			<linearGradient id="SVGID_00000038373358013179098520000000404956615285906351_" gradientUnits="userSpaceOnUse" x1="291.4965" y1="290.3301" x2="394.6072" y2="389.2096" gradientTransform="matrix(1 0 0 -1 0 514)">
			<stop  offset="0" style="stop-color:#9ADC47"/>
			<stop  offset="1" style="stop-color:#009800"/>
		</linearGradient>
		<path style="fill:url(#SVGID_00000038373358013179098520000000404956615285906351_);" d="M344.6,101.4
			c-28.7-0.9-54.2,8.6-68.4,27.5c-11.8,19.7-18.6,42.7-18.6,67.2c0,6.6,0.5,13,1.4,19.3c5.7,38.7,28.5,72,60.4,92
			c-19-26.1-19.3-56.5-17.4-72.4c5.6-47.1,36-69.3,41.9-73c10.5-14.1,27.3-23.2,46.3-23.2c15.3,0,29.3,6,39.6,15.7l0.2-0.2
			C411.8,125.2,381.9,102.6,344.6,101.4z"/>
		
			<linearGradient id="SVGID_00000152266264350725657090000016399732571330908824_" gradientUnits="userSpaceOnUse" x1="345.2469" y1="422.1469" x2="467.6952" y2="343.5365" gradientTransform="matrix(1 0 0 -1 0 514)">
			<stop  offset="0" style="stop-color:#9ADC47"/>
			<stop  offset="1" style="stop-color:#009800"/>
		</linearGradient>
		<path style="fill:url(#SVGID_00000152266264350725657090000016399732571330908824_);" d="M390.3,64.5
			c-48.5,0-90.9,25.8-114.1,64.4c14.2-18.9,39.7-28.4,68.4-27.5c37.3,1.2,67.2,23.8,85.4,53.1l56.9-48.4
			C462.8,80.5,428.4,64.5,390.3,64.5z"/>
		
			<linearGradient id="SVGID_00000083773679603065473310000005688990580474724527_" gradientUnits="userSpaceOnUse" x1="417.7516" y1="215.0357" x2="293.8833" y2="307.3642" gradientTransform="matrix(1 0 0 -1 0 514)">
			<stop  offset="0" style="stop-color:#9ADC47"/>
			<stop  offset="1" style="stop-color:#009800"/>
		</linearGradient>
		<path style="fill:url(#SVGID_00000083773679603065473310000005688990580474724527_);" d="M487.5,283c-23.3,12.6-51.4,15.8-77.1,9
			c-23.5-6.3-44.5-20.8-58.6-40.5c-18-25.2-28-62.5-7.9-89.3c-5.9,3.7-36.3,25.9-41.9,73c-1.8,15.7-1.5,45.8,17,71.8
			c5.6,4.7,12.8,7.7,19.4,10.5c26.4,11.1,56.3,13.4,84.2,6.5c25.4-6.3,48.6-20.3,66.2-39.6c1.2-1.3,2.4-2.7,3.6-4.1
			C490.8,281.2,489.2,282.1,487.5,283z"/>
	</g>
</g>
</svg>
