<?xml version="1.0" encoding="utf-8"?>
<!-- Generator: Adobe Illustrator 26.0.1, SVG Export Plug-In . SVG Version: 6.00 Build 0)  -->
<svg version="1.1" id="Layer_1" xmlns="http://www.w3.org/2000/svg" xmlns:xlink="http://www.w3.org/1999/xlink" x="0px" y="0px"
	 viewBox="0 0 1024 512" style="enable-background:new 0 0 1024 512;" xml:space="preserve">
<style type="text/css">
	.st0{fill:#444F6A;}
	.st1{fill:#E2DBD1;}
	.st2{fill:#FFFFFF;}
	.st3{fill:url(#SVGID_1_);}
	.st4{fill:url(#SVGID_00000152957909584485538470000012838520949247470527_);}
	.st5{fill:url(#SVGID_00000054965947634580887280000000783213557443418794_);}
	.st6{fill:url(#SVGID_00000163040796385027265130000013537388736112106399_);}
	.st7{fill:url(#SVGID_00000031913921418806596220000009442426004434035850_);}
	.st8{fill:url(#SVGID_00000121265635474624184850000016361910273839785646_);}
	.st9{fill:url(#SVGID_00000140733812052642508010000001168894683438383294_);}
	.st10{fill:url(#SVGID_00000034075487734772457410000008465928062707493014_);}
	.st11{fill:url(#SVGID_00000044146765190853057090000011328484682060985007_);}
	.st12{fill:url(#SVGID_00000146471004057574565330000016399718107549258388_);}
	.st13{fill:#696969;}
</style>
<g>
	<path class="st0" d="M954.27,166.3c-0.18-12.1-5.06-23.7-13.88-31.99C855.37,54.51,696.59,0.82,514.74,0.82
		c-0.92,0-1.82,0.02-2.74,0.03c-0.92-0.01-1.82-0.03-2.74-0.03c-181.86,0-340.63,53.69-425.64,133.49
		c-8.82,8.28-13.7,19.89-13.88,31.99c-0.31,20.51-0.46,55.1-0.46,89.7s0.15,69.19,0.46,89.7c0.18,12.1,5.06,23.7,13.88,31.99
		c85.01,79.8,243.79,133.49,425.64,133.49c0.92,0,1.82-0.02,2.74-0.03c0.92,0.01,1.82,0.03,2.74,0.03
		c181.86,0,340.63-53.69,425.64-133.49c8.82-8.28,13.7-19.89,13.88-31.99c0.31-20.51,0.46-55.1,0.46-89.7
		S954.57,186.81,954.27,166.3z"/>
	<g>
		<path class="st1" d="M514.74,27.78c168.25,0,324.28,48.35,407.19,126.18c3.35,3.14,5.31,7.79,5.38,12.74
			c0.28,19.14,0.46,52.52,0.46,89.3c0,36.78-0.17,70.16-0.46,89.29c-0.07,4.96-2.04,9.6-5.38,12.74
			c-82.92,77.84-238.94,126.19-407.19,126.19l-1.14-0.01l-1.44-0.02c-0.05,0-0.1,0-0.15,0c-0.05,0-0.1,0-0.15,0l-1.44,0.02
			l-1.14,0.01c-168.25,0-324.28-48.35-407.2-126.19c-3.35-3.14-5.31-7.78-5.38-12.74c-0.28-19.14-0.46-52.52-0.46-89.3
			c0-36.78,0.17-70.16,0.46-89.3c0.07-4.95,2.03-9.59,5.38-12.73c82.92-77.84,238.95-126.19,407.2-126.19l1.14,0.01l1.44,0.02
			c0.05,0,0.1,0,0.15,0c0.05,0,0.1,0,0.15,0l1.44-0.02L514.74,27.78z"/>
	</g>
	<path class="st2" d="M823.9,201.78H657.19c-24.76-44.67-80.43-75.83-145.19-75.83c-64.75,0-120.42,31.16-145.18,75.83H202.03
		c-31.01,0-56.16,25.14-56.16,56.16v3.02c0,31.01,25.14,56.16,56.16,56.16h172c27.39,38.47,78.9,64.41,137.97,64.41
		c59.07,0,110.58-25.94,137.97-64.41H823.9c31.01,0,56.15-25.14,56.15-56.16v-3.02C880.06,226.92,854.92,201.78,823.9,201.78z"/>
	<g>
		<g>
			<linearGradient id="SVGID_1_" gradientUnits="userSpaceOnUse" x1="159.6451" y1="258.0224" x2="3150.4167" y2="258.0224">
				<stop  offset="0" style="stop-color:#1A160C"/>
				<stop  offset="0.1387" style="stop-color:#756739"/>
				<stop  offset="0.2688" style="stop-color:#C5AE61"/>
				<stop  offset="0.328" style="stop-color:#E4CA70"/>
				<stop  offset="0.524" style="stop-color:#EADE97"/>
				<stop  offset="0.7298" style="stop-color:#E4CA70"/>
				<stop  offset="1" style="stop-color:#1A160C"/>
			</linearGradient>
			<path class="st3" d="M224.16,236.02c-0.67,0.27-1.14,0.79-1.38,1.55c-0.25,0.77-0.37,2-0.37,3.71v33.48
				c0,1.71,0.12,2.95,0.37,3.71c0.25,0.77,0.71,1.28,1.38,1.55c0.67,0.27,1.78,0.45,3.31,0.54v1.35c-2.21-0.14-5.63-0.2-10.26-0.2
				c-4.55,0-8.08,0.07-10.6,0.2v-1.35c1.49-0.09,2.58-0.27,3.27-0.54c0.7-0.27,1.17-0.79,1.42-1.55c0.25-0.76,0.37-2,0.37-3.71
				v-16.2h-17.89v16.2c0,1.71,0.12,2.95,0.37,3.71c0.25,0.77,0.71,1.28,1.38,1.55c0.67,0.27,1.78,0.45,3.31,0.54v1.35
				c-2.43-0.14-5.83-0.2-10.19-0.2c-4.82,0-8.37,0.07-10.67,0.2v-1.35c1.49-0.09,2.58-0.27,3.27-0.54c0.7-0.27,1.17-0.79,1.42-1.55
				c0.25-0.76,0.37-2,0.37-3.71v-33.48c0-1.71-0.12-2.95-0.37-3.71c-0.25-0.76-0.72-1.28-1.42-1.55c-0.7-0.27-1.79-0.45-3.27-0.54
				v-1.35c2.3,0.14,5.85,0.2,10.67,0.2c4.36,0,7.76-0.07,10.19-0.2v1.35c-1.53,0.09-2.63,0.27-3.31,0.54
				c-0.68,0.27-1.14,0.79-1.38,1.55c-0.25,0.77-0.37,2-0.37,3.71v15.93h17.89v-15.93c0-1.71-0.12-2.95-0.37-3.71
				c-0.25-0.76-0.72-1.28-1.42-1.55c-0.7-0.27-1.79-0.45-3.27-0.54v-1.35c2.52,0.14,6.05,0.2,10.6,0.2c4.63,0,8.05-0.07,10.26-0.2
				v1.35C225.94,235.57,224.84,235.75,224.16,236.02z"/>
			
				<linearGradient id="SVGID_00000078742463084780693530000016123145728727320725_" gradientUnits="userSpaceOnUse" x1="159.6448" y1="257.9549" x2="3150.4189" y2="257.9549">
				<stop  offset="0" style="stop-color:#1A160C"/>
				<stop  offset="0.1387" style="stop-color:#756739"/>
				<stop  offset="0.2688" style="stop-color:#C5AE61"/>
				<stop  offset="0.328" style="stop-color:#E4CA70"/>
				<stop  offset="0.524" style="stop-color:#EADE97"/>
				<stop  offset="0.7298" style="stop-color:#E4CA70"/>
				<stop  offset="1" style="stop-color:#1A160C"/>
			</linearGradient>
			<path style="fill:url(#SVGID_00000078742463084780693530000016123145728727320725_);" d="M282.41,279.49
				c0.76,0.67,1.51,1.04,2.23,1.08v1.35c-2.7-0.14-6.12-0.2-10.26-0.2c-4.59,0-8.01,0.07-10.26,0.2v-1.35
				c1.71-0.09,2.92-0.3,3.64-0.64c0.72-0.34,1.08-0.93,1.08-1.79c0-0.81-0.27-1.89-0.81-3.24l-4.05-11.07h-14.72l-1.76,4.66
				c-1.26,3.24-1.89,5.74-1.89,7.49c0,1.67,0.51,2.82,1.52,3.48c1.01,0.65,2.51,1.02,4.49,1.11v1.35c-3.06-0.14-5.85-0.2-8.37-0.2
				c-2.07,0-3.78,0.07-5.13,0.2v-1.35c2.2-0.4,4.14-2.77,5.81-7.09l15.39-39.49c0.49,0.05,1.28,0.07,2.36,0.07
				c1.08,0,1.84-0.02,2.3-0.07l16.4,42.26C280.97,277.73,281.65,278.81,282.41,279.49z M263.51,262.48l-6.68-18.22l-7.02,18.22
				H263.51z"/>
			
				<linearGradient id="SVGID_00000043446887009934253330000018292378019192349096_" gradientUnits="userSpaceOnUse" x1="159.6457" y1="258.0224" x2="3150.4011" y2="258.0224">
				<stop  offset="0" style="stop-color:#1A160C"/>
				<stop  offset="0.1387" style="stop-color:#756739"/>
				<stop  offset="0.2688" style="stop-color:#C5AE61"/>
				<stop  offset="0.328" style="stop-color:#E4CA70"/>
				<stop  offset="0.524" style="stop-color:#EADE97"/>
				<stop  offset="0.7298" style="stop-color:#E4CA70"/>
				<stop  offset="1" style="stop-color:#1A160C"/>
			</linearGradient>
			<path style="fill:url(#SVGID_00000043446887009934253330000018292378019192349096_);" d="M331.22,235.48l-23.08,44.89h7.02
				c3.51,0,6.63-1.17,9.35-3.51c2.72-2.34,4.35-6.05,4.89-11.14h1.55c-0.14,1.53-0.2,3.51-0.2,5.94c0,4.14,0.16,7.56,0.47,10.26
				c-3.33-0.14-8.93-0.2-16.81-0.2c-8.37,0-14.42,0.07-18.16,0.2v-1.35l23.15-44.89h-7.29c-3.69,0-6.72,1.06-9.08,3.17
				c-2.36,2.12-3.84,5.67-4.42,10.67h-1.55c0.14-1.3,0.2-3.01,0.2-5.13c0-3.01-0.16-6.43-0.47-10.26c2.97,0.14,8.03,0.2,15.19,0.2
				c8.86,0,15.28-0.07,19.24-0.2V235.48z"/>
			
				<linearGradient id="SVGID_00000002351867264621880170000010384929054756578963_" gradientUnits="userSpaceOnUse" x1="159.6445" y1="258.0224" x2="3150.4211" y2="258.0224">
				<stop  offset="0" style="stop-color:#1A160C"/>
				<stop  offset="0.1387" style="stop-color:#756739"/>
				<stop  offset="0.2688" style="stop-color:#C5AE61"/>
				<stop  offset="0.328" style="stop-color:#E4CA70"/>
				<stop  offset="0.524" style="stop-color:#EADE97"/>
				<stop  offset="0.7298" style="stop-color:#E4CA70"/>
				<stop  offset="1" style="stop-color:#1A160C"/>
			</linearGradient>
			<path style="fill:url(#SVGID_00000002351867264621880170000010384929054756578963_);" d="M383.46,281.92
				c-3.06-0.14-8.21-0.2-15.46-0.2c-9.81,0-17.14,0.07-22.01,0.2v-1.35c1.49-0.09,2.58-0.27,3.27-0.54c0.7-0.27,1.17-0.79,1.42-1.55
				c0.25-0.76,0.37-2,0.37-3.71v-33.48c0-1.71-0.12-2.95-0.37-3.71c-0.25-0.76-0.72-1.28-1.42-1.55c-0.7-0.27-1.79-0.45-3.27-0.54
				v-1.35c4.86,0.14,12.19,0.2,22.01,0.2c6.62,0,11.32-0.07,14.11-0.2c-0.32,3.74-0.47,7.07-0.47,9.99c0,1.98,0.07,3.51,0.2,4.59
				h-1.55c-0.67-4.81-1.89-8.19-3.64-10.13c-1.76-1.93-4.23-2.9-7.42-2.9h-2.77c-1.4,0-2.41,0.11-3.04,0.34
				c-0.63,0.23-1.06,0.66-1.28,1.32c-0.23,0.65-0.34,1.7-0.34,3.14v16.74h2.16c2.38,0,4.2-0.88,5.43-2.63
				c1.24-1.76,2.1-3.85,2.6-6.28h1.55c-0.13,1.89-0.2,4.01-0.2,6.34v3.24c0,2.3,0.14,5.49,0.4,9.58h-1.55
				c-0.95-5.94-3.69-8.91-8.23-8.91h-2.16v17.01c0,1.44,0.11,2.49,0.34,3.14c0.22,0.65,0.65,1.09,1.28,1.32
				c0.63,0.23,1.64,0.34,3.04,0.34h3.31c3.19,0,5.77-1.09,7.73-3.27c1.96-2.18,3.34-5.88,4.15-11.1h1.55
				c-0.14,1.49-0.2,3.38-0.2,5.67C382.99,275.8,383.14,279.22,383.46,281.92z"/>
			
				<linearGradient id="SVGID_00000169543750833961294730000013361929153918290306_" gradientUnits="userSpaceOnUse" x1="159.6443" y1="258.0224" x2="3150.4211" y2="258.0224">
				<stop  offset="0" style="stop-color:#1A160C"/>
				<stop  offset="0.1387" style="stop-color:#756739"/>
				<stop  offset="0.2688" style="stop-color:#C5AE61"/>
				<stop  offset="0.328" style="stop-color:#E4CA70"/>
				<stop  offset="0.524" style="stop-color:#EADE97"/>
				<stop  offset="0.7298" style="stop-color:#E4CA70"/>
				<stop  offset="1" style="stop-color:#1A160C"/>
			</linearGradient>
			<path style="fill:url(#SVGID_00000169543750833961294730000013361929153918290306_);" d="M419.5,235.48
				c-1.62,0.09-2.8,0.27-3.54,0.54c-0.74,0.27-1.25,0.79-1.52,1.55c-0.27,0.77-0.41,2-0.41,3.71v34.29c0,1.44,0.11,2.49,0.34,3.14
				c0.22,0.65,0.62,1.09,1.18,1.32c0.56,0.23,1.47,0.34,2.73,0.34h3.31c3.06,0,5.7-1.37,7.93-4.12c2.23-2.74,3.68-6.39,4.35-10.93
				h1.55c-0.14,1.53-0.2,3.51-0.2,5.94c0,4.32,0.16,7.88,0.47,10.67c-3.06-0.14-8.21-0.2-15.46-0.2c-9.81,0-17.14,0.07-22.01,0.2
				v-1.35c1.49-0.09,2.58-0.27,3.27-0.54c0.7-0.27,1.17-0.79,1.42-1.55c0.25-0.76,0.37-2,0.37-3.71v-33.48
				c0-1.71-0.12-2.95-0.37-3.71c-0.25-0.76-0.72-1.28-1.42-1.55c-0.7-0.27-1.79-0.45-3.27-0.54v-1.35c2.3,0.14,5.85,0.2,10.67,0.2
				c4.59,0,8.12-0.07,10.6-0.2V235.48z"/>
			
				<linearGradient id="SVGID_00000050635493130684688190000006284250157795793072_" gradientUnits="userSpaceOnUse" x1="159.6468" y1="258.0224" x2="3150.4077" y2="258.0224">
				<stop  offset="0" style="stop-color:#1A160C"/>
				<stop  offset="0.1387" style="stop-color:#756739"/>
				<stop  offset="0.2688" style="stop-color:#C5AE61"/>
				<stop  offset="0.328" style="stop-color:#E4CA70"/>
				<stop  offset="0.524" style="stop-color:#EADE97"/>
				<stop  offset="0.7298" style="stop-color:#E4CA70"/>
				<stop  offset="1" style="stop-color:#1A160C"/>
			</linearGradient>
			<path style="fill:url(#SVGID_00000050635493130684688190000006284250157795793072_);" d="M615.16,260.86
				c2.74,2.25,4.12,4.91,4.12,7.97c0,4.18-1.64,7.41-4.93,9.69c-3.29,2.27-7.85,3.41-13.7,3.41c-1.31,0-2.41-0.02-3.31-0.07
				c-2.97-0.09-5.87-0.14-8.71-0.14c-4.64,0-8.1,0.07-10.4,0.2v-1.35c1.49-0.09,2.58-0.27,3.27-0.54c0.7-0.27,1.17-0.79,1.42-1.55
				c0.25-0.76,0.37-2,0.37-3.71v-33.48c0-1.71-0.12-2.95-0.37-3.71c-0.25-0.76-0.72-1.28-1.42-1.55c-0.7-0.27-1.79-0.45-3.27-0.54
				v-1.35c2.3,0.14,5.71,0.2,10.26,0.2l7.49-0.07c0.9-0.04,1.93-0.07,3.1-0.07c5.4,0,9.53,0.97,12.39,2.9
				c2.86,1.94,4.29,4.5,4.29,7.69c0,2.61-1.14,5.04-3.41,7.29c-2.27,2.25-5.64,3.78-10.09,4.59v0.13
				C608.12,257.26,612.42,258.61,615.16,260.86z M595.55,235.95c-0.56,0.32-0.96,0.88-1.18,1.69c-0.23,0.81-0.34,2.02-0.34,3.64
				v15.26h2.9c2.92,0,4.97-1,6.14-3c1.17-2,1.76-4.67,1.76-8c0-3.38-0.53-5.89-1.59-7.56c-1.06-1.66-2.73-2.5-5.03-2.5
				C597.01,235.48,596.12,235.64,595.55,235.95z M608.08,268.55c0-3.55-0.9-6.25-2.7-8.1c-1.8-1.84-4.64-2.77-8.51-2.77h-2.84v17.08
				c0,1.62,0.11,2.81,0.34,3.58c0.22,0.77,0.66,1.29,1.32,1.59c0.65,0.29,1.65,0.44,3,0.44
				C604.95,280.36,608.08,276.43,608.08,268.55z"/>
			
				<linearGradient id="SVGID_00000008114434734923006210000015236847405816980364_" gradientUnits="userSpaceOnUse" x1="159.6448" y1="258.495" x2="3150.4148" y2="258.495">
				<stop  offset="0" style="stop-color:#1A160C"/>
				<stop  offset="0.1387" style="stop-color:#756739"/>
				<stop  offset="0.2688" style="stop-color:#C5AE61"/>
				<stop  offset="0.328" style="stop-color:#E4CA70"/>
				<stop  offset="0.524" style="stop-color:#EADE97"/>
				<stop  offset="0.7298" style="stop-color:#E4CA70"/>
				<stop  offset="1" style="stop-color:#1A160C"/>
			</linearGradient>
			<path style="fill:url(#SVGID_00000008114434734923006210000015236847405816980364_);" d="M678.61,278.95
				c-1.22,1.4-2.52,2.4-3.92,3c-1.4,0.61-3.08,0.91-5.06,0.91c-2.61,0-4.67-0.55-6.18-1.65c-1.51-1.1-2.49-2.98-2.94-5.64
				l-1.21-6.75c-0.59-3.28-1.29-5.7-2.13-7.26c-0.83-1.55-2.22-2.33-4.15-2.33h-4.39v15.52c0,1.71,0.12,2.95,0.37,3.71
				c0.25,0.77,0.71,1.28,1.38,1.55c0.67,0.27,1.78,0.45,3.31,0.54v1.35c-2.43-0.14-5.83-0.2-10.19-0.2c-4.82,0-8.37,0.07-10.67,0.2
				v-1.35c1.49-0.09,2.58-0.27,3.27-0.54c0.7-0.27,1.17-0.79,1.42-1.55c0.25-0.76,0.37-2,0.37-3.71v-33.48
				c0-1.71-0.12-2.95-0.37-3.71c-0.25-0.76-0.72-1.28-1.42-1.55c-0.7-0.27-1.79-0.45-3.27-0.54v-1.35c2.3,0.14,5.71,0.2,10.26,0.2
				l7.49-0.07c0.9-0.04,1.93-0.07,3.11-0.07c6.21,0,10.88,1.01,14.01,3.04c3.13,2.02,4.69,4.93,4.69,8.71c0,3.2-1.17,6.01-3.51,8.44
				c-2.34,2.43-6.21,3.96-11.61,4.59c4.05,0.36,7.06,1.24,9.04,2.63c1.98,1.4,3.26,3.49,3.85,6.28l1.55,6.95
				c0.36,1.8,0.78,3.06,1.25,3.78c0.47,0.72,1.14,1.08,1.99,1.08c0.54-0.04,1-0.18,1.38-0.4c0.38-0.22,0.82-0.61,1.32-1.15
				L678.61,278.95z M650.16,235.95c-0.56,0.32-0.96,0.88-1.18,1.69c-0.23,0.81-0.34,2.02-0.34,3.64v16.61h2.9
				c3.69,0,6.22-0.98,7.59-2.94c1.37-1.96,2.06-4.71,2.06-8.27c0-3.69-0.65-6.48-1.96-8.37c-1.31-1.89-3.44-2.84-6.41-2.84
				C651.61,235.48,650.72,235.64,650.16,235.95z"/>
			
				<linearGradient id="SVGID_00000087380548727785592540000003943936905090843294_" gradientUnits="userSpaceOnUse" x1="159.6729" y1="258.495" x2="3150.4312" y2="258.495">
				<stop  offset="0" style="stop-color:#1A160C"/>
				<stop  offset="0.1387" style="stop-color:#756739"/>
				<stop  offset="0.2688" style="stop-color:#C5AE61"/>
				<stop  offset="0.328" style="stop-color:#E4CA70"/>
				<stop  offset="0.524" style="stop-color:#EADE97"/>
				<stop  offset="0.7298" style="stop-color:#E4CA70"/>
				<stop  offset="1" style="stop-color:#1A160C"/>
			</linearGradient>
			<path style="fill:url(#SVGID_00000087380548727785592540000003943936905090843294_);" d="M731.8,235.48
				c-1.48,0.23-2.58,0.61-3.27,1.15c-0.7,0.54-1.17,1.4-1.42,2.56c-0.25,1.17-0.37,2.9-0.37,5.2v17.89c0,6.44-0.92,11.21-2.77,14.31
				c-1.22,1.98-2.97,3.52-5.26,4.62c-2.3,1.1-5.11,1.65-8.44,1.65c-5.22,0-9.27-1.12-12.15-3.37c-2.07-1.66-3.47-3.77-4.18-6.31
				c-0.72-2.54-1.08-6.11-1.08-10.7v-21.2c0-1.71-0.12-2.95-0.37-3.71c-0.25-0.76-0.72-1.28-1.42-1.55
				c-0.7-0.27-1.79-0.45-3.27-0.54v-1.35c2.3,0.14,5.81,0.2,10.53,0.2c4.68,0,8.26-0.07,10.73-0.2v1.35
				c-1.62,0.09-2.8,0.27-3.54,0.54c-0.74,0.27-1.25,0.79-1.52,1.55c-0.27,0.77-0.4,2-0.4,3.71v25.45c0,4.72,0.69,8.2,2.06,10.43
				c1.37,2.23,3.79,3.34,7.26,3.34c4.5,0,7.67-1.52,9.52-4.56c1.84-3.04,2.77-7.35,2.77-12.93V245.2c0-2.61-0.16-4.54-0.47-5.8
				c-0.32-1.26-0.92-2.17-1.82-2.73c-0.9-0.56-2.32-0.96-4.25-1.18v-1.35c1.71,0.14,4.14,0.2,7.29,0.2c2.52,0,4.48-0.07,5.87-0.2
				V235.48z"/>
			
				<linearGradient id="SVGID_00000142177662716703597180000012734703324685311162_" gradientUnits="userSpaceOnUse" x1="159.645" y1="258.09" x2="3150.4136" y2="258.09">
				<stop  offset="0" style="stop-color:#1A160C"/>
				<stop  offset="0.1387" style="stop-color:#756739"/>
				<stop  offset="0.2688" style="stop-color:#C5AE61"/>
				<stop  offset="0.328" style="stop-color:#E4CA70"/>
				<stop  offset="0.524" style="stop-color:#EADE97"/>
				<stop  offset="0.7298" style="stop-color:#E4CA70"/>
				<stop  offset="1" style="stop-color:#1A160C"/>
			</linearGradient>
			<path style="fill:url(#SVGID_00000142177662716703597180000012734703324685311162_);" d="M789.25,235.48
				c-1.49,0.23-2.58,0.61-3.27,1.15c-0.7,0.54-1.17,1.4-1.42,2.56c-0.25,1.17-0.37,2.9-0.37,5.2v37.67l-1.62-0.07l-1.82,0.07
				l-29.29-37.13v25.92c0,2.66,0.14,4.6,0.4,5.84c0.27,1.24,0.85,2.14,1.76,2.7c0.9,0.56,2.36,0.96,4.39,1.18v1.35
				c-1.75-0.14-4.18-0.2-7.29-0.2c-2.48,0-4.43,0.07-5.87,0.2v-1.35c1.49-0.22,2.58-0.61,3.27-1.15c0.7-0.54,1.17-1.39,1.42-2.56
				c0.25-1.17,0.37-2.9,0.37-5.2v-30.38c0-1.71-0.12-2.95-0.37-3.71c-0.25-0.76-0.72-1.28-1.42-1.55c-0.7-0.27-1.79-0.45-3.27-0.54
				v-1.35c1.44,0.14,3.4,0.2,5.87,0.2c2.25,0,4.18-0.07,5.8-0.2l26.12,32.2V245.2c0-2.65-0.13-4.6-0.4-5.84
				c-0.27-1.24-0.86-2.14-1.76-2.7c-0.9-0.56-2.36-0.96-4.39-1.18v-1.35c1.76,0.14,4.18,0.2,7.29,0.2c2.52,0,4.48-0.07,5.87-0.2
				V235.48z"/>
			
				<linearGradient id="SVGID_00000031200745488630946110000005624621692957038488_" gradientUnits="userSpaceOnUse" x1="159.6449" y1="258.0224" x2="3150.4097" y2="258.0224">
				<stop  offset="0" style="stop-color:#1A160C"/>
				<stop  offset="0.1387" style="stop-color:#756739"/>
				<stop  offset="0.2688" style="stop-color:#C5AE61"/>
				<stop  offset="0.328" style="stop-color:#E4CA70"/>
				<stop  offset="0.524" style="stop-color:#EADE97"/>
				<stop  offset="0.7298" style="stop-color:#E4CA70"/>
				<stop  offset="1" style="stop-color:#1A160C"/>
			</linearGradient>
			<path style="fill:url(#SVGID_00000031200745488630946110000005624621692957038488_);" d="M839.5,236.08
				c3.58,1.94,6.36,4.74,8.34,8.4c1.98,3.67,2.97,8.04,2.97,13.13c0,4.95-1.01,9.34-3.04,13.16c-2.02,3.83-4.85,6.8-8.47,8.91
				c-3.62,2.12-7.75,3.17-12.39,3.17c-4.77,0-8.94-0.97-12.52-2.9c-3.58-1.93-6.36-4.74-8.34-8.4c-1.98-3.67-2.97-8.04-2.97-13.13
				c0-4.95,1.01-9.34,3.04-13.16c2.02-3.82,4.85-6.79,8.47-8.91c3.62-2.11,7.75-3.17,12.39-3.17
				C831.75,233.18,835.92,234.15,839.5,236.08z M820.16,237.4c-1.89,2-3.34,4.8-4.35,8.4c-1.01,3.6-1.52,7.72-1.52,12.35
				c0,4.68,0.57,8.8,1.72,12.35c1.15,3.56,2.7,6.3,4.66,8.23c1.96,1.94,4.13,2.9,6.51,2.9c2.47,0,4.66-1,6.55-3
				c1.89-2,3.34-4.8,4.35-8.4c1.01-3.6,1.52-7.72,1.52-12.35c0-4.68-0.57-8.8-1.72-12.35c-1.15-3.55-2.7-6.3-4.66-8.24
				c-1.96-1.93-4.13-2.9-6.51-2.9C824.23,234.4,822.05,235.4,820.16,237.4z"/>
		</g>
	</g>
	<g>
		<g>
			<path class="st13" d="M514.93,53.77c111.96,0.03,218.82,20.29,300.89,59.95c27.19,13.14,46.14,39.1,51.02,68.55
				c19.28,3.99,33.86,21.08,33.92,41.5c0.03,10.17,0.05,21,0.05,32.24c0,11.23-0.02,22.06-0.05,32.23
				c-0.06,20.42-14.64,37.51-33.92,41.5c-4.88,29.45-23.83,55.41-51.01,68.55c-82.09,39.69-187.41,60.3-299.42,60.3l-1.13-0.01
				l-1.38-0.02h-0.44h-0.37l-1.45,0.02l-0.62,0.01c-0.09,0-0.18,0-0.27,0c-112.79,0-221.73-20.86-304.06-61
				c-26.9-13.12-45.65-38.88-50.47-68.05c-18.83-4.33-32.96-21.2-33.01-41.3c-0.03-10.17-0.05-21-0.05-32.24
				c0-11.23,0.02-22.06,0.05-32.23c0.06-20.1,14.18-36.97,33.01-41.3c4.82-29.16,23.56-54.93,50.46-68.05
				c82.29-40.14,189.6-60.65,302.35-60.65l1.13,0.01l1.38,0.02H512h0.39l1.42-0.01l0.89-0.01
				C514.77,53.77,514.85,53.77,514.93,53.77z M514.93,42.99L514.93,42.99h-0.18l-0.41,0.01l-0.7,0.01l-1.36,0.01H512h-0.44L510.3,43
				l-1.12-0.01c-116.53,0-225.58,21.93-307.2,61.74c-27.81,13.56-48,39.16-55.04,69.3c-20.56,7.7-34.42,27.24-34.49,49.71
				c-0.03,10.18-0.05,21.02-0.05,32.26c0,11.24,0.02,22.09,0.05,32.27c0.07,22.47,13.93,42,34.49,49.7
				c7.04,30.15,27.24,55.74,55.05,69.3c82.12,40.04,191.78,62.09,308.78,62.09h0.16l0.43-0.01l0.48-0.01l1.38-0.01h0.25h0.44
				l1.26,0.02l1.12,0.01c116.04,0,221.19-21.22,304.24-61.37c28.07-13.57,48.46-39.3,55.59-69.69
				c20.84-7.46,35.36-27.46,35.42-50.04c0.03-10.18,0.05-21.02,0.05-32.26c0-11.24-0.02-22.09-0.05-32.27
				c-0.07-22.58-14.59-42.58-35.42-50.03c-7.13-30.39-27.53-56.12-55.61-69.69C739.14,64.69,630.62,43.02,514.93,42.99L514.93,42.99
				z"/>
			<path class="st13" d="M515.17,449.18l-2.75-0.03l-3.11,0.03c-112.4,0-219.25-21.93-300.92-61.75
				c-26.43-12.89-43.79-39.87-44.79-69.26h-2.63c-16.3,0-29.6-13.25-29.65-29.53c-0.03-10.3-0.05-21.27-0.05-32.64
				c0-11.37,0.02-22.34,0.05-32.64c0.05-16.28,13.35-29.53,29.65-29.53h2.63c1-29.39,18.36-56.37,44.78-69.27
				C290,84.75,396.7,62.82,508.83,62.82l2.75,0.03l3.35-0.03c111.57,0.03,217.83,21.72,299.25,61.06
				c26.76,12.93,44.33,40.18,45.33,69.95h3.52c16.3,0,29.6,13.25,29.65,29.53c0.03,10.3,0.05,21.27,0.05,32.64
				c0,11.37-0.02,22.34-0.05,32.64c-0.05,16.28-13.35,29.53-29.65,29.53c0,0,0,0,0,0h-3.52c-1,29.76-18.57,57.01-45.32,69.95
				C732.75,427.5,626.56,449.18,515.17,449.18z M512,443.76l3.2,0.03c110.56,0,215.91-21.49,296.63-60.52
				c25.71-12.43,42.32-39.04,42.32-67.79c0-1.49,1.21-2.7,2.7-2.7h6.17c13.34,0,24.22-10.84,24.26-24.15
				c0.03-10.3,0.05-21.26,0.05-32.62s-0.02-22.33-0.05-32.62c-0.04-13.32-10.92-24.15-24.26-24.15h-6.17c-1.49,0-2.7-1.21-2.7-2.7
				c0-28.76-16.62-55.37-42.33-67.79c-80.71-39-186.13-60.49-296.86-60.52L512,68.24l-3.2-0.03c-111.29,0-217.15,21.73-298.05,61.2
				c-25.39,12.39-41.8,38.73-41.8,67.12c0,1.49-1.21,2.7-2.7,2.7h-5.28c-13.34,0-24.22,10.84-24.26,24.15
				c-0.03,10.3-0.05,21.26-0.05,32.62c0,11.37,0.02,22.33,0.05,32.62c0.04,13.32,10.92,24.15,24.26,24.15h5.28
				c1.49,0,2.7,1.21,2.7,2.7c0,28.39,16.41,54.73,41.81,67.11c80.95,39.47,186.96,61.2,298.51,61.2L512,443.76z M859.55,196.53h0.05
				H859.55z"/>
		</g>
		<g>
			<g>
				<path class="st13" d="M347.25,162.9l8.12,9.48c0.8,0.95,1.22,2,1.25,3.12c0.04,1.13-0.35,2.18-1.16,3.17
					c-0.76,0.92-1.58,1.44-2.46,1.55c-0.88,0.11-1.76-0.2-2.64-0.91c-0.25-0.2-0.53-0.48-0.83-0.83l1.02-1.24
					c0.19,0.23,0.41,0.45,0.67,0.67c0.54,0.45,1.09,0.66,1.65,0.64c0.55-0.02,1.08-0.33,1.57-0.94c0.57-0.7,0.82-1.39,0.74-2.08
					c-0.08-0.69-0.36-1.32-0.84-1.89l-8.13-9.46L347.25,162.9z"/>
				<path class="st13" d="M362.28,153.99c1.32-0.06,2.55,0.46,3.69,1.57c0.33,0.32,0.64,0.69,0.94,1.11
					c0.76,1.06,1.24,2.18,1.44,3.35c0.2,1.17,0.11,2.3-0.24,3.4c-0.36,1.09-0.95,2.06-1.77,2.91c-1.12,1.15-2.35,1.76-3.68,1.82
					c-1.33,0.06-2.57-0.46-3.71-1.57c-0.32-0.31-0.63-0.67-0.92-1.09c-0.76-1.06-1.24-2.18-1.43-3.36c-0.19-1.18-0.1-2.32,0.26-3.41
					s0.96-2.07,1.78-2.92C359.74,154.66,360.96,154.05,362.28,153.99z M358.22,159.02c-0.27,0.81-0.33,1.67-0.17,2.6
					c0.15,0.93,0.56,1.85,1.21,2.76c0.3,0.4,0.56,0.71,0.79,0.93c0.89,0.86,1.82,1.26,2.79,1.19s1.84-0.51,2.6-1.3
					c0.58-0.59,1-1.29,1.26-2.09c0.26-0.8,0.32-1.66,0.17-2.58c-0.15-0.92-0.55-1.84-1.2-2.75c-0.3-0.4-0.56-0.71-0.79-0.93
					c-0.89-0.86-1.82-1.27-2.79-1.2c-0.97,0.06-1.84,0.49-2.61,1.28C358.91,157.51,358.49,158.21,358.22,159.02z"/>
				<path class="st13" d="M365.65,143.19c0.04-0.37,0.2-0.68,0.49-0.93c0.23-0.2,0.46-0.31,0.7-0.3c0.24,0,0.44,0.1,0.62,0.29
					c0.25,0.27,0.35,0.59,0.32,0.96c-0.03,0.37-0.19,0.68-0.47,0.93c-0.23,0.21-0.46,0.31-0.71,0.31c-0.24,0-0.45-0.09-0.63-0.29
					C365.71,143.88,365.6,143.56,365.65,143.19z M369.33,145.88l6.73,10.81l-1.21,1.09l-6.73-10.81L369.33,145.88z"/>
				<path class="st13" d="M382.61,136.01c1.01,0.08,1.93,0.64,2.75,1.69c0.27,0.34,0.52,0.73,0.76,1.18l3.5,6.54l-1.24,0.98
					l-3.46-6.43c-0.21-0.38-0.41-0.7-0.61-0.95c-0.63-0.79-1.33-1.22-2.11-1.28c-0.78-0.06-1.56,0.22-2.36,0.85
					c-0.99,0.78-1.57,1.76-1.77,2.93c-0.19,1.18,0.09,2.46,0.84,3.86l3.21,5.95l-1.28,1.01l-6.02-11.22l1.26-1l1.47,2.76
					c-0.27-1.15-0.2-2.25,0.19-3.28c0.39-1.03,1.02-1.89,1.87-2.56C380.61,136.28,381.6,135.93,382.61,136.01z"/>
				<path class="st13" d="M406.9,119.19l4.53,11.9l-1.38,0.83l-1.13-2.96c0.13,1.19-0.07,2.28-0.58,3.25
					c-0.51,0.98-1.24,1.75-2.19,2.31c-1.06,0.64-2.09,0.85-3.08,0.64c-0.99-0.21-1.82-0.88-2.5-2.01c-0.23-0.38-0.43-0.81-0.61-1.29
					l-2.65-6.93l1.38-0.83l2.58,6.81c0.13,0.33,0.29,0.66,0.49,0.99c0.53,0.88,1.17,1.4,1.93,1.57c0.76,0.17,1.58-0.01,2.44-0.53
					c1.08-0.64,1.79-1.54,2.13-2.68c0.34-1.14,0.23-2.45-0.33-3.94l0.04,0.06l-2.43-6.39L406.9,119.19z"/>
				<path class="st13" d="M419.77,113.62c1.03,0.29,1.82,0.98,2.35,2.08l-1.44,0.72c-0.34-0.74-0.86-1.23-1.58-1.46
					s-1.57-0.1-2.55,0.39c-0.75,0.38-1.26,0.87-1.54,1.47c-0.27,0.61-0.25,1.22,0.06,1.83c0.2,0.4,0.48,0.66,0.85,0.8
					c0.37,0.13,0.76,0.18,1.18,0.15c0.42-0.03,0.99-0.11,1.71-0.25c0.84-0.16,1.54-0.26,2.09-0.29s1.08,0.07,1.59,0.3
					c0.51,0.23,0.92,0.65,1.23,1.28c0.08,0.15,0.17,0.42,0.3,0.8c0.25,0.84,0.15,1.66-0.28,2.47c-0.43,0.81-1.19,1.48-2.25,2.01
					c-1.38,0.69-2.63,0.92-3.74,0.68c-1.11-0.24-1.94-0.92-2.48-2.03l1.42-0.71c0.32,0.77,0.86,1.25,1.63,1.44
					c0.77,0.2,1.7,0.02,2.78-0.52c0.64-0.32,1.1-0.74,1.37-1.25c0.27-0.51,0.32-1.03,0.16-1.55c-0.08-0.23-0.14-0.39-0.19-0.47
					c-0.22-0.44-0.53-0.73-0.92-0.89c-0.39-0.15-0.81-0.22-1.25-0.18c-0.44,0.03-1.03,0.11-1.77,0.24c-0.81,0.15-1.48,0.24-2,0.27
					c-0.52,0.03-1.02-0.06-1.49-0.27c-0.48-0.21-0.87-0.6-1.16-1.19c-0.1-0.21-0.2-0.44-0.28-0.71c-0.26-0.86-0.17-1.7,0.28-2.53
					c0.44-0.82,1.21-1.51,2.31-2.05C417.53,113.53,418.74,113.34,419.77,113.62z"/>
				<path class="st13" d="M436.31,101.53c0.59-0.97,1.65-1.72,3.19-2.24l0.29,1.41c-1.09,0.4-1.82,0.89-2.17,1.49
					c-0.35,0.6-0.44,1.41-0.25,2.44l0.09,0.51l2.94-1.11l0.27,1.42l-2.94,1.11l2.09,11.09l-1.53,0.58l-2.09-11.09l-1.74,0.66
					l-0.27-1.42l1.74-0.66l-0.11-0.62C435.56,103.69,435.72,102.5,436.31,101.53z"/>
				<path class="st13" d="M456.16,100.29c1.18,0.59,2,1.65,2.46,3.17c0.13,0.44,0.23,0.92,0.28,1.43c0.15,1.3,0.02,2.51-0.38,3.63
					c-0.4,1.12-1.02,2.07-1.87,2.85c-0.84,0.78-1.83,1.34-2.96,1.68c-1.54,0.46-2.91,0.4-4.1-0.2c-1.19-0.59-2.02-1.65-2.48-3.18
					c-0.13-0.43-0.22-0.89-0.28-1.4c-0.15-1.3-0.02-2.51,0.39-3.63c0.41-1.12,1.04-2.07,1.89-2.86c0.85-0.78,1.84-1.34,2.97-1.68
					C453.63,99.64,454.98,99.7,456.16,100.29z M450.17,102.71c-0.63,0.57-1.1,1.3-1.42,2.19s-0.41,1.89-0.29,3
					c0.07,0.49,0.15,0.89,0.24,1.2c0.36,1.19,0.97,1.99,1.86,2.39c0.88,0.41,1.85,0.45,2.91,0.14c0.79-0.24,1.5-0.64,2.12-1.21
					c0.62-0.57,1.09-1.29,1.41-2.17c0.32-0.88,0.42-1.88,0.29-2.99c-0.07-0.49-0.15-0.89-0.24-1.2c-0.36-1.19-0.97-1.99-1.85-2.41
					c-0.88-0.42-1.84-0.47-2.9-0.15C451.51,101.73,450.8,102.14,450.17,102.71z"/>
				<path class="st13" d="M468.05,96.74c0.77-0.67,1.72-1.14,2.86-1.39l0.09,1.77l-0.52,0.11c-1.2,0.27-2.16,0.81-2.9,1.65
					c-0.74,0.83-1.08,1.99-1.01,3.48l0-0.02l0.31,6.99l-1.59,0.35l-0.55-12.72l1.57-0.35l0.11,2.63
					C466.73,98.24,467.28,97.41,468.05,96.74z"/>
				<path class="st13" d="M487.63,101.89c-0.03,0.31-0.02,0.6,0.01,0.88c0.06,0.53,0.25,0.89,0.57,1.07
					c0.32,0.18,0.81,0.23,1.46,0.16l1.28-0.15l-0.11,1.45l-1.48,0.17c-1.02,0.12-1.8,0.01-2.34-0.33c-0.54-0.34-0.86-0.96-0.97-1.88
					c-0.04-0.3-0.04-0.7-0.02-1.2l0.46-7.47l-1.92,0.22l0.09-1.42l1.92-0.22l0.19-3.21l1.6-0.18l-0.19,3.21l3.42-0.39l-0.07,1.42
					l-3.45,0.4L487.63,101.89z"/>
				<path class="st13" d="M507.77,92.48c0.77,0.65,1.18,1.64,1.23,2.95c0.02,0.43-0.01,0.91-0.08,1.45l-1.01,7.35l-1.58,0.06
					l0.99-7.23c0.05-0.35,0.06-0.72,0.05-1.11c-0.04-1.01-0.35-1.77-0.94-2.29c-0.59-0.51-1.38-0.75-2.39-0.71
					c-1.16,0.04-2.16,0.44-2.99,1.17c-0.83,0.74-1.39,1.79-1.69,3.17l-0.98,7.3l-1.63,0.06l2.33-17.1l1.63-0.06l-1.02,7.53
					c0.46-1.07,1.16-1.91,2.08-2.5c0.92-0.59,1.92-0.91,3.01-0.95C506,91.52,507,91.82,507.77,92.48z"/>
				<path class="st13" d="M525.28,92.69c0.73,0.45,1.26,1.02,1.61,1.73c0.34,0.71,0.49,1.49,0.45,2.35
					c-0.02,0.38-0.07,0.73-0.15,1.05c-0.1,0.44-0.23,0.82-0.39,1.15l-10.34-0.57c-0.09,0.49-0.14,0.83-0.15,1.03
					c-0.07,1.22,0.23,2.16,0.9,2.82c0.67,0.66,1.55,1.02,2.63,1.08c1.12,0.06,2.12-0.17,3.02-0.68c0.89-0.52,1.54-1.25,1.93-2.19
					l1.7,0.09c-0.55,1.3-1.43,2.34-2.65,3.1c-1.22,0.76-2.64,1.1-4.24,1.01c-1.56-0.09-2.78-0.6-3.65-1.54
					c-0.88-0.94-1.27-2.19-1.19-3.75c0.03-0.47,0.1-0.97,0.22-1.48c0.3-1.29,0.83-2.39,1.57-3.32c0.75-0.92,1.65-1.61,2.69-2.06
					c1.04-0.45,2.16-0.64,3.33-0.58C523.65,91.99,524.55,92.25,525.28,92.69z M525.74,96.78c0.06-1.1-0.24-1.95-0.91-2.56
					c-0.66-0.6-1.52-0.93-2.58-0.99c-1.25-0.07-2.4,0.26-3.45,0.99c-1.04,0.73-1.76,1.85-2.15,3.37l8.85,0.49
					C525.64,97.64,525.72,97.21,525.74,96.78z"/>
				<path class="st13" d="M561.45,98.01l-8.33,11.09l-1.64-0.34l0.28-10.84l-7.71,9.32l-1.66-0.34l1.09-12.58l1.62,0.33l-1.15,10.85
					l7.74-9.5l1.62,0.33l-0.34,11.02l6.98-9.66L561.45,98.01z"/>
				<path class="st13" d="M575.17,102.71c0.6,0.61,0.98,1.3,1.14,2.07c0.16,0.77,0.12,1.57-0.14,2.39c-0.11,0.37-0.25,0.69-0.4,0.98
					c-0.2,0.4-0.42,0.74-0.65,1.02l-9.9-3.06c-0.2,0.45-0.33,0.77-0.39,0.96c-0.36,1.17-0.3,2.16,0.19,2.96
					c0.49,0.8,1.25,1.36,2.29,1.68c1.07,0.33,2.1,0.35,3.09,0.07c0.99-0.29,1.79-0.84,2.4-1.66l1.62,0.5
					c-0.85,1.13-1.96,1.92-3.33,2.36c-1.37,0.44-2.82,0.42-4.36-0.05c-1.49-0.46-2.55-1.25-3.17-2.37c-0.62-1.12-0.7-2.43-0.24-3.92
					c0.14-0.45,0.33-0.92,0.57-1.39c0.6-1.18,1.38-2.12,2.33-2.84c0.95-0.72,1.99-1.16,3.11-1.35c1.12-0.18,2.25-0.1,3.37,0.25
					C573.76,101.63,574.58,102.1,575.17,102.71z M574.63,106.79c0.33-1.05,0.24-1.95-0.26-2.7c-0.5-0.75-1.25-1.28-2.26-1.59
					c-1.2-0.37-2.4-0.33-3.59,0.13c-1.19,0.46-2.16,1.37-2.9,2.74l8.47,2.62C574.33,107.6,574.51,107.19,574.63,106.79z"/>
				<path class="st13" d="M597.97,106.18l-9.19,14.61l-1.47-0.6l1.85-2.97c-0.88,0.82-1.91,1.34-3.09,1.57
					c-1.18,0.23-2.37,0.1-3.56-0.38c-1.38-0.56-2.3-1.42-2.79-2.57c-0.48-1.15-0.43-2.45,0.15-3.88c0.18-0.45,0.42-0.92,0.72-1.39
					c0.7-1.1,1.53-1.98,2.5-2.61c0.97-0.64,2-1.01,3.09-1.11c1.09-0.1,2.16,0.06,3.21,0.49c1.21,0.49,2.05,1.19,2.53,2.1
					c0.48,0.91,0.58,1.89,0.3,2.95l4.27-6.79L597.97,106.18z M585.22,108.62c-1.27,0.45-2.32,1.34-3.16,2.67
					c-0.26,0.43-0.44,0.79-0.56,1.08c-0.45,1.11-0.48,2.1-0.09,2.97c0.39,0.88,1.14,1.54,2.26,2c0.82,0.33,1.68,0.46,2.56,0.37
					c0.89-0.09,1.72-0.38,2.5-0.88c0.78-0.5,1.44-1.18,1.97-2.04c0.19-0.3,0.36-0.64,0.51-1.01c0.45-1.11,0.48-2.11,0.1-3.02
					c-0.38-0.91-1.12-1.58-2.21-2.03C587.78,108.21,586.48,108.17,585.22,108.62z"/>
				<path class="st13" d="M615.72,115.07l-10.44,13.74l-1.41-0.72l2.11-2.79c-0.95,0.74-2.02,1.17-3.22,1.29
					c-1.2,0.12-2.37-0.11-3.52-0.7c-1.32-0.68-2.17-1.61-2.55-2.81c-0.38-1.19-0.21-2.48,0.49-3.85c0.22-0.44,0.5-0.88,0.84-1.33
					c0.79-1.04,1.7-1.83,2.72-2.38c1.02-0.55,2.08-0.83,3.18-0.83c1.1-0.01,2.15,0.25,3.16,0.77c1.16,0.59,1.94,1.37,2.34,2.31
					c0.4,0.95,0.41,1.93,0.04,2.96l4.86-6.39L615.72,115.07z M602.8,116.37c-1.3,0.34-2.43,1.13-3.38,2.38
					c-0.29,0.4-0.51,0.74-0.66,1.03c-0.55,1.06-0.66,2.05-0.36,2.95c0.31,0.91,1,1.64,2.08,2.19c0.79,0.41,1.63,0.6,2.52,0.6
					c0.89-0.01,1.75-0.23,2.57-0.66c0.82-0.43,1.54-1.05,2.14-1.86c0.22-0.29,0.41-0.6,0.6-0.96c0.55-1.06,0.67-2.06,0.37-3
					c-0.3-0.94-0.98-1.68-2.03-2.21C605.39,116.19,604.1,116.03,602.8,116.37z"/>
				<path class="st13" d="M620.77,123.3l-8.34,9.63l-1.4-0.84l8.34-9.63L620.77,123.3z M622.24,118.99
					c0.36-0.07,0.71-0.01,1.04,0.19c0.26,0.16,0.43,0.35,0.5,0.58c0.07,0.23,0.04,0.45-0.1,0.68c-0.19,0.32-0.46,0.51-0.82,0.59
					c-0.36,0.08-0.7,0.02-1.03-0.17c-0.26-0.16-0.43-0.35-0.51-0.58c-0.08-0.23-0.05-0.46,0.09-0.68
					C621.6,119.26,621.88,119.06,622.24,118.99z"/>
				<path class="st13" d="M634.2,133.1c0.22,0.99-0.04,2.03-0.79,3.13c-0.24,0.35-0.54,0.71-0.91,1.08l-5.21,5.29l-1.31-0.9
					l5.1-5.22c0.31-0.31,0.55-0.6,0.73-0.86c0.57-0.83,0.77-1.63,0.59-2.39c-0.18-0.76-0.68-1.43-1.51-2
					c-1.04-0.71-2.14-0.98-3.32-0.82c-1.18,0.17-2.33,0.82-3.44,1.95l-4.73,4.83l-1.35-0.92l8.92-9.09l1.33,0.91l-2.19,2.23
					c1.02-0.6,2.09-0.86,3.19-0.8c1.1,0.07,2.1,0.41,3,1.02C633.34,131.26,633.97,132.11,634.2,133.1z"/>
				<path class="st13" d="M634.5,146.53c-0.12-1.25,0.32-2.46,1.3-3.66c0.32-0.39,0.69-0.77,1.11-1.14
					c0.99-0.85,2.05-1.43,3.18-1.74s2.22-0.36,3.3-0.14c1.08,0.22,2.05,0.69,2.93,1.41c1,0.83,1.6,1.75,1.79,2.76
					c0.19,1.01-0.02,1.98-0.62,2.91l2.67-2.27l1.22,1.01l-9.92,8.47c-0.89,0.77-1.87,1.29-2.92,1.56c-1.06,0.27-2.1,0.29-3.14,0.06
					c-1.04-0.23-1.98-0.7-2.84-1.4c-1.27-1.04-2-2.16-2.2-3.34c-0.2-1.19,0.08-2.34,0.84-3.46l1.22,1.01
					c-0.49,0.81-0.65,1.62-0.48,2.45c0.17,0.82,0.7,1.6,1.6,2.34c0.61,0.51,1.31,0.85,2.07,1.04c0.77,0.19,1.56,0.18,2.36-0.03
					c0.81-0.21,1.56-0.62,2.26-1.23l2.91-2.45c-1.11,0.5-2.26,0.68-3.46,0.56c-1.2-0.13-2.3-0.6-3.28-1.4
					C635.25,148.87,634.62,147.77,634.5,146.53z M641.93,141.23c-1.34,0.05-2.62,0.6-3.82,1.63c-0.35,0.31-0.63,0.59-0.85,0.85
					c-0.76,0.92-1.08,1.86-0.97,2.82c0.11,0.96,0.64,1.82,1.57,2.59c0.69,0.56,1.46,0.94,2.34,1.12c0.87,0.18,1.75,0.15,2.64-0.09
					c0.89-0.24,1.72-0.69,2.48-1.35c0.27-0.23,0.53-0.5,0.77-0.79c0.76-0.92,1.09-1.88,0.99-2.89c-0.1-1-0.6-1.87-1.49-2.61
					C644.49,141.6,643.27,141.18,641.93,141.23z"/>
				<path class="st13" d="M669.2,165.32c-0.01,1.32-0.61,2.52-1.78,3.6c-0.34,0.31-0.72,0.6-1.16,0.88c-1.1,0.7-2.24,1.12-3.43,1.24
					c-1.18,0.13-2.31-0.02-3.38-0.44c-1.07-0.42-2.01-1.06-2.8-1.93c-1.09-1.18-1.63-2.44-1.61-3.77c0.01-1.33,0.61-2.54,1.78-3.61
					c0.33-0.3,0.71-0.59,1.14-0.86c1.1-0.7,2.25-1.11,3.43-1.24c1.19-0.12,2.32,0.03,3.39,0.45c1.08,0.42,2.01,1.07,2.81,1.94
					C668.68,162.75,669.22,164,669.2,165.32z M664.41,160.99c-0.79-0.32-1.65-0.42-2.59-0.32c-0.94,0.1-1.88,0.45-2.82,1.05
					c-0.41,0.28-0.74,0.52-0.97,0.74c-0.91,0.84-1.36,1.74-1.34,2.71c0.02,0.97,0.4,1.86,1.15,2.67c0.56,0.61,1.23,1.07,2.01,1.38
					c0.78,0.31,1.64,0.42,2.57,0.32c0.93-0.1,1.87-0.44,2.82-1.04c0.41-0.28,0.74-0.52,0.97-0.74c0.91-0.84,1.37-1.74,1.36-2.71
					c-0.01-0.97-0.38-1.86-1.13-2.67C665.87,161.76,665.2,161.3,664.41,160.99z"/>
				<path class="st13" d="M680.09,170.77c1.11,0.27,2.14,1.06,3.09,2.37l-1.26,0.7c-0.71-0.92-1.4-1.47-2.08-1.62
					c-0.68-0.16-1.48,0.01-2.4,0.5l-0.45,0.24l1.94,2.47l-1.28,0.68l-1.95-2.47l-9.94,5.34l-1.01-1.28l9.95-5.34l-1.15-1.46
					l1.28-0.68l1.15,1.46l0.56-0.29C677.8,170.71,678.98,170.5,680.09,170.77z"/>
			</g>
			<g>
				<path class="st13" d="M416.15,381.63l0.85-1.14l3.44,1.75l-9.28,12.34l-1.4-0.71l8.43-11.2L416.15,381.63z"/>
				<path class="st13" d="M421.26,391.02c1.37-2.07,2.78-3.53,4.24-4.37c1.46-0.84,3.09-0.87,4.88-0.1
					c1.37,0.59,2.19,1.39,2.47,2.39c0.27,1,0.11,2.19-0.48,3.56c-0.36,0.83-0.85,1.72-1.48,2.67c-1.37,2.09-2.79,3.55-4.26,4.4
					c-1.47,0.84-3.09,0.88-4.88,0.11c-1.37-0.59-2.19-1.39-2.47-2.39c-0.27-1-0.11-2.2,0.49-3.58
					C420.12,392.88,420.62,391.98,421.26,391.02z M429.49,394.58c0.62-0.92,1.1-1.77,1.43-2.55c0.43-1,0.56-1.86,0.38-2.57
					c-0.18-0.71-0.76-1.28-1.73-1.7c-0.94-0.4-1.8-0.49-2.6-0.26c-0.8,0.23-1.54,0.7-2.22,1.39c-0.68,0.69-1.39,1.6-2.13,2.72
					c-0.62,0.92-1.1,1.78-1.44,2.57c-0.43,1-0.56,1.86-0.39,2.58c0.18,0.72,0.75,1.29,1.73,1.71c0.94,0.4,1.8,0.49,2.6,0.26
					c0.8-0.23,1.54-0.7,2.23-1.4C428.03,396.63,428.75,395.71,429.49,394.58z"/>
				<path class="st13" d="M453.63,407.02c-1.11,0.87-2.37,1.42-3.8,1.64c-1.43,0.22-2.95,0.1-4.58-0.38l-4.41-1.28l6.81-13.86
					l4.41,1.28c2.13,0.62,3.61,1.58,4.44,2.88c0.83,1.31,0.99,2.84,0.48,4.61c-0.16,0.57-0.38,1.12-0.64,1.66
					C455.63,405.01,454.73,406.15,453.63,407.02z M451.19,406.88c1.57-0.69,2.79-1.93,3.67-3.73c0.23-0.47,0.41-0.94,0.54-1.39
					c0.42-1.46,0.3-2.72-0.37-3.78c-0.67-1.06-1.9-1.84-3.68-2.36l-2.84-0.82l-5.6,11.4l2.84,0.82
					C447.8,407.61,449.62,407.57,451.19,406.88z"/>
				<path class="st13" d="M465.94,399.21l-2.17,5.4l5.82,1.22l-0.48,1.11l-5.8-1.22l-2.19,5.47l6.44,1.35l-0.47,1.18l-7.93-1.67
					l5.74-14.33l7.93,1.67l-0.46,1.16L465.94,399.21z"/>
				<path class="st13" d="M488.58,402.85c0.91,1.01,1.37,2.3,1.38,3.87l-1.58-0.21c-0.06-1.11-0.45-2.04-1.18-2.79
					c-0.73-0.75-1.77-1.21-3.14-1.4c-1.04-0.14-2.07-0.01-3.07,0.38c-1.01,0.39-1.9,1.02-2.68,1.89c-0.78,0.87-1.36,1.92-1.76,3.16
					c-0.15,0.5-0.26,0.98-0.32,1.44c-0.2,1.5,0.06,2.73,0.78,3.7c0.72,0.97,1.77,1.55,3.15,1.73c1.37,0.18,2.62,0.02,3.74-0.49
					c1.13-0.51,2.05-1.26,2.78-2.25l1.58,0.21c-0.96,1.44-2.16,2.51-3.61,3.21c-1.45,0.7-3.08,0.93-4.89,0.69
					c-1.21-0.16-2.23-0.55-3.05-1.17c-0.82-0.62-1.42-1.41-1.77-2.38c-0.36-0.97-0.46-2.05-0.3-3.25c0.08-0.57,0.2-1.12,0.37-1.65
					c0.46-1.46,1.16-2.72,2.12-3.79c0.96-1.06,2.08-1.84,3.36-2.33c1.28-0.49,2.62-0.64,4-0.46
					C486.31,401.21,487.67,401.84,488.58,402.85z"/>
				<path class="st13" d="M497.96,403.62l-1.34,5.67l5.94,0.34l-0.31,1.17l-5.92-0.34l-1.35,5.73l6.57,0.38l-0.29,1.24l-8.09-0.47
					l3.55-15.02l8.09,0.47l-0.29,1.21L497.96,403.62z"/>
				<path class="st13" d="M524.67,402.96l-2.34,14.92l-1.51,0.03l1.96-12.5L515.64,418l-1.34,0.02l-3.22-12.37l-1.98,12.46
					l-1.51,0.03l2.34-14.92l1.79-0.03l3.55,12.94l7.6-13.14L524.67,402.96z"/>
				<path class="st13" d="M538.95,407.44c-0.57,0.66-1.28,1.12-2.14,1.39c0.8,0.08,1.46,0.37,1.98,0.88
					c0.52,0.5,0.82,1.14,0.89,1.92c0.02,0.23,0.02,0.47,0.01,0.71c-0.09,1.24-0.59,2.28-1.48,3.13c-0.89,0.85-2.12,1.35-3.7,1.5
					l-5.26,0.52l1.16-15.39l5.19-0.51c1.33-0.13,2.35,0.03,3.07,0.5c0.72,0.46,1.12,1.16,1.21,2.09c0.02,0.23,0.03,0.49,0.01,0.78
					C539.84,405.95,539.52,406.78,538.95,407.44z M538.16,411.71c-0.07-0.74-0.4-1.3-0.99-1.67c-0.59-0.37-1.38-0.5-2.38-0.4
					l-3.46,0.34l-0.46,6.05l3.48-0.34c1.13-0.11,2.03-0.46,2.7-1.06c0.67-0.59,1.04-1.36,1.1-2.31
					C538.18,412.09,538.18,411.89,538.16,411.71z M538.36,404.73c-0.07-0.67-0.35-1.17-0.86-1.5c-0.51-0.33-1.26-0.44-2.24-0.34
					l-3.39,0.34l-0.44,5.59l3.5-0.35c1.04-0.1,1.86-0.43,2.45-0.99c0.59-0.56,0.92-1.27,0.99-2.15
					C538.37,405.12,538.38,404.92,538.36,404.73z"/>
				<path class="st13" d="M547.11,401.27l-0.06,5.82l5.87-0.98l-0.04,1.21l-5.85,0.97l-0.05,5.89l6.49-1.08l-0.01,1.27l-8,1.33
					l0.14-15.44l8-1.33l-0.01,1.25L547.11,401.27z"/>
				<path class="st13" d="M566.61,396.92c0.85,0.44,1.4,1.18,1.64,2.23c0.08,0.35,0.13,0.68,0.14,0.99
					c0.07,1.28-0.23,2.39-0.88,3.31c-0.65,0.92-1.64,1.61-2.95,2.07l4.57,5.48l-1.68,0.4l-4.44-5.47l-2.39,0.56l0.38,6.42
					l-1.49,0.35l-0.89-15.41l4.53-1.07C564.62,396.44,565.77,396.48,566.61,396.92z M566.81,399.75c-0.37-1.57-1.58-2.11-3.64-1.62
					l-2.94,0.69l0.36,6.5l2.94-0.69c2.39-0.56,3.52-1.92,3.39-4.05C566.87,400.17,566.84,399.89,566.81,399.75z"/>
				<path class="st13" d="M587.61,398.87c1.15-2.15,1.62-3.92,1.39-5.32c-0.04-0.29-0.12-0.59-0.23-0.9
					c-0.26-0.73-0.68-1.24-1.26-1.52c-0.57-0.28-1.32-0.26-2.22,0.06c-1.04,0.37-1.78,1-2.2,1.87c-0.43,0.87-0.53,1.93-0.32,3.16
					l-1.4,0.5c-0.29-1.7-0.09-3.14,0.61-4.32c0.7-1.18,1.74-2.02,3.12-2.52c1.18-0.42,2.22-0.47,3.12-0.16
					c0.9,0.32,1.55,1.03,1.95,2.14c0.1,0.27,0.19,0.63,0.28,1.09c0.19,1.14,0.02,2.43-0.53,3.89c-0.55,1.46-1.29,2.89-2.23,4.31
					c-0.94,1.42-1.93,2.7-2.97,3.85l7.69-2.76l0.22,1.25l-9.74,3.5l-0.18-1.08C584.82,403.37,586.46,401.02,587.61,398.87z"/>
				<path class="st13" d="M596.04,393.97c-0.61-2.41-0.72-4.43-0.36-6.08c0.37-1.64,1.44-2.87,3.23-3.67
					c1.36-0.61,2.51-0.68,3.43-0.2c0.92,0.48,1.69,1.4,2.3,2.76c0.37,0.83,0.69,1.79,0.97,2.9c0.61,2.42,0.73,4.46,0.36,6.11
					c-0.37,1.65-1.44,2.88-3.21,3.67c-1.36,0.61-2.51,0.68-3.43,0.2c-0.92-0.48-1.69-1.4-2.31-2.78
					C596.64,396.06,596.32,395.09,596.04,393.97z M604.22,390.3c-0.26-1.08-0.57-2.01-0.91-2.78c-0.45-1-0.99-1.67-1.64-2.02
					c-0.64-0.35-1.45-0.31-2.42,0.13c-0.93,0.42-1.58,1-1.95,1.75c-0.37,0.75-0.53,1.61-0.48,2.58c0.05,0.97,0.24,2.11,0.57,3.41
					c0.26,1.08,0.57,2.01,0.92,2.8c0.45,1,0.99,1.67,1.64,2.03c0.65,0.36,1.46,0.32,2.43-0.12c0.93-0.42,1.58-1,1.95-1.75
					c0.37-0.75,0.52-1.61,0.47-2.59C604.75,392.76,604.56,391.62,604.22,390.3z"/>
				<path class="st13" d="M607.42,381.86l-0.44-1.35l3.42-1.8l4.71,14.7l-1.39,0.73l-4.27-13.35L607.42,381.86z"/>
				<path class="st13" d="M622.56,387.13c0.67,0.22,1.41,0.08,2.23-0.42c1.2-0.74,1.88-1.83,2.03-3.28c0.15-1.45-0.28-3.35-1.29-5.7
					c0.17,0.99,0.01,1.97-0.48,2.93c-0.49,0.96-1.21,1.73-2.15,2.31c-1.13,0.69-2.17,0.93-3.14,0.72c-0.96-0.21-1.77-0.85-2.43-1.91
					c-0.21-0.34-0.4-0.74-0.58-1.19c-0.35-0.87-0.51-1.75-0.49-2.65c0.02-0.9,0.27-1.76,0.74-2.58c0.47-0.82,1.19-1.53,2.14-2.11
					c1.45-0.89,2.7-1.16,3.75-0.81c1.06,0.35,1.98,1.16,2.76,2.43c0.39,0.64,0.81,1.51,1.25,2.62c0.97,2.46,1.36,4.55,1.17,6.26
					c-0.19,1.72-1.12,3.09-2.8,4.12c-1.2,0.74-2.3,0.93-3.29,0.59c-0.99-0.34-1.8-1.08-2.4-2.21l1.21-0.74
					C621.31,386.37,621.89,386.91,622.56,387.13z M624.34,375.38c-0.49-0.8-1.13-1.31-1.92-1.53c-0.79-0.22-1.69-0.03-2.68,0.58
					c-0.94,0.58-1.58,1.36-1.9,2.33c-0.32,0.97-0.26,2.02,0.18,3.12c0.15,0.38,0.3,0.69,0.45,0.94c0.5,0.81,1.11,1.28,1.85,1.42
					c0.73,0.14,1.53-0.05,2.37-0.57c0.56-0.35,1.05-0.8,1.47-1.37c0.42-0.57,0.69-1.21,0.81-1.93c0.12-0.72,0.04-1.45-0.25-2.2
					C624.57,375.8,624.44,375.53,624.34,375.38z"/>
			</g>
		</g>
	</g>
	<g>
		<path class="st13" d="M540.23,178.86c-0.08-0.05-0.17-0.05-0.25-0.08c-1.02-1.6-2.18-3.11-3.5-4.46c-2.64-2.72-5.37-4.19-8.1-4.37
			c-3.59-0.23-6.75,1.74-9.37,3.71c-4.25,3.19-8.19,6.83-11.7,10.8c-1.79,0.48-3.61,1-5.47,1.67c-2.64,0.94-5.87,2.11-8.11,4.77
			c-2.57,3.09-2.89,7.27-2.87,10.59c-2.85,2.38-4.33,5.79-5.38,8.85c-1.32,3.84-2.27,7.83-2.81,11.86c-0.26,1.88-0.4,3.89,0.33,5.77
			c0.89,2.27,2.81,3.8,4.58,4.99c4.21,2.84,8.82,5.01,13.71,6.46c1.64,0.49,3.31,0.88,4.97,1.23c0.07,0.11,0.12,0.23,0.22,0.33
			c3.09,3.06,6.59,6.52,11.21,8.13c2.25,0.79,4.6,1.05,6.48,1.19c-1.59,8.69-5.74,15.89-10.15,23.46c-0.93,1.59-1.86,3.2-2.77,4.83
			c-1.03-2.52-2.7-4.79-4.83-6.47c-2.36-1.87-5.32-3.03-8.33-3.32c0.89-1.07,1.55-2.28,1.89-3.57c1.03-3.87-0.67-7.63-2.04-10.12
			c-4.68-8.52-12.15-14.28-19.99-15.41l-0.7-0.09c-1.2-0.16-2.34-0.31-3.16-1.07c-0.46-0.46-1.24-1.24-2.46-1.28
			c-1.09-0.04-1.9,0.56-2.17,0.75c-1.01,0.76-1.74,1.7-2.27,2.73c-2-0.82-4.31-0.87-6.33-0.07c-0.15,0.06-0.27,0.17-0.4,0.26
			c-0.01,0-0.03,0-0.04,0c-3.83,0.21-5,4.74-5.38,6.22c-1.21,4.65-3.01,9.16-5.52,13.68c-0.65,1.17-1.4,2.5-1.68,4.04
			c-0.41,2.22,0.33,4.42,1.9,5.61c0.76,0.57,1.61,0.85,2.23,1.04c0.62,0.2,1.25,0.32,1.88,0.42c-0.49,0.78-0.96,1.58-1.38,2.4
			c-1.29,2.5-0.23,3.92,0.29,4.43c0.64,0.61,1.43,0.78,1.84,0.87l19.15,4.18c3.33,0.72,7.11,1.54,10.86,0.92
			c3.16-0.52,6.07-2.1,8.33-4.34c2.15-2.13,3.68-4.87,4.3-7.84c2.46,0.13,4.89,1.04,6.82,2.56c2.2,1.74,3.77,4.31,4.31,7.06
			c0.07,0.36,0.26,0.64,0.49,0.89c-2.39,4.71-4.45,9.7-5.56,15.29c-1,5-1.84,14.45,3.73,21.56c0.65,0.83,1.85,0.97,2.68,0.32
			c0.06-0.05,0.11-0.1,0.17-0.15c0.68-0.67,0.76-1.76,0.16-2.53c-4.63-5.9-3.86-14.09-3-18.45c1.75-8.76,6.09-16.21,10.29-23.42
			c4.48-7.68,9.06-15.64,10.7-25.26c5.79-0.03,10.85-1.1,15.06-3.22c0.86-0.43,1.92-1.03,2.81-1.91c0.17-0.17,0.34-0.35,0.5-0.55
			c0.82-1,1.27-2.14,1.66-3.15c0.19-0.5,0.4-1.02,0.6-1.57c0.32,0.01,0.65-0.03,0.96-0.2c3.57-1.94,6.92-4.3,9.96-7.02
			c0.37-0.33,0.77-0.69,1.16-1.08c0.69-0.68,1.37-1.45,1.96-2.32c0.96-1.42,1.56-2.94,2.14-4.41c0.86-2.19,1.84-4.68,1.68-7.41
			c-0.25-4.05-2.97-7.34-4.96-9.73c-0.01-0.01-0.02-0.01-0.03-0.02c1.34-2.44,2.65-4.98,2.56-8.01c-0.09-2.93-1.59-5.92-4.33-8.64
			c-3.05-3.04-6.73-5.11-10.29-7.12L540.23,178.86z M471.28,241.25c0.02-0.02,0.04-0.04,0.06-0.06c0.01,0.01,0.03,0.03,0.04,0.04
			c0.02,0.02,0.3,0.29,0.32,0.31c1.5,1.38,3.46,1.64,5.04,1.84l0.65,0.09c6.66,0.96,13.09,5.99,17.19,13.47
			c1.67,3.05,2.21,5.37,1.7,7.31c-0.52,1.99-2.31,3.7-4.67,4.49l0,0c-4.21,1.41-12.64,0.33-16.12-2.88
			c-1.48-1.37-1.81-3.18-2.23-5.46l-0.14-0.77c-0.06-0.32-0.15-0.63-0.22-0.95c-0.02-0.08-0.03-0.17-0.06-0.25
			c-0.39-1.73-0.86-3.42-1.34-5.06c-0.56-1.89-1.08-3.68-1.45-5.53C469.61,245.72,469.75,242.77,471.28,241.25z M459.66,261.6
			c-0.03-0.05-0.13-0.37,0.25-1.62l1.1-3.57c0.26,0.28,0.62,0.62,1.06,0.87c-0.19,0.73-0.41,1.45-0.67,2.16
			c-0.28,0.76-0.62,1.6-1.17,1.98C460.01,261.57,459.7,261.59,459.66,261.6z M464.99,260.74c1.33-3.63,1.83-7.5,1.5-11.33
			c0.39,1.73,0.86,3.42,1.34,5.05c0.44,1.48,0.83,2.91,1.17,4.35c-0.96,1.34-2.8,2.37-4.64,3.36
			C464.6,261.69,464.82,261.21,464.99,260.74z M466.04,246.42c-0.2-0.82-0.49-1.62-0.88-2.35c0.32,0.08,0.62,0.21,0.92,0.36
			C466.01,245.1,466.01,245.77,466.04,246.42z M455.09,268.28c-0.66-0.1-1.33-0.19-1.98-0.39c-0.4-0.13-0.86-0.28-1.1-0.46
			c-0.4-0.3-0.59-1.09-0.44-1.87c0.17-0.92,0.7-1.87,1.43-3.18c2.5-4.5,4.42-9.3,5.71-14.27c0.75-2.89,1.52-3.35,1.9-3.37
			c0.69-0.04,1.52,1.32,1.82,2.97c0.3,1.67,0.4,3.36,0.32,5.03c-0.53-0.43-1.22-0.8-2.11-0.78c-0.85,0.02-2.4,0.44-3.17,2.98
			l-1.21,3.92c-0.31,1.02-1.04,3.4,0.48,5.19c0.66,0.79,1.63,1.23,2.67,1.31c-1.09,0.97-2.09,2.02-3.02,3.12
			C455.96,268.4,455.53,268.34,455.09,268.28z M483.97,280.97c-3.04,0.5-6.29-0.21-9.43-0.89l-18.71-3.98c0-0.01,0-0.01,0-0.01
			c0.77-1.5,1.71-2.95,2.77-4.3c0.02-0.02,0.04-0.05,0.06-0.07c1.06-1.35,2.24-2.6,3.52-3.72c0.94-0.83,2.29-1.55,3.72-2.32
			c1.34-0.72,2.77-1.5,4.03-2.46c0.46,1.93,1.19,3.82,2.97,5.45c4.63,4.28,14.51,5.5,19.92,3.69c0.2-0.07,0.39-0.16,0.59-0.23
			C492.32,276.57,488.49,280.23,483.97,280.97z M528.13,173.76c1.76,0.11,3.65,1.2,5.61,3.22c2.63,2.71,4.61,6.08,5.75,9.69
			c-0.55-0.06-1.09-0.07-1.62-0.04c-3.6-2.95-8.76-5.41-13.12-6.21c-1.67-0.3-3.45-0.57-5.26-0.22c-1.66,0.31-3.09,1.08-4.29,1.96
			c-0.16,0.06-0.33,0.1-0.49,0.16c2.09-1.99,4.29-3.87,6.6-5.6C523.46,175.08,525.78,173.6,528.13,173.76z M555.56,212.93
			c0.8,1.55,1.32,2.83,1.18,4c-0.18,1.6-1.59,3.01-3.08,4.33c-2.96,2.59-5.51,4.32-8.02,5.42c-1.54,0.67-3.67,1.33-6.02,1.41
			c0.15-0.23,0.29-0.46,0.44-0.69c1.75-2.76,3.5-5.52,5.12-8.36c0.98-1.72,1.95-3.58,2.01-5.74c0.06-1.87-0.74-3.96-2.36-5.15
			c0.29-0.43,0.59-0.85,0.87-1.28c0.91-1.43,1.77-2.96,2.41-4.6C551.04,205.5,553.55,209.06,555.56,212.93z M510.45,232.81
			c-1.38-0.67-2.27-1.28-2.88-2c-1.02-1.21-1.25-3.03-0.72-4.53c3.44,2.06,7.27,3.47,11.27,4.04c1.49,0.21,3.22,0.32,4.83-0.5
			c0.53-0.27,0.99-0.61,1.38-1c1.83-1.81,2.22-4.64,2.43-6.13l0.16-1.16c1.47,0.71,3.4,1.3,5.35,0.57c1.23-0.46,2.12-1.35,2.72-1.94
			c2.77-2.75,5.32-5.74,7.65-8.88c0.44,0.38,0.76,1.14,0.74,1.89c-0.04,1.29-0.74,2.61-1.51,3.97c-1.59,2.79-3.31,5.5-5.18,8.43
			c-1.62,2.55-3.3,5.19-5.28,7.45c-0.66,0.76-1.46,1.6-2.36,2.02c-0.94,0.45-2.16,0.53-3.23,0.56
			C519.94,235.83,514.77,234.89,510.45,232.81z M498.51,211.98c-0.44-0.88-0.89-1.92-0.92-2.9c-0.07-2.76,3.05-4.93,5.7-6.25
			c3.74-1.88,7.68-3.33,11.73-4.35c-0.31,0.68-0.55,1.39-0.72,2.12c-1.05,0.82-1.94,1.9-2.55,3.2c-0.81,1.76-1.14,3.83-0.99,6.17
			c0.2,2.78,1.06,4.98,2.56,6.53c1.66,1.71,3.89,2.39,5.42,2.75c1.75,0.42,3.29,0.47,4.63,0.2l-0.37,2.7
			c-0.25,1.79-0.65,3.7-1.77,4.26c-0.66,0.33-1.66,0.25-2.55,0.12C510.09,225.32,502.36,219.74,498.51,211.98z M515.84,186.59
			c1.68-1.58,3.02-2.4,4.35-2.65c1.18-0.22,2.5-0.01,3.87,0.23c2.79,0.51,6.05,1.86,8.81,3.57c-0.65,0.25-1.27,0.51-1.84,0.77
			c-2.63,1.2-5.15,2.65-7.53,4.3c-0.89-0.17-1.71-0.17-2.49,0c-0.79,0.17-1.55,0.58-2.31,1.13c-0.24-0.05-0.5-0.06-0.75-0.01
			c-3.01,0.56-5.97,1.35-8.85,2.34C510.68,192.61,513.01,189.23,515.84,186.59z M545.2,198.64c-0.27,2.03-1.28,3.93-2.7,6.18
			c-2.92,4.56-6.35,8.82-10.19,12.64c-0.5,0.49-0.94,0.91-1.37,1.07c-0.85,0.32-2.08-0.24-3.32-0.95c0.02-0.18,0.01-0.35-0.03-0.54
			c-0.2-1.03,0.16-2.32,1.07-3.85c0.3-0.5,0.63-1,0.96-1.49c0.71-1.07,1.45-2.17,2-3.46c1.21-2.9,1.13-6.32-0.2-9.17
			c-0.83-1.77-2.14-3.3-3.73-4.43c1.59-0.98,3.23-1.87,4.93-2.64c1.91-0.87,4.4-1.84,6.7-1.52
			C542.83,190.96,545.68,194.93,545.2,198.64z M523.33,196.69c0.06,0.02,0.12,0.06,0.19,0.07c1.93,0.64,3.59,2.08,4.45,3.93
			c0.88,1.89,0.93,4.16,0.13,6.07c-0.4,0.95-1,1.85-1.65,2.81c-0.36,0.54-0.72,1.09-1.06,1.65c-0.4,0.67-0.71,1.32-0.97,1.96
			c-0.42-0.88-0.71-1.89-0.96-2.92c-0.21-0.88-0.29-1.81-0.38-2.73c-0.2-2.11-0.42-4.51-2-6.46c-0.67-0.84-1.45-1.4-2.24-1.69
			c0.45-0.79,1.03-1.51,1.73-2.11c0.48-0.42,0.9-0.66,1.27-0.74C522.21,196.46,522.72,196.51,523.33,196.69z M516.37,203.76
			c0.49-0.1,0.91-0.38,1.19-0.79c0.11,0.06,0.31,0.2,0.55,0.5c0.85,1.06,1,2.62,1.17,4.42c0.1,1.11,0.21,2.22,0.47,3.28
			c0.4,1.61,0.89,3.24,1.75,4.64c-0.64-0.02-1.3-0.14-1.88-0.27c-1.7-0.4-2.83-0.94-3.56-1.69c-1.07-1.11-1.41-2.86-1.49-4.14
			c-0.12-1.68,0.1-3.13,0.64-4.3C515.51,204.76,515.93,204.2,516.37,203.76z M496.65,193.33c1.51-1.87,4.16-2.79,6.47-3.62
			c2.21-0.79,4.35-1.36,6.6-1.96c-2.17,2.85-3.92,6.03-5.07,9.43c-0.1,0.29-0.1,0.58-0.07,0.86c-1.02,0.44-2.03,0.89-3.02,1.38
			c-3.07,1.55-5.25,3.36-6.51,5.36c-0.33-0.99-0.39-2.19-0.4-3.25C494.64,198.85,494.85,195.49,496.65,193.33z M489.7,229.79
			c-1.34-0.9-2.65-1.92-3.16-3.21c-0.43-1.13-0.28-2.59-0.11-3.88c0.52-3.79,1.41-7.54,2.64-11.14c0.61-1.77,1.36-3.67,2.48-5.26
			c0.41,1.11,1.05,2.15,2.07,2.96c0.05,0.04,0.1,0.05,0.15,0.08c0.08,1.66,0.7,3.12,1.3,4.33c2.02,4.07,4.99,7.61,8.54,10.39
			c-1.48,2.92-1.13,6.66,1.02,9.2c1.25,1.47,2.87,2.36,4.14,2.97c1.62,0.78,3.35,1.41,5.17,1.91c-0.61-0.05-1.25-0.16-1.88-0.28
			c-3.23-0.59-6.57-1.2-9.72-2.13C497.84,234.42,493.58,232.41,489.7,229.79z M544.46,240.2c-0.32,0.82-0.62,1.59-1.07,2.13
			c-0.52,0.61-1.33,1.09-2.06,1.46c-4.41,2.23-10,3.15-16.59,2.72c-1.79-0.12-3.88-0.33-5.82-1c-2.15-0.75-4.1-2.09-5.9-3.61
			c0.94,0.12,1.94,0.17,2.97-0.02c1.28-0.23,2.4-0.81,3.23-1.63c0.3-0.3,0.56-0.64,0.77-1c1.91,0.19,3.89,0.26,5.96,0.18
			c1.56-0.05,3.21-0.21,4.73-0.93c1.04-0.49,1.9-1.19,2.64-1.92c0.35-0.35,0.67-0.7,0.97-1.04c1.03-1.19,6.39-3.61,7.29-4.91
			c3.01,0.38,1.81,1.07,5-0.23C546.96,233.41,545.85,236.64,544.46,240.2z M561.25,223.59c-0.53,1.34-1.02,2.6-1.75,3.67
			c-0.7,1.02-1.66,1.94-2.51,2.7c-2.14,1.91-4.46,3.64-6.9,5.14c0.43-2.1,0.57-4.31,0.05-6.5c1.92-1.15,3.88-2.59,6.02-4.47
			c0.4-0.35,0.81-0.72,1.21-1.12c1.54-1.52,2.89-3.36,3.15-5.66c0.21-1.89-0.37-3.63-1.14-5.26c0.06-0.17,0.16-0.35,0.23-0.52
			c1.65,2.1,2.92,4.09,3.05,6.25C562.78,219.7,562,221.68,561.25,223.59z M560.22,199.93c0.07,2.16-1.08,4.25-2.31,6.47
			c-0.28,0.5-0.55,1.01-0.82,1.52c-2.26-3.71-4.95-7.14-8.03-10.23c-0.03-3.85-2.12-7.5-5.23-9.5c-0.25-1.17-0.56-2.32-0.95-3.45
			l4.67,2.64c3.34,1.88,6.79,3.82,9.47,6.5C558.44,195.29,560.14,197.48,560.22,199.93z"/>
		<path class="st13" d="M550.24,269.58c0.44-0.48,0.61-1.15,0.44-1.78c-0.16-0.63-0.64-1.13-1.25-1.33
			c-9.49-3.11-20.58,0.51-26.43,8.65c0,0,0,0,0,0c-1.59,2.23-2.7,7.47-0.97,10.13c1.4,2.15,3.37,3.72,5.11,5.02
			c4.31,3.23,8.94,6.07,13.76,8.44c1.78,0.88,3.87,1.78,6.17,1.37c1.39-0.25,2.44-1.03,2.86-2.12c0.36-0.89,0.22-1.73,0.14-2.23
			l-0.4-2.45c5.41-0.54,10.6-2.98,14.46-6.81c0.47-0.46,0.92-0.95,1.35-1.45c0.31-0.36,1.03-1.21,1.02-2.4
			c-0.01-1.32-0.89-2.2-1.27-2.57c-4.32-4.31-10.35-7.58-16.36-8.96L550.24,269.58z"/>
		<path class="st13" d="M499.71,303.36c-3.55-7.09-18.67-9.9-26.75-8.27c-2.82,0.57-3.48,2.17-3.61,3.06
			c-0.18,1.14,0.31,2.09,0.57,2.6l1.83,3.55c-3.5,0.4-6.82,2.74-8.96,6.32c-1.82,3.06-2.59,6.49-3.27,10.03
			c-0.72,3.69,0.88,5.07,1.9,5.57c1.19,0.57,2.4,0.32,3.13,0.17c8.14-1.68,16.55-3.43,24.47-6.66c2.05-0.84,4.2-1.83,5.99-3.43
			c0.39-0.34,0.75-0.68,1.09-1.02C501.35,310.07,501.01,305.95,499.71,303.36z"/>
		<path class="st13" d="M455.69,217.33c-2.16,0.56-6.65,1.73-6.37,6.21c0.04,1.88,0.88,3.51,1.55,4.82
			c0.39,0.76,0.92,1.79,1.93,2.51c1.7,1.21,3.84,0.88,4.87,0.72c1.69-0.26,3.64-0.64,5.32-1.82c0.33-0.23,0.64-0.48,0.92-0.76
			c1.49-1.47,2.17-3.51,1.73-5.37c-0.26-1.07-0.85-1.94-1.27-2.57c-0.91-1.35-2.6-3.86-5.41-4.18
			C457.83,216.77,456.8,217.04,455.69,217.33z M461.21,223.22c0.29,0.43,0.63,0.92,0.72,1.32c0.16,0.65-0.33,1.57-1.11,2.11
			c-1.02,0.71-2.46,0.98-3.73,1.17c-0.49,0.07-1.63,0.25-2.07-0.06c-0.26-0.19-0.53-0.72-0.75-1.15c-0.55-1.07-1.12-2.17-1.13-3.18
			c0-0.04,0-0.08,0-0.12c-0.03-0.4,0.06-0.72,0.35-1c0.48-0.47,1.51-0.86,3.45-1.37c0.57-0.15,1.17-0.31,1.59-0.26
			C459.47,220.8,460.37,221.97,461.21,223.22z"/>
		<path class="st13" d="M460.49,190.84c-2.33,0.94-3.95,2.63-4.43,4.63c-0.59,2.49,0.22,4.91,2.15,6.47
			c2.16,1.74,5.19,2.08,7.72,0.87c0.82-0.39,1.55-0.91,2.17-1.52c1.02-1.02,1.74-2.29,2.01-3.67c0.5-2.49-0.57-5.16-2.61-6.48
			C465.66,189.96,462.98,189.85,460.49,190.84z M466.37,196.88c-0.21,1.02-1.01,1.98-2.08,2.49c-1.2,0.57-2.68,0.41-3.68-0.4
			c-0.56-0.45-1.16-1.27-0.84-2.62c0.08-0.35,0.3-0.69,0.62-1.01c0.38-0.38,0.9-0.71,1.52-0.96c1.29-0.52,2.74-0.53,3.52-0.03
			C466.16,194.83,466.56,195.92,466.37,196.88z"/>
	</g>
</g>
</svg>
