<?xml version="1.0" encoding="utf-8"?>
<!-- Generator: Adobe Illustrator 26.0.1, SVG Export Plug-In . SVG Version: 6.00 Build 0)  -->
<svg version="1.1" id="Layer_1" xmlns="http://www.w3.org/2000/svg" xmlns:xlink="http://www.w3.org/1999/xlink" x="0px" y="0px"
	 viewBox="0 0 750 512" style="enable-background:new 0 0 750 512;" xml:space="preserve">
<style type="text/css">
	.st0{opacity:0.15;fill:#185ADB;}
	.st1{opacity:0.67;fill:#185ADB;}
	.st2{fill:#231F20;}
	.st3{fill:#768589;}
	.st4{fill:url(#SVGID_1_);}
	.st5{fill:url(#SVGID_00000179632950316643133900000015353691914163245443_);}
	.st6{fill:url(#SVGID_00000049921135954723022900000017104450654449399209_);}
</style>
<path class="st0" d="M706.4,489.4H43.6c-13.8,0-25-11.2-25-25V47.6c0-13.8,11.2-25,25-25h662.9c13.8,0,25,11.2,25,25v416.8
	C731.4,478.2,720.2,489.4,706.4,489.4z"/>
<rect x="-594.9" y="64.7" class="st1" width="315.1" height="382.6"/>
<g>
	<path class="st2" d="M374.6,64.6"/>
	<g>
		<g>
			<path class="st3" d="M250,401.5c0.2,0,0.5,0,0.7,0.1c0.2,0.1,0.5,0.3,0.7,0.5l4.1,4.3c-1.8,2.4-4.1,4.1-6.8,5.3
				c-2.7,1.2-5.9,1.8-9.6,1.8c-3.4,0-6.4-0.6-9.1-1.7c-2.7-1.2-5-2.7-6.8-4.8c-1.9-2-3.3-4.4-4.3-7.2c-1-2.8-1.5-5.8-1.5-9.1
				c0-3.3,0.5-6.4,1.6-9.2c1.1-2.8,2.6-5.2,4.6-7.2c2-2,4.3-3.6,7.1-4.7c2.7-1.1,5.8-1.7,9-1.7c1.7,0,3.3,0.1,4.7,0.4
				c1.5,0.3,2.9,0.7,4.2,1.2c1.3,0.5,2.5,1.2,3.6,1.9c1.1,0.7,2,1.5,2.9,2.4l-3.5,4.7c-0.2,0.3-0.5,0.5-0.8,0.8
				c-0.3,0.2-0.7,0.4-1.3,0.4c-0.4,0-0.7-0.1-1-0.2c-0.3-0.2-0.7-0.4-1-0.6c-0.4-0.2-0.8-0.5-1.2-0.8c-0.4-0.3-1-0.5-1.6-0.8
				c-0.6-0.2-1.3-0.4-2.1-0.6c-0.8-0.2-1.8-0.2-2.8-0.2c-1.7,0-3.3,0.3-4.7,0.9c-1.4,0.6-2.6,1.6-3.7,2.8c-1,1.2-1.8,2.7-2.4,4.5
				c-0.6,1.8-0.8,3.8-0.8,6.1c0,2.3,0.3,4.3,0.9,6.1c0.6,1.8,1.5,3.3,2.5,4.5c1.1,1.2,2.3,2.1,3.8,2.8c1.4,0.6,3,1,4.6,1
				c0.9,0,1.8,0,2.6-0.1c0.8-0.1,1.5-0.2,2.2-0.5c0.7-0.2,1.3-0.5,1.9-0.9c0.6-0.4,1.2-0.8,1.8-1.4c0.2-0.2,0.5-0.4,0.8-0.5
				C249.4,401.6,249.7,401.5,250,401.5z"/>
			<path class="st3" d="M302.9,390.7c0,3.2-0.6,6.2-1.7,9c-1.1,2.8-2.7,5.2-4.7,7.2c-2,2.1-4.5,3.7-7.3,4.8c-2.8,1.2-6,1.7-9.5,1.7
				c-3.5,0-6.6-0.6-9.5-1.7c-2.9-1.2-5.3-2.8-7.3-4.8c-2-2.1-3.6-4.5-4.7-7.2c-1.1-2.8-1.7-5.8-1.7-9c0-3.2,0.6-6.2,1.7-9
				c1.1-2.8,2.7-5.2,4.7-7.2c2-2,4.5-3.7,7.3-4.8c2.9-1.2,6-1.7,9.5-1.7c3.5,0,6.6,0.6,9.5,1.8c2.9,1.2,5.3,2.8,7.3,4.8
				c2,2,3.6,4.5,4.7,7.2C302.4,384.5,302.9,387.5,302.9,390.7z M292.3,390.7c0-2.2-0.3-4.2-0.9-6c-0.6-1.8-1.4-3.3-2.5-4.5
				c-1.1-1.2-2.4-2.2-3.9-2.8c-1.6-0.7-3.3-1-5.3-1c-2,0-3.8,0.3-5.3,1c-1.6,0.7-2.9,1.6-4,2.8c-1.1,1.2-1.9,2.7-2.5,4.5
				c-0.6,1.8-0.9,3.8-0.9,6c0,2.2,0.3,4.2,0.9,6c0.6,1.8,1.4,3.3,2.5,4.5c1.1,1.2,2.4,2.2,4,2.8c1.6,0.6,3.3,1,5.3,1
				c2,0,3.8-0.3,5.3-1c1.6-0.6,2.9-1.6,3.9-2.8c1.1-1.2,1.9-2.7,2.5-4.5C292,394.9,292.3,392.9,292.3,390.7z"/>
			<path class="st3" d="M359.2,368.4v44.7h-9.1v-25.7c0-0.6,0-1.2,0-1.9c0-0.7,0.1-1.4,0.2-2.1l-11.9,23c-0.4,0.7-0.9,1.3-1.5,1.6
				c-0.6,0.4-1.3,0.6-2.1,0.6h-1.4c-0.8,0-1.5-0.2-2.1-0.6c-0.6-0.4-1.1-0.9-1.5-1.6l-11.9-23c0.1,0.7,0.1,1.5,0.2,2.2
				c0,0.7,0.1,1.4,0.1,1.9v25.7H309v-44.7h7.9c0.5,0,0.8,0,1.2,0c0.3,0,0.6,0.1,0.9,0.2c0.3,0.1,0.5,0.3,0.7,0.5
				c0.2,0.2,0.4,0.5,0.6,0.9l11.5,22.7c0.4,0.8,0.8,1.6,1.2,2.4c0.4,0.8,0.7,1.7,1.1,2.6c0.3-0.9,0.7-1.8,1.1-2.6
				c0.4-0.9,0.8-1.7,1.2-2.5l11.5-22.6c0.2-0.4,0.4-0.7,0.6-0.9c0.2-0.2,0.5-0.4,0.7-0.5c0.3-0.1,0.6-0.2,0.9-0.2c0.3,0,0.7,0,1.2,0
				H359.2z"/>
			<path class="st3" d="M383.6,368.4c3.1,0,5.9,0.4,8.1,1.1c2.3,0.7,4.1,1.8,5.6,3.1c1.5,1.3,2.5,2.9,3.2,4.6c0.7,1.8,1,3.7,1,5.8
				c0,2.2-0.4,4.3-1.1,6.1c-0.7,1.9-1.8,3.5-3.3,4.8c-1.5,1.3-3.3,2.4-5.6,3.1c-2.3,0.7-4.9,1.1-8,1.1h-5.4v14.9h-10.4v-44.7H383.6z
				 M383.6,390.3c2.7,0,4.6-0.6,5.8-1.9c1.2-1.3,1.8-3.1,1.8-5.4c0-1-0.2-2-0.5-2.8c-0.3-0.8-0.8-1.6-1.4-2.2
				c-0.6-0.6-1.4-1.1-2.4-1.4c-1-0.3-2.1-0.5-3.4-0.5h-5.4v14.2H383.6z"/>
			<path class="st3" d="M443.8,413.1h-8c-0.9,0-1.6-0.2-2.2-0.6c-0.6-0.4-1-1-1.3-1.6l-2.6-7.8h-17l-2.6,7.8
				c-0.2,0.6-0.6,1.1-1.2,1.5c-0.6,0.5-1.3,0.7-2.2,0.7h-8.1l17.3-44.7h10.6L443.8,413.1z M427.3,396l-4.1-12.2
				c-0.3-0.8-0.6-1.7-1-2.7c-0.3-1.1-0.7-2.2-1-3.4c-0.3,1.2-0.6,2.4-1,3.5c-0.3,1.1-0.7,2-1,2.8l-4.1,12.2H427.3z"/>
			<path class="st3" d="M486.3,368.4v44.7h-5.4c-0.8,0-1.5-0.1-2-0.4c-0.5-0.3-1.1-0.7-1.6-1.3l-21.1-26.6c0.1,0.8,0.1,1.6,0.2,2.3
				c0,0.7,0,1.4,0,2.1v23.9h-9.1v-44.7h5.5c0.4,0,0.8,0,1.1,0.1c0.3,0,0.6,0.1,0.8,0.2c0.2,0.1,0.5,0.3,0.7,0.5
				c0.2,0.2,0.5,0.5,0.8,0.8l21.2,26.8c-0.1-0.9-0.2-1.7-0.2-2.5c0-0.8-0.1-1.6-0.1-2.3v-23.6H486.3z"/>
			<path class="st3" d="M516.4,396.1v17H506v-17l-16.2-27.7h9.1c0.9,0,1.6,0.2,2.1,0.6c0.5,0.4,1,1,1.3,1.6l6.3,13
				c0.5,1,1,2,1.4,2.9c0.4,0.9,0.8,1.8,1.1,2.6c0.3-0.9,0.7-1.8,1.1-2.7c0.4-0.9,0.9-1.8,1.4-2.8l6.3-13c0.1-0.3,0.3-0.5,0.5-0.8
				c0.2-0.3,0.4-0.5,0.7-0.7c0.3-0.2,0.6-0.4,1-0.5c0.4-0.1,0.8-0.2,1.2-0.2h9.2L516.4,396.1z"/>
		</g>
		<g>
			<path class="st3" d="M291.9,428.7h-6.7v18.4h-3.1v-18.4h-6.7v-2.6h16.5V428.7z"/>
			<path class="st3" d="M310.3,447.1h-2.4c-0.3,0-0.5-0.1-0.7-0.2c-0.2-0.1-0.3-0.3-0.4-0.5l-1.9-4.9h-9.3l-1.9,4.9
				c-0.1,0.2-0.2,0.4-0.4,0.5c-0.2,0.2-0.4,0.2-0.7,0.2h-2.4l8.4-21h3.1L310.3,447.1z M304.1,439.3l-3.1-8.2
				c-0.2-0.6-0.4-1.3-0.7-2.1c-0.1,0.4-0.2,0.8-0.3,1.2c-0.1,0.4-0.2,0.7-0.3,1l-3.1,8.1H304.1z"/>
			<path class="st3" d="M329.5,436.9v8.2c-1.1,0.8-2.2,1.3-3.4,1.7c-1.2,0.4-2.5,0.6-3.9,0.6c-1.7,0-3.2-0.3-4.6-0.8
				c-1.4-0.5-2.5-1.3-3.5-2.2c-1-0.9-1.7-2.1-2.2-3.4c-0.5-1.3-0.8-2.8-0.8-4.3c0-1.6,0.3-3,0.8-4.4c0.5-1.3,1.2-2.5,2.2-3.4
				c0.9-0.9,2.1-1.7,3.4-2.2c1.3-0.5,2.8-0.8,4.5-0.8c0.8,0,1.6,0.1,2.3,0.2c0.7,0.1,1.4,0.3,2,0.5c0.6,0.2,1.2,0.5,1.7,0.8
				c0.5,0.3,1,0.7,1.5,1.1l-0.9,1.4c-0.1,0.2-0.3,0.4-0.5,0.4c-0.2,0.1-0.5,0-0.7-0.2c-0.3-0.1-0.5-0.3-0.8-0.5
				c-0.3-0.2-0.7-0.4-1.1-0.5c-0.4-0.2-0.9-0.3-1.5-0.4c-0.6-0.1-1.2-0.2-2-0.2c-1.2,0-2.2,0.2-3.1,0.6c-0.9,0.4-1.7,0.9-2.4,1.6
				c-0.7,0.7-1.2,1.5-1.5,2.5c-0.4,1-0.5,2.1-0.5,3.3c0,1.3,0.2,2.4,0.6,3.5c0.4,1,0.9,1.9,1.6,2.6c0.7,0.7,1.5,1.2,2.5,1.6
				c1,0.4,2.1,0.6,3.3,0.6c0.5,0,0.9,0,1.3-0.1c0.4-0.1,0.8-0.1,1.2-0.2c0.4-0.1,0.7-0.2,1.1-0.4c0.3-0.1,0.7-0.3,1-0.5v-4.4h-3.1
				c-0.2,0-0.4-0.1-0.5-0.2c-0.1-0.1-0.2-0.3-0.2-0.4v-1.8H329.5z"/>
			<path class="st3" d="M345.7,444.5v2.6h-12v-21h3.1v18.4H345.7z"/>
			<path class="st3" d="M351.9,447.1h-3.1v-21h3.1V447.1z"/>
			<path class="st3" d="M374.3,426.1v21h-1.6c-0.2,0-0.4,0-0.6-0.1c-0.2-0.1-0.3-0.2-0.5-0.4l-11.9-15.4c0,0.3,0,0.5,0,0.8
				c0,0.3,0,0.5,0,0.7v14.4h-2.7v-21h1.6c0.3,0,0.5,0,0.6,0.1c0.1,0.1,0.3,0.2,0.5,0.4l11.9,15.4c0-0.3-0.1-0.6-0.1-0.8
				c0-0.3,0-0.5,0-0.8v-14.3H374.3z"/>
			<path class="st3" d="M392.5,444.6l0,2.5h-13v-21h13v2.5h-9.9v6.7h8v2.4h-8v6.8H392.5z"/>
			<path class="st3" d="M421,426.1v21h-3.1v-9.5h-11v9.5h-3.1v-21h3.1v9.3h11v-9.3H421z"/>
			<path class="st3" d="M439.2,444.6l0,2.5h-13v-21h13v2.5h-9.9v6.7h8v2.4h-8v6.8H439.2z"/>
			<path class="st3" d="M458.8,447.1H456c-0.6,0-1-0.2-1.2-0.7l-5.2-7.3c-0.2-0.2-0.3-0.4-0.5-0.5c-0.2-0.1-0.5-0.2-0.9-0.2h-2v8.6
				H443v-21h6.1c1.4,0,2.5,0.1,3.5,0.4c1,0.3,1.8,0.7,2.4,1.2c0.6,0.5,1.1,1.1,1.4,1.9c0.3,0.7,0.5,1.5,0.5,2.4
				c0,0.7-0.1,1.4-0.3,2.1c-0.2,0.6-0.6,1.2-1,1.7c-0.4,0.5-1,1-1.6,1.3c-0.6,0.4-1.3,0.7-2.1,0.9c0.4,0.2,0.7,0.6,1,1L458.8,447.1z
				 M449,436.2c0.8,0,1.5-0.1,2.1-0.3c0.6-0.2,1.1-0.5,1.5-0.8c0.4-0.4,0.7-0.8,0.9-1.3c0.2-0.5,0.3-1,0.3-1.6
				c0-1.2-0.4-2.1-1.2-2.7c-0.8-0.6-2-0.9-3.6-0.9h-2.9v7.7H449z"/>
			<path class="st3" d="M474.5,444.6l0,2.5h-13v-21h13v2.5h-9.9v6.7h8v2.4h-8v6.8H474.5z"/>
		</g>
	</g>
	<g>
		
			<linearGradient id="SVGID_1_" gradientUnits="userSpaceOnUse" x1="546.6741" y1="198.42" x2="773.42" y2="198.42" gradientTransform="matrix(1 0 0 1 -285.0254 1.2266)">
			<stop  offset="0" style="stop-color:#91236E"/>
			<stop  offset="1" style="stop-color:#E02E71"/>
		</linearGradient>
		<polygon class="st4" points="287,199.6 349.9,90.7 475.7,90.7 488.4,68.7 337.2,68.7 261.6,199.6 337.2,330.6 488.4,330.6 
			475.7,308.6 349.9,308.6 		"/>
		
			<linearGradient id="SVGID_00000147932360349137286930000005129850264914496146_" gradientUnits="userSpaceOnUse" x1="573.6871" y1="198.4184" x2="736.9651" y2="198.4184" gradientTransform="matrix(1 0 0 1 -269.7266 1.2246)">
			<stop  offset="0" style="stop-color:#000000"/>
			<stop  offset="1" style="stop-color:#3E3E3E"/>
		</linearGradient>
		<polygon style="fill:url(#SVGID_00000147932360349137286930000005129850264914496146_);" points="454.5,127.4 467.2,105.4 
			371.1,105.4 358.4,105.4 352,116.4 310.3,188.7 304,199.6 310.3,210.6 352,282.9 358.4,293.9 371.1,293.9 467.2,293.9 
			454.5,271.9 371.1,271.9 329.3,199.6 371.1,127.4 		"/>
		<g>
			
				<linearGradient id="SVGID_00000148625264124974569780000014174541058857684925_" gradientUnits="userSpaceOnUse" x1="631.2977" y1="198.4182" x2="731.1082" y2="198.4182" gradientTransform="matrix(1 0 0 1 -285.0254 1.2266)">
				<stop  offset="3.502000e-05" style="stop-color:#8F969E"/>
				<stop  offset="1" style="stop-color:#C3D2D9"/>
			</linearGradient>
			<polygon style="fill:url(#SVGID_00000148625264124974569780000014174541058857684925_);" points="392.2,235.3 371.7,199.6 
				392.2,164 433.4,164 446.1,142 379.5,142 346.3,199.6 379.5,257.3 446.1,257.3 433.4,235.3 			"/>
		</g>
	</g>
</g>
</svg>
