<?xml version="1.0" encoding="utf-8"?>
<!-- Generator: Adobe Illustrator 26.0.1, SVG Export Plug-In . SVG Version: 6.00 Build 0)  -->
<svg version="1.1" id="Layer_1" xmlns="http://www.w3.org/2000/svg" xmlns:xlink="http://www.w3.org/1999/xlink" x="0px" y="0px"
	 viewBox="0 0 750 512" style="enable-background:new 0 0 750 512;" xml:space="preserve">
<style type="text/css">
	.st0{opacity:0.15;fill:#185ADB;}
	.st1{opacity:0.67;fill:#185ADB;}
	.st2{fill:#768589;}
	.st3{fill:url(#SVGID_1_);}
	.st4{fill:url(#SVGID_00000157274756261051477860000007870277091608374462_);}
	.st5{fill:url(#SVGID_00000152246156050164127190000000495815700902254226_);}
	.st6{fill:url(#SVGID_00000173853708048116536740000006415457932128535203_);}
	.st7{fill:url(#SVGID_00000065066477728233026840000008405328297934507452_);}
	.st8{fill:url(#SVGID_00000074404661070101492220000018404169884643542684_);}
	.st9{fill:url(#SVGID_00000045614151534894002580000004013617237663588024_);}
	.st10{fill:url(#SVGID_00000074400942917241389840000013567203744872588942_);}
	.st11{fill:url(#SVGID_00000103253114410826354050000000510775369190832789_);}
	.st12{fill:url(#SVGID_00000032648533880764856270000011207300460371143088_);}
	.st13{fill:url(#SVGID_00000165233842148865573230000018426364472473086877_);}
	.st14{fill:url(#SVGID_00000121986836412888800890000004051363096717394357_);}
	.st15{fill:url(#SVGID_00000093150621479273818840000002161632045439210889_);}
	.st16{fill:url(#SVGID_00000180367463912098147900000015412190185910038450_);}
	.st17{fill:url(#SVGID_00000027564396263118016130000006065638935769725343_);}
	.st18{fill:url(#SVGID_00000103974948628501380150000012925018950176047010_);}
	.st19{fill:url(#SVGID_00000164504846489840756450000010837251152330538882_);}
	.st20{fill:url(#SVGID_00000036217982731771515050000016988356928546074506_);}
	.st21{fill:url(#SVGID_00000134930406157254171990000007534645248127089032_);}
	.st22{fill:url(#SVGID_00000067238600850275083760000006597666588917852303_);}
	.st23{fill:none;}
	.st24{fill:url(#SVGID_00000119826661961121929510000006608732690873783713_);}
	.st25{fill:url(#SVGID_00000155826046400288082420000009877060364779308206_);}
	.st26{fill:#FFFFFF;}
	.st27{fill:#231F20;}
	.st28{fill:url(#SVGID_00000119086032276891219580000001578502094656776576_);}
	.st29{fill:url(#SVGID_00000050664565124961479190000009630522693691131572_);}
	.st30{fill:url(#SVGID_00000041259892367868453700000006310612489775614098_);}
	.st31{fill:url(#SVGID_00000088844258924755809490000014618521121916666511_);}
	.st32{fill:url(#SVGID_00000049940713822913773460000006794389676076063874_);}
	.st33{fill:url(#SVGID_00000098200620448918763340000008490155855165502099_);}
	.st34{fill:url(#SVGID_00000157288444982725857120000005794370976813740983_);}
	.st35{fill:url(#SVGID_00000096740842835644826670000017230568143290410158_);}
	.st36{fill:url(#SVGID_00000138565025410028585230000002097748511806680239_);}
	.st37{fill:url(#SVGID_00000071543330193981294670000017423264579386613124_);}
	.st38{fill:url(#SVGID_00000004544873464261053440000007689299932871359392_);}
	.st39{fill:url(#SVGID_00000109728610096643785850000012995840847739631548_);}
	.st40{fill:url(#SVGID_00000013163335851055326460000010034566655533088431_);}
	.st41{fill:url(#SVGID_00000121276978932310387920000011846789482507833221_);}
	.st42{fill:url(#SVGID_00000005945197245637808740000008356574302994745506_);}
	.st43{fill:url(#SVGID_00000101789366688996161710000002991587948167385246_);}
	.st44{fill:url(#SVGID_00000041288460931863746640000000354112639169268355_);}
</style>
<path class="st0" d="M706.4,489.4H43.6c-13.8,0-25-11.2-25-25V47.6c0-13.8,11.2-25,25-25h662.9c13.8,0,25,11.2,25,25v416.8
	C731.4,478.2,720.2,489.4,706.4,489.4z"/>
<g>
	<g>
		<g>
			<path class="st2" d="M250,401.7c0.2,0,0.5,0,0.7,0.1c0.2,0.1,0.5,0.3,0.7,0.5l4.1,4.3c-1.8,2.4-4.1,4.1-6.8,5.3
				c-2.7,1.2-5.9,1.8-9.6,1.8c-3.4,0-6.4-0.6-9.1-1.7c-2.7-1.2-5-2.7-6.8-4.8c-1.9-2-3.3-4.4-4.3-7.2c-1-2.8-1.5-5.8-1.5-9.1
				c0-3.3,0.5-6.4,1.6-9.2c1.1-2.8,2.6-5.2,4.6-7.2c2-2,4.3-3.6,7.1-4.7c2.7-1.1,5.8-1.7,9-1.7c1.7,0,3.3,0.1,4.7,0.4
				c1.5,0.3,2.9,0.7,4.2,1.2c1.3,0.5,2.5,1.2,3.6,1.9c1.1,0.7,2,1.5,2.9,2.4l-3.5,4.7c-0.2,0.3-0.5,0.5-0.8,0.8
				c-0.3,0.2-0.7,0.4-1.3,0.4c-0.4,0-0.7-0.1-1-0.2c-0.3-0.2-0.7-0.4-1-0.6c-0.4-0.2-0.8-0.5-1.2-0.8c-0.4-0.3-1-0.5-1.6-0.8
				c-0.6-0.2-1.3-0.4-2.1-0.6c-0.8-0.2-1.8-0.2-2.8-0.2c-1.7,0-3.3,0.3-4.7,0.9c-1.4,0.6-2.6,1.6-3.7,2.8c-1,1.2-1.8,2.7-2.4,4.5
				c-0.6,1.8-0.8,3.8-0.8,6.1c0,2.3,0.3,4.3,0.9,6.1c0.6,1.8,1.5,3.3,2.5,4.5c1.1,1.2,2.3,2.1,3.8,2.8c1.4,0.6,3,1,4.6,1
				c0.9,0,1.8,0,2.6-0.1c0.8-0.1,1.5-0.2,2.2-0.5c0.7-0.2,1.3-0.5,1.9-0.9c0.6-0.4,1.2-0.8,1.8-1.4c0.2-0.2,0.5-0.4,0.8-0.5
				C249.4,401.7,249.7,401.7,250,401.7z"/>
			<path class="st2" d="M302.9,390.9c0,3.2-0.6,6.2-1.7,9c-1.1,2.8-2.7,5.2-4.7,7.2c-2,2.1-4.5,3.7-7.3,4.8c-2.8,1.2-6,1.7-9.5,1.7
				c-3.5,0-6.6-0.6-9.5-1.7c-2.9-1.2-5.3-2.8-7.3-4.8c-2-2.1-3.6-4.5-4.7-7.2c-1.1-2.8-1.7-5.8-1.7-9c0-3.2,0.6-6.2,1.7-9
				c1.1-2.8,2.7-5.2,4.7-7.2c2-2,4.5-3.7,7.3-4.8c2.9-1.2,6-1.7,9.5-1.7c3.5,0,6.6,0.6,9.5,1.8c2.9,1.2,5.3,2.8,7.3,4.8
				c2,2,3.6,4.5,4.7,7.2C302.4,384.7,302.9,387.7,302.9,390.9z M292.3,390.9c0-2.2-0.3-4.2-0.9-6c-0.6-1.8-1.4-3.3-2.5-4.5
				c-1.1-1.2-2.4-2.2-3.9-2.8c-1.6-0.7-3.3-1-5.3-1c-2,0-3.8,0.3-5.3,1c-1.6,0.7-2.9,1.6-4,2.8c-1.1,1.2-1.9,2.7-2.5,4.5
				c-0.6,1.8-0.9,3.8-0.9,6c0,2.2,0.3,4.2,0.9,6c0.6,1.8,1.4,3.3,2.5,4.5c1.1,1.2,2.4,2.2,4,2.8c1.6,0.6,3.3,1,5.3,1
				c2,0,3.8-0.3,5.3-1c1.6-0.6,2.9-1.6,3.9-2.8c1.1-1.2,1.9-2.7,2.5-4.5C292,395.1,292.3,393.1,292.3,390.9z"/>
			<path class="st2" d="M359.2,368.6v44.7h-9.1v-25.7c0-0.6,0-1.2,0-1.9c0-0.7,0.1-1.4,0.2-2.1l-11.9,23c-0.4,0.7-0.9,1.3-1.5,1.6
				c-0.6,0.4-1.3,0.6-2.1,0.6h-1.4c-0.8,0-1.5-0.2-2.1-0.6c-0.6-0.4-1.1-0.9-1.5-1.6l-11.9-23c0.1,0.7,0.1,1.5,0.2,2.2
				c0,0.7,0.1,1.4,0.1,1.9v25.7H309v-44.7h7.9c0.5,0,0.8,0,1.2,0c0.3,0,0.6,0.1,0.9,0.2c0.3,0.1,0.5,0.3,0.7,0.5
				c0.2,0.2,0.4,0.5,0.6,0.9l11.5,22.7c0.4,0.8,0.8,1.6,1.2,2.4c0.4,0.8,0.7,1.7,1.1,2.6c0.3-0.9,0.7-1.8,1.1-2.6
				c0.4-0.9,0.8-1.7,1.2-2.5l11.5-22.6c0.2-0.4,0.4-0.7,0.6-0.9c0.2-0.2,0.5-0.4,0.7-0.5c0.3-0.1,0.6-0.2,0.9-0.2c0.3,0,0.7,0,1.2,0
				H359.2z"/>
			<path class="st2" d="M383.6,368.6c3.1,0,5.9,0.4,8.1,1.1c2.3,0.7,4.1,1.8,5.6,3.1c1.5,1.3,2.5,2.9,3.2,4.6c0.7,1.8,1,3.7,1,5.8
				c0,2.2-0.4,4.3-1.1,6.1c-0.7,1.9-1.8,3.5-3.3,4.8c-1.5,1.3-3.3,2.4-5.6,3.1c-2.3,0.7-4.9,1.1-8,1.1h-5.4v14.9h-10.4v-44.7H383.6z
				 M383.6,390.5c2.7,0,4.6-0.6,5.8-1.9c1.2-1.3,1.8-3.1,1.8-5.4c0-1-0.2-2-0.5-2.8c-0.3-0.8-0.8-1.6-1.4-2.2
				c-0.6-0.6-1.4-1.1-2.4-1.4c-1-0.3-2.1-0.5-3.4-0.5h-5.4v14.2H383.6z"/>
			<path class="st2" d="M443.8,413.2h-8c-0.9,0-1.6-0.2-2.2-0.6c-0.6-0.4-1-1-1.3-1.6l-2.6-7.8h-17l-2.6,7.8
				c-0.2,0.6-0.6,1.1-1.2,1.5c-0.6,0.5-1.3,0.7-2.2,0.7h-8.1l17.3-44.7h10.6L443.8,413.2z M427.3,396.1l-4.1-12.2
				c-0.3-0.8-0.6-1.7-1-2.7c-0.4-1.1-0.7-2.2-1-3.4c-0.3,1.2-0.6,2.4-1,3.5c-0.3,1.1-0.7,2-1,2.8l-4.1,12.2H427.3z"/>
			<path class="st2" d="M486.3,368.6v44.7h-5.4c-0.8,0-1.5-0.1-2-0.4c-0.5-0.3-1.1-0.7-1.6-1.3l-21.1-26.6c0.1,0.8,0.1,1.6,0.2,2.3
				c0,0.7,0.1,1.4,0.1,2.1v23.9h-9.1v-44.7h5.5c0.4,0,0.8,0,1.1,0.1c0.3,0,0.6,0.1,0.8,0.2c0.2,0.1,0.5,0.3,0.7,0.5
				c0.2,0.2,0.5,0.5,0.8,0.8l21.2,26.8c-0.1-0.9-0.2-1.7-0.2-2.5c0-0.8-0.1-1.6-0.1-2.3v-23.6H486.3z"/>
			<path class="st2" d="M516.4,396.2v17H506v-17l-16.2-27.7h9.1c0.9,0,1.6,0.2,2.1,0.6c0.5,0.4,1,1,1.3,1.6l6.3,13
				c0.5,1,1,2,1.4,2.9c0.4,0.9,0.8,1.8,1.1,2.6c0.3-0.9,0.7-1.8,1.1-2.7c0.4-0.9,0.9-1.8,1.4-2.8l6.3-13c0.1-0.3,0.3-0.5,0.5-0.8
				c0.2-0.3,0.4-0.5,0.7-0.7c0.3-0.2,0.6-0.4,1-0.5c0.4-0.1,0.8-0.2,1.2-0.2h9.2L516.4,396.2z"/>
		</g>
		<g>
			<path class="st2" d="M291.9,428.9h-6.7v18.4h-3.1v-18.4h-6.7v-2.6h16.5V428.9z"/>
			<path class="st2" d="M310.3,447.3h-2.4c-0.3,0-0.5-0.1-0.7-0.2c-0.2-0.1-0.3-0.3-0.4-0.5l-1.9-4.9h-9.3l-1.9,4.9
				c-0.1,0.2-0.2,0.4-0.4,0.5c-0.2,0.2-0.4,0.2-0.7,0.2h-2.4l8.4-21h3.1L310.3,447.3z M304.1,439.5l-3.1-8.2
				c-0.2-0.6-0.4-1.3-0.7-2.1c-0.1,0.4-0.2,0.8-0.3,1.2c-0.1,0.4-0.2,0.7-0.3,1l-3.1,8.1H304.1z"/>
			<path class="st2" d="M329.5,437.1v8.2c-1.1,0.8-2.2,1.3-3.4,1.7c-1.2,0.4-2.5,0.6-3.9,0.6c-1.7,0-3.2-0.3-4.6-0.8
				c-1.4-0.5-2.5-1.3-3.5-2.2c-1-0.9-1.7-2.1-2.2-3.4c-0.5-1.3-0.8-2.8-0.8-4.3c0-1.6,0.3-3,0.8-4.4c0.5-1.3,1.2-2.5,2.2-3.4
				c0.9-0.9,2.1-1.7,3.4-2.2c1.3-0.5,2.8-0.8,4.5-0.8c0.8,0,1.6,0.1,2.3,0.2c0.7,0.1,1.4,0.3,2,0.5c0.6,0.2,1.2,0.5,1.7,0.8
				c0.5,0.3,1,0.7,1.5,1.1l-0.9,1.4c-0.1,0.2-0.3,0.4-0.5,0.4c-0.2,0.1-0.5,0-0.7-0.2c-0.3-0.1-0.5-0.3-0.8-0.5
				c-0.3-0.2-0.7-0.4-1.1-0.5c-0.4-0.2-0.9-0.3-1.5-0.4c-0.6-0.1-1.2-0.2-2-0.2c-1.2,0-2.2,0.2-3.1,0.6c-0.9,0.4-1.7,0.9-2.4,1.6
				c-0.7,0.7-1.2,1.5-1.5,2.5c-0.4,1-0.5,2.1-0.5,3.3c0,1.3,0.2,2.4,0.6,3.5c0.4,1,0.9,1.9,1.6,2.6c0.7,0.7,1.5,1.2,2.5,1.6
				c1,0.4,2.1,0.6,3.3,0.6c0.5,0,0.9,0,1.3-0.1c0.4-0.1,0.8-0.1,1.2-0.2c0.4-0.1,0.7-0.2,1.1-0.4c0.3-0.1,0.7-0.3,1-0.5v-4.4h-3.1
				c-0.2,0-0.4-0.1-0.5-0.2c-0.1-0.1-0.2-0.3-0.2-0.4v-1.8H329.5z"/>
			<path class="st2" d="M345.7,444.7v2.6h-12v-21h3.1v18.4H345.7z"/>
			<path class="st2" d="M351.9,447.3h-3.1v-21h3.1V447.3z"/>
			<path class="st2" d="M374.3,426.3v21h-1.6c-0.2,0-0.4,0-0.6-0.1c-0.2-0.1-0.3-0.2-0.5-0.4l-11.9-15.4c0,0.3,0,0.5,0,0.8
				c0,0.3,0,0.5,0,0.7v14.4h-2.7v-21h1.6c0.3,0,0.5,0,0.6,0.1c0.1,0.1,0.3,0.2,0.5,0.4l11.9,15.4c0-0.3-0.1-0.6-0.1-0.8
				c0-0.3,0-0.5,0-0.8v-14.3H374.3z"/>
			<path class="st2" d="M392.5,444.8l0,2.5h-13v-21h13v2.5h-9.9v6.7h8v2.4h-8v6.8H392.5z"/>
			<path class="st2" d="M420.9,426.3v21h-3.1v-9.5h-11v9.5h-3.1v-21h3.1v9.3h11v-9.3H420.9z"/>
			<path class="st2" d="M439.2,444.8l0,2.5h-13v-21h13v2.5h-9.9v6.7h8v2.4h-8v6.8H439.2z"/>
			<path class="st2" d="M458.8,447.3H456c-0.6,0-1-0.2-1.2-0.7l-5.2-7.3c-0.2-0.2-0.4-0.4-0.5-0.5c-0.2-0.1-0.5-0.2-0.9-0.2h-2v8.6
				H443v-21h6.1c1.4,0,2.5,0.1,3.5,0.4c1,0.3,1.8,0.7,2.4,1.2c0.6,0.5,1.1,1.1,1.4,1.9c0.3,0.7,0.5,1.5,0.5,2.4
				c0,0.7-0.1,1.4-0.3,2.1c-0.2,0.6-0.6,1.2-1,1.7c-0.4,0.5-1,1-1.6,1.3c-0.6,0.4-1.3,0.7-2.1,0.9c0.4,0.2,0.7,0.6,1,1L458.8,447.3z
				 M449,436.4c0.8,0,1.5-0.1,2.1-0.3s1.1-0.5,1.5-0.8c0.4-0.4,0.7-0.8,0.9-1.3c0.2-0.5,0.3-1,0.3-1.6c0-1.2-0.4-2.1-1.2-2.7
				c-0.8-0.6-2-0.9-3.6-0.9h-2.9v7.7H449z"/>
			<path class="st2" d="M474.5,444.8l0,2.5h-13v-21h13v2.5h-9.9v6.7h8v2.4h-8v6.8H474.5z"/>
		</g>
	</g>
	<g>
		<linearGradient id="SVGID_1_" gradientUnits="userSpaceOnUse" x1="289.8722" y1="293.7365" x2="289.8722" y2="228.2331">
			<stop  offset="5.290990e-03" style="stop-color:#13787A"/>
			<stop  offset="1" style="stop-color:#44BBB6"/>
		</linearGradient>
		<polygon class="st3" points="318.2,228.2 318.2,293.7 261.5,261 		"/>
		
			<linearGradient id="SVGID_00000003103051629428872260000015584474412082667648_" gradientUnits="userSpaceOnUse" x1="374.962" y1="129.9822" x2="346.5977" y2="80.8539">
			<stop  offset="0" style="stop-color:#CA2E71"/>
			<stop  offset="1" style="stop-color:#FF3F9A"/>
		</linearGradient>
		<polygon style="fill:url(#SVGID_00000003103051629428872260000015584474412082667648_);" points="375,64.5 375,130 318.2,97.2 		
			"/>
		
			<linearGradient id="SVGID_00000109031383397305583180000004808105829500032691_" gradientUnits="userSpaceOnUse" x1="318.234" y1="228.2369" x2="289.8702" y2="179.1093">
			<stop  offset="0" style="stop-color:#0998F9"/>
			<stop  offset="1" style="stop-color:#0656E3"/>
		</linearGradient>
		<polygon style="fill:url(#SVGID_00000109031383397305583180000004808105829500032691_);" points="318.2,162.7 318.2,228.2 
			261.5,195.5 		"/>
		
			<linearGradient id="SVGID_00000110454593982710445850000016840256284841948292_" gradientUnits="userSpaceOnUse" x1="374.9608" y1="326.4903" x2="346.5957" y2="277.3605">
			<stop  offset="0" style="stop-color:#00C2B7"/>
			<stop  offset="1" style="stop-color:#7ADFDA"/>
		</linearGradient>
		<polygon style="fill:url(#SVGID_00000110454593982710445850000016840256284841948292_);" points="375,261 375,326.5 318.2,293.7 
					"/>
		
			<linearGradient id="SVGID_00000129887799857023100760000009049031148613184669_" gradientUnits="userSpaceOnUse" x1="318.2341" y1="162.7334" x2="289.8701" y2="113.6056">
			<stop  offset="0" style="stop-color:#3500A9"/>
			<stop  offset="1" style="stop-color:#7500FF"/>
		</linearGradient>
		<polygon style="fill:url(#SVGID_00000129887799857023100760000009049031148613184669_);" points="318.2,97.2 318.2,162.7 
			261.5,130 		"/>
		
			<linearGradient id="SVGID_00000160148619214699131650000015245357975617526448_" gradientUnits="userSpaceOnUse" x1="416.1248" y1="162.7327" x2="387.7609" y2="113.6049" gradientTransform="matrix(-1 0 0 1 734.3594 0)">
			<stop  offset="0" style="stop-color:#5300A9"/>
			<stop  offset="1" style="stop-color:#C300FF"/>
		</linearGradient>
		<polygon style="fill:url(#SVGID_00000160148619214699131650000015245357975617526448_);" points="318.2,97.2 318.2,162.7 375,130 
					"/>
		
			<linearGradient id="SVGID_00000093883726453247737600000012317510242970140546_" gradientUnits="userSpaceOnUse" x1="444.4889" y1="179.1099" x2="472.8527" y2="129.9823" gradientTransform="matrix(-1 0 0 1 734.3594 0)">
			<stop  offset="0.2063" style="stop-color:#002DA8"/>
			<stop  offset="1" style="stop-color:#006BFF"/>
		</linearGradient>
		<polygon style="fill:url(#SVGID_00000093883726453247737600000012317510242970140546_);" points="261.5,130 261.5,195.5 
			318.2,162.7 		"/>
		
			<linearGradient id="SVGID_00000036961928992087868990000006322564764728039303_" gradientUnits="userSpaceOnUse" x1="444.4885" y1="244.6124" x2="472.852" y2="195.4854" gradientTransform="matrix(-1 0 0 1 734.3594 0)">
			<stop  offset="0" style="stop-color:#09C6F9"/>
			<stop  offset="1" style="stop-color:#0683EF"/>
		</linearGradient>
		<polygon style="fill:url(#SVGID_00000036961928992087868990000006322564764728039303_);" points="261.5,195.5 261.5,261 
			318.2,228.2 		"/>
		
			<linearGradient id="SVGID_00000096778594604799234530000010522671512213064844_" gradientUnits="userSpaceOnUse" x1="387.7615" y1="293.7402" x2="387.7615" y2="228.2364" gradientTransform="matrix(-1 0 0 1 734.3594 0)">
			<stop  offset="0" style="stop-color:#008D84"/>
			<stop  offset="0.5" style="stop-color:#00C2B7"/>
			<stop  offset="1" style="stop-color:#7ADFDA"/>
		</linearGradient>
		<polygon style="fill:url(#SVGID_00000096778594604799234530000010522671512213064844_);" points="318.2,228.2 318.2,293.7 
			375,261 		"/>
		
			<linearGradient id="SVGID_00000053543753209877692510000009949490153244876949_" gradientUnits="userSpaceOnUse" x1="225.6934" y1="129.9829" x2="197.3284" y2="80.8532" gradientTransform="matrix(-1 0 0 1 600.6543 0)">
			<stop  offset="0" style="stop-color:#A40608"/>
			<stop  offset="1" style="stop-color:#FF151B"/>
		</linearGradient>
		<polygon style="fill:url(#SVGID_00000053543753209877692510000009949490153244876949_);" points="375,64.5 375,130 431.7,97.2 		
			"/>
		
			<linearGradient id="SVGID_00000104667169135207739910000005607142024782096569_" gradientUnits="userSpaceOnUse" x1="168.9655" y1="293.7395" x2="140.6013" y2="244.6112" gradientTransform="matrix(-1 0 0 1 600.6543 0)">
			<stop  offset="0" style="stop-color:#005036"/>
			<stop  offset="1" style="stop-color:#009800"/>
		</linearGradient>
		<polygon style="fill:url(#SVGID_00000104667169135207739910000005607142024782096569_);" points="431.7,228.2 431.7,293.7 
			488.4,261 		"/>
		
			<linearGradient id="SVGID_00000028310071920753860010000014403530633283973514_" gradientUnits="userSpaceOnUse" x1="168.9647" y1="162.7327" x2="140.6008" y2="113.6049" gradientTransform="matrix(-1 0 0 1 600.6543 0)">
			<stop  offset="0" style="stop-color:#F7A32D"/>
			<stop  offset="1" style="stop-color:#FDC70C"/>
		</linearGradient>
		<polygon style="fill:url(#SVGID_00000028310071920753860010000014403530633283973514_);" points="431.7,97.2 431.7,162.7 
			488.4,130 		"/>
		
			<linearGradient id="SVGID_00000096030846779723021880000010674263824334786730_" gradientUnits="userSpaceOnUse" x1="225.6926" y1="326.4907" x2="197.3287" y2="277.3629" gradientTransform="matrix(-1 0 0 1 600.6543 0)">
			<stop  offset="0" style="stop-color:#009800"/>
			<stop  offset="1" style="stop-color:#9ADC47"/>
		</linearGradient>
		<polygon style="fill:url(#SVGID_00000096030846779723021880000010674263824334786730_);" points="375,261 375,326.5 431.7,293.7 
					"/>
		
			<linearGradient id="SVGID_00000077317984203075406540000012764334623458360507_" gradientUnits="userSpaceOnUse" x1="565.3942" y1="162.7334" x2="537.0302" y2="113.6056" gradientTransform="matrix(1 0 0 1 -133.7051 0)">
			<stop  offset="5.319060e-03" style="stop-color:#FAA318"/>
			<stop  offset="1" style="stop-color:#EF3D25"/>
		</linearGradient>
		<polygon style="fill:url(#SVGID_00000077317984203075406540000012764334623458360507_);" points="431.7,97.2 431.7,162.7 375,130 
					"/>
		
			<linearGradient id="SVGID_00000015349477157732441830000016802207540946139042_" gradientUnits="userSpaceOnUse" x1="565.395" y1="293.7402" x2="537.03" y2="244.6105" gradientTransform="matrix(1 0 0 1 -133.7051 0)">
			<stop  offset="0" style="stop-color:#009B00"/>
			<stop  offset="1" style="stop-color:#00C800"/>
		</linearGradient>
		<polygon style="fill:url(#SVGID_00000015349477157732441830000016802207540946139042_);" points="431.7,228.2 431.7,293.7 
			375,261 		"/>
	</g>
</g>
</svg>
