<?xml version="1.0" encoding="utf-8"?>
<!-- Generator: Adobe Illustrator 26.0.1, SVG Export Plug-In . SVG Version: 6.00 Build 0)  -->
<svg version="1.1" id="Layer_1" xmlns="http://www.w3.org/2000/svg" xmlns:xlink="http://www.w3.org/1999/xlink" x="0px" y="0px"
	 viewBox="0 0 750 512" style="enable-background:new 0 0 750 512;" xml:space="preserve">
<style type="text/css">
	.st0{opacity:0.15;fill:#185ADB;}
	.st1{opacity:0.67;fill:#185ADB;}
	.st2{fill:#768589;}
	.st3{fill:url(#SVGID_1_);}
	.st4{fill:url(#SVGID_00000007388564958978754210000009920413040707685270_);}
	.st5{fill:url(#SVGID_00000166653578545459251770000015168542931920631689_);}
	.st6{fill:url(#SVGID_00000105422548877316275550000004540056739921622199_);}
	.st7{fill:url(#SVGID_00000141444696448601787880000001879703603944597165_);}
	.st8{fill:url(#SVGID_00000074424186965347717710000004996706564315733169_);}
	.st9{fill:url(#SVGID_00000164501319282031340730000015612331486105129650_);}
	.st10{fill:url(#SVGID_00000160187619284438464630000009719853710530650793_);}
	.st11{fill:url(#SVGID_00000174577508062846108790000003163019303836701119_);}
	.st12{fill:url(#SVGID_00000155141567909821317870000004780047519234550401_);}
	.st13{fill:url(#SVGID_00000147898262305962464930000015525085611051404447_);}
	.st14{fill:url(#SVGID_00000073688964625722948790000018259655948522798256_);}
	.st15{fill:url(#SVGID_00000158726269102341956500000001319133273469202827_);}
	.st16{fill:url(#SVGID_00000021116244903152489330000008529741869992053936_);}
	.st17{fill:url(#SVGID_00000069394773763847099550000018238392818453493427_);}
	.st18{fill:url(#SVGID_00000093161470018047282670000004402842119658141325_);}
	.st19{fill:url(#SVGID_00000119811035531946262510000001638775295381358466_);}
	.st20{fill:url(#SVGID_00000168118245109341517530000001614210831644219535_);}
	.st21{fill:url(#SVGID_00000118372005284424127270000006175875909032256387_);}
	.st22{fill:url(#SVGID_00000026160447766675356620000012787360848544241803_);}
	.st23{fill:none;}
	.st24{fill:url(#SVGID_00000146470837314659710170000008535773740542414771_);}
	.st25{fill:url(#SVGID_00000031885825745522650410000013063185857181769111_);}
	.st26{fill:#FFFFFF;}
</style>
<path class="st0" d="M706.4,489.4H43.6c-13.8,0-25-11.2-25-25V47.6c0-13.8,11.2-25,25-25h662.9c13.8,0,25,11.2,25,25v416.8
	C731.4,478.2,720.2,489.4,706.4,489.4z"/>
<g>
	<g>
		<g>
			<path class="st2" d="M250,401.4c0.2,0,0.5,0,0.7,0.1c0.2,0.1,0.5,0.3,0.7,0.5l4.1,4.3c-1.8,2.4-4.1,4.1-6.8,5.3
				c-2.7,1.2-5.9,1.8-9.6,1.8c-3.4,0-6.4-0.6-9.1-1.7c-2.7-1.2-5-2.7-6.8-4.8c-1.9-2-3.3-4.4-4.3-7.2c-1-2.8-1.5-5.8-1.5-9.1
				c0-3.3,0.5-6.4,1.6-9.2c1.1-2.8,2.6-5.2,4.6-7.2c2-2,4.3-3.6,7.1-4.7c2.7-1.1,5.8-1.7,9-1.7c1.7,0,3.3,0.1,4.7,0.4
				c1.5,0.3,2.9,0.7,4.2,1.2c1.3,0.5,2.5,1.2,3.6,1.9c1.1,0.7,2,1.5,2.9,2.4l-3.5,4.7c-0.2,0.3-0.5,0.5-0.8,0.8
				c-0.3,0.2-0.7,0.4-1.3,0.4c-0.4,0-0.7-0.1-1-0.2c-0.3-0.2-0.7-0.4-1-0.6c-0.4-0.2-0.8-0.5-1.2-0.8c-0.4-0.3-1-0.5-1.6-0.8
				c-0.6-0.2-1.3-0.4-2.1-0.6c-0.8-0.2-1.8-0.2-2.8-0.2c-1.7,0-3.3,0.3-4.7,0.9c-1.4,0.6-2.6,1.6-3.7,2.8c-1,1.2-1.8,2.7-2.4,4.5
				c-0.6,1.8-0.8,3.8-0.8,6.1c0,2.3,0.3,4.3,0.9,6.1c0.6,1.8,1.5,3.3,2.5,4.5c1.1,1.2,2.3,2.1,3.8,2.8c1.4,0.6,3,1,4.6,1
				c0.9,0,1.8,0,2.6-0.1c0.8-0.1,1.5-0.2,2.2-0.5c0.7-0.2,1.3-0.5,1.9-0.9c0.6-0.4,1.2-0.8,1.8-1.4c0.2-0.2,0.5-0.4,0.8-0.5
				C249.4,401.4,249.7,401.4,250,401.4z"/>
			<path class="st2" d="M302.9,390.6c0,3.2-0.6,6.2-1.7,9c-1.1,2.8-2.7,5.2-4.7,7.2c-2,2.1-4.5,3.7-7.3,4.8c-2.8,1.2-6,1.7-9.5,1.7
				c-3.5,0-6.6-0.6-9.5-1.7c-2.9-1.2-5.3-2.8-7.3-4.8c-2-2.1-3.6-4.5-4.7-7.2c-1.1-2.8-1.7-5.8-1.7-9c0-3.2,0.6-6.2,1.7-9
				c1.1-2.8,2.7-5.2,4.7-7.2c2-2,4.5-3.7,7.3-4.8c2.9-1.2,6-1.7,9.5-1.7c3.5,0,6.6,0.6,9.5,1.8c2.9,1.2,5.3,2.8,7.3,4.8
				c2,2,3.6,4.5,4.7,7.2C302.4,384.4,302.9,387.4,302.9,390.6z M292.3,390.6c0-2.2-0.3-4.2-0.9-6c-0.6-1.8-1.4-3.3-2.5-4.5
				c-1.1-1.2-2.4-2.2-3.9-2.8c-1.6-0.7-3.3-1-5.3-1c-2,0-3.8,0.3-5.3,1c-1.6,0.7-2.9,1.6-4,2.8c-1.1,1.2-1.9,2.7-2.5,4.5
				c-0.6,1.8-0.9,3.8-0.9,6c0,2.2,0.3,4.2,0.9,6c0.6,1.8,1.4,3.3,2.5,4.5c1.1,1.2,2.4,2.2,4,2.8c1.6,0.6,3.3,1,5.3,1
				c2,0,3.8-0.3,5.3-1c1.6-0.6,2.9-1.6,3.9-2.8c1.1-1.2,1.9-2.7,2.5-4.5C292,394.8,292.3,392.8,292.3,390.6z"/>
			<path class="st2" d="M359.2,368.2v44.7h-9.1v-25.7c0-0.6,0-1.2,0-1.9c0-0.7,0.1-1.4,0.2-2.1l-11.9,23c-0.4,0.7-0.9,1.3-1.5,1.6
				c-0.6,0.4-1.3,0.6-2.1,0.6h-1.4c-0.8,0-1.5-0.2-2.1-0.6c-0.6-0.4-1.1-0.9-1.5-1.6l-11.9-23c0.1,0.7,0.1,1.5,0.2,2.2
				c0,0.7,0.1,1.4,0.1,1.9v25.7H309v-44.7h7.9c0.5,0,0.8,0,1.2,0c0.3,0,0.6,0.1,0.9,0.2c0.3,0.1,0.5,0.3,0.7,0.5
				c0.2,0.2,0.4,0.5,0.6,0.9l11.5,22.7c0.4,0.8,0.8,1.6,1.2,2.4c0.4,0.8,0.7,1.7,1.1,2.6c0.3-0.9,0.7-1.8,1.1-2.6
				c0.4-0.9,0.8-1.7,1.2-2.5l11.5-22.6c0.2-0.4,0.4-0.7,0.6-0.9c0.2-0.2,0.5-0.4,0.7-0.5c0.3-0.1,0.6-0.2,0.9-0.2c0.3,0,0.7,0,1.2,0
				H359.2z"/>
			<path class="st2" d="M383.6,368.2c3.1,0,5.8,0.4,8.1,1.1c2.3,0.7,4.1,1.8,5.6,3.1c1.5,1.3,2.5,2.9,3.2,4.6c0.7,1.8,1,3.7,1,5.8
				c0,2.2-0.4,4.3-1.1,6.1c-0.7,1.9-1.8,3.5-3.3,4.8c-1.5,1.3-3.3,2.4-5.6,3.1c-2.3,0.7-4.9,1.1-8,1.1h-5.4v14.9h-10.4v-44.7H383.6z
				 M383.6,390.2c2.7,0,4.6-0.6,5.8-1.9c1.2-1.3,1.8-3.1,1.8-5.4c0-1-0.2-2-0.5-2.8c-0.3-0.8-0.8-1.6-1.4-2.2
				c-0.6-0.6-1.4-1.1-2.4-1.4c-1-0.3-2.1-0.5-3.4-0.5h-5.4v14.2H383.6z"/>
			<path class="st2" d="M443.8,412.9h-8c-0.9,0-1.6-0.2-2.2-0.6c-0.6-0.4-1-1-1.3-1.6l-2.6-7.8h-17l-2.6,7.8
				c-0.2,0.6-0.6,1.1-1.2,1.5c-0.6,0.5-1.3,0.7-2.2,0.7h-8.1l17.3-44.7h10.6L443.8,412.9z M427.3,395.8l-4.1-12.2
				c-0.3-0.8-0.6-1.7-1-2.7c-0.3-1.1-0.7-2.2-1-3.4c-0.3,1.2-0.6,2.4-1,3.5c-0.4,1.1-0.7,2-1,2.8l-4.1,12.2H427.3z"/>
			<path class="st2" d="M486.3,368.2v44.7h-5.4c-0.8,0-1.5-0.1-2-0.4c-0.5-0.3-1.1-0.7-1.6-1.3l-21.1-26.6c0.1,0.8,0.1,1.6,0.2,2.3
				c0,0.7,0,1.4,0,2.1v23.9h-9.1v-44.7h5.5c0.5,0,0.8,0,1.1,0.1c0.3,0,0.6,0.1,0.8,0.2c0.2,0.1,0.5,0.3,0.7,0.5
				c0.2,0.2,0.5,0.5,0.8,0.8l21.2,26.8c-0.1-0.9-0.2-1.7-0.2-2.5c0-0.8-0.1-1.6-0.1-2.3v-23.6H486.3z"/>
			<path class="st2" d="M516.4,395.9v17H506v-17l-16.2-27.7h9.1c0.9,0,1.6,0.2,2.1,0.6c0.5,0.4,1,1,1.3,1.6l6.3,13
				c0.5,1,1,2,1.4,2.9c0.4,0.9,0.8,1.8,1.1,2.6c0.3-0.9,0.7-1.8,1.1-2.7c0.4-0.9,0.9-1.8,1.4-2.8l6.3-13c0.1-0.3,0.3-0.5,0.5-0.8
				c0.2-0.3,0.4-0.5,0.7-0.7c0.3-0.2,0.6-0.4,1-0.5c0.4-0.1,0.8-0.2,1.2-0.2h9.2L516.4,395.9z"/>
		</g>
		<g>
			<path class="st2" d="M291.9,428.6h-6.7V447h-3.1v-18.4h-6.7V426h16.5V428.6z"/>
			<path class="st2" d="M310.3,447h-2.4c-0.3,0-0.5-0.1-0.7-0.2c-0.2-0.1-0.3-0.3-0.4-0.5l-1.9-4.9h-9.3l-1.9,4.9
				c-0.1,0.2-0.2,0.4-0.4,0.5c-0.2,0.2-0.4,0.2-0.7,0.2h-2.4l8.4-21h3.1L310.3,447z M304.1,439.1L301,431c-0.2-0.6-0.4-1.3-0.7-2.1
				c-0.1,0.4-0.2,0.8-0.3,1.2c-0.1,0.4-0.2,0.7-0.3,1l-3.1,8.1H304.1z"/>
			<path class="st2" d="M329.5,436.7v8.2c-1.1,0.8-2.2,1.3-3.4,1.7c-1.2,0.4-2.5,0.6-3.9,0.6c-1.7,0-3.2-0.3-4.6-0.8
				c-1.4-0.5-2.5-1.3-3.5-2.2c-1-0.9-1.7-2.1-2.2-3.4c-0.5-1.3-0.8-2.8-0.8-4.3c0-1.6,0.3-3,0.8-4.4c0.5-1.3,1.2-2.5,2.2-3.4
				c0.9-0.9,2.1-1.7,3.4-2.2c1.3-0.5,2.8-0.8,4.5-0.8c0.8,0,1.6,0.1,2.3,0.2c0.7,0.1,1.4,0.3,2,0.5c0.6,0.2,1.2,0.5,1.7,0.8
				c0.5,0.3,1,0.7,1.5,1.1l-0.9,1.4c-0.1,0.2-0.3,0.4-0.5,0.4c-0.2,0.1-0.5,0-0.7-0.2c-0.3-0.1-0.5-0.3-0.8-0.5
				c-0.3-0.2-0.7-0.4-1.1-0.5c-0.4-0.2-0.9-0.3-1.5-0.4c-0.6-0.1-1.2-0.2-2-0.2c-1.2,0-2.2,0.2-3.1,0.6c-0.9,0.4-1.7,0.9-2.4,1.6
				c-0.7,0.7-1.2,1.5-1.5,2.5c-0.4,1-0.5,2.1-0.5,3.3c0,1.3,0.2,2.4,0.6,3.5c0.4,1,0.9,1.9,1.6,2.6c0.7,0.7,1.5,1.2,2.5,1.6
				c1,0.4,2.1,0.6,3.3,0.6c0.5,0,0.9,0,1.3-0.1c0.4-0.1,0.8-0.1,1.2-0.2c0.4-0.1,0.7-0.2,1.1-0.4c0.3-0.1,0.7-0.3,1-0.5v-4.4h-3.1
				c-0.2,0-0.4-0.1-0.5-0.2c-0.1-0.1-0.2-0.3-0.2-0.4v-1.8H329.5z"/>
			<path class="st2" d="M345.7,444.4v2.6h-12v-21h3.1v18.4H345.7z"/>
			<path class="st2" d="M351.9,447h-3.1v-21h3.1V447z"/>
			<path class="st2" d="M374.3,426v21h-1.6c-0.2,0-0.4,0-0.6-0.1c-0.2-0.1-0.3-0.2-0.5-0.4l-11.9-15.4c0,0.3,0,0.5,0,0.8
				c0,0.3,0,0.5,0,0.7V447h-2.7v-21h1.6c0.3,0,0.5,0,0.6,0.1c0.1,0.1,0.3,0.2,0.5,0.4l11.9,15.4c0-0.3-0.1-0.6-0.1-0.8
				c0-0.3,0-0.5,0-0.8V426H374.3z"/>
			<path class="st2" d="M392.5,444.4l0,2.5h-13v-21h13v2.5h-9.9v6.7h8v2.4h-8v6.8H392.5z"/>
			<path class="st2" d="M421,426v21h-3.1v-9.5h-11v9.5h-3.1v-21h3.1v9.3h11V426H421z"/>
			<path class="st2" d="M439.2,444.4l0,2.5h-13v-21h13v2.5h-9.9v6.7h8v2.4h-8v6.8H439.2z"/>
			<path class="st2" d="M458.8,447H456c-0.6,0-1-0.2-1.2-0.7l-5.2-7.3c-0.2-0.2-0.3-0.4-0.5-0.5c-0.2-0.1-0.5-0.2-0.9-0.2h-2v8.6
				H443v-21h6.1c1.4,0,2.5,0.1,3.5,0.4c1,0.3,1.8,0.7,2.4,1.2c0.6,0.5,1.1,1.1,1.4,1.9c0.3,0.7,0.5,1.5,0.5,2.4
				c0,0.7-0.1,1.4-0.3,2.1c-0.2,0.6-0.6,1.2-1,1.7c-0.4,0.5-1,1-1.6,1.3c-0.6,0.4-1.3,0.7-2.1,0.9c0.4,0.2,0.7,0.6,1,1L458.8,447z
				 M449,436.1c0.8,0,1.5-0.1,2.1-0.3s1.1-0.5,1.5-0.8c0.4-0.4,0.7-0.8,0.9-1.3c0.2-0.5,0.3-1,0.3-1.6c0-1.2-0.4-2.1-1.2-2.7
				c-0.8-0.6-2-0.9-3.6-0.9h-2.9v7.7H449z"/>
			<path class="st2" d="M474.5,444.4l0,2.5h-13v-21h13v2.5h-9.9v6.7h8v2.4h-8v6.8H474.5z"/>
		</g>
	</g>
	<g>
		<path class="st23" d="M371.9,156.7c2-2.4,4.1-4.7,6.3-6.9C375.9,151.9,373.8,154.2,371.9,156.7z"/>
		<g>
			
				<linearGradient id="SVGID_1_" gradientUnits="userSpaceOnUse" x1="122.7721" y1="334.5807" x2="344.3395" y2="334.5807" gradientTransform="matrix(1 0 0 1 119.46 -136.999)">
				<stop  offset="0" style="stop-color:#EF3D25"/>
				<stop  offset="0.9947" style="stop-color:#FAA318"/>
			</linearGradient>
			<path class="st3" d="M375.3,296.3c-16.7,0-32.5-4.2-46.3-11.6c-31.1-16.6-52.4-49.4-52.4-87.2c0-54.4,44.3-98.7,98.7-98.7h72
				h16.5c-23.5-21.2-54.6-34.1-88.8-34.1c-73.3,0-132.8,59.5-132.8,132.8c0,73.3,59.5,132.8,132.8,132.8c34.1,0,65.3-12.9,88.8-34.1
				h-16.5H375.3z"/>
		</g>
		<g>
			
				<linearGradient id="SVGID_00000080898474143340681950000005374610080581702312_" gradientUnits="userSpaceOnUse" x1="191.4453" y1="197.5869" x2="373.0524" y2="197.5869" gradientTransform="matrix(1 0 0 1 134.7588 -8.800000e-03)">
				<stop  offset="0" style="stop-color:#000000"/>
				<stop  offset="1" style="stop-color:#3E3E3E"/>
			</linearGradient>
			<path style="fill:url(#SVGID_00000080898474143340681950000005374610080581702312_);" d="M430.8,148.4h-55.5
				c-12.9,0-24.7,5-33.4,13.2c-1.7,1.6-3.3,3.3-4.8,5.2c-6.2,7.8-10.2,17.4-10.8,28c0,0,0,0,0,0c0,0.9-0.1,1.9-0.1,2.8c0,0,0,0,0,0
				c0,0.9,0,1.9,0.1,2.8v0c1.5,25.8,22.9,46.4,49,46.4h55.5c19.1,0,36.4,8,48.7,20.9c1.7,1.7,3.2,3.6,4.7,5.5
				c14.9-21.4,23.6-47.5,23.6-75.5c0-28.1-8.7-54.1-23.6-75.6c-1.2,1.5-2.4,3-3.7,4.4C468.2,139.9,450.5,148.4,430.8,148.4z"/>
		</g>
		<g>
			<path class="st26" d="M375.3,98.8h72h16.5c-23.5-21.2-54.6-34.1-88.8-34.1c-73.3,0-132.8,59.5-132.8,132.8h34.3
				C276.6,143.1,320.9,98.8,375.3,98.8z"/>
		</g>
		<g>
			<g>
				<path class="st26" d="M484.2,122c-1.2,1.5-2.4,3-3.7,4.4c-12.3,13.5-30.1,22-49.8,22h-55.5c-12.9,0-24.7,5-33.4,13.2
					c-1.7,1.6-3.3,3.3-4.8,5.2c-6.2,7.8-10.2,17.4-10.8,28c0,0,0,0,0,0c0,0.9-0.1,1.9-0.1,2.8h181.6
					C507.8,169.5,499.1,143.5,484.2,122z"/>
			</g>
		</g>
	</g>
</g>
</svg>
