<?xml version="1.0" encoding="utf-8"?>
<!-- Generator: Adobe Illustrator 26.0.1, SVG Export Plug-In . SVG Version: 6.00 Build 0)  -->
<svg version="1.1" id="Layer_1" xmlns="http://www.w3.org/2000/svg" xmlns:xlink="http://www.w3.org/1999/xlink" x="0px" y="0px"
	 viewBox="0 0 750 512" style="enable-background:new 0 0 750 512;" xml:space="preserve">
<style type="text/css">
	.st0{opacity:0.15;fill:#185ADB;}
	.st1{opacity:0.67;fill:#185ADB;}
	.st2{fill:#768589;}
	.st3{fill:url(#SVGID_1_);}
	.st4{fill:url(#SVGID_00000005250478475386035470000011567336014915769216_);}
	.st5{fill:url(#SVGID_00000132060343492164736480000014822925554017401528_);}
	.st6{fill:url(#SVGID_00000005966296348860286750000006624045113865723064_);}
	.st7{fill:url(#SVGID_00000023989379277833616320000003203848451635907761_);}
	.st8{fill:url(#SVGID_00000044144633620155516220000012340047842447993264_);}
	.st9{fill:url(#SVGID_00000088121823188125891860000011508950702206190782_);}
	.st10{fill:url(#SVGID_00000010306336150801077860000005592827851599238570_);}
	.st11{fill:url(#SVGID_00000096758139147773165440000008938615464238166676_);}
	.st12{fill:url(#SVGID_00000021805779733394536850000016570860509146762905_);}
	.st13{fill:url(#SVGID_00000067915017767672253230000003926302678548515203_);}
	.st14{fill:url(#SVGID_00000114068353912919176930000009938147504591123635_);}
	.st15{fill:url(#SVGID_00000029768510857381557680000002832524289420266374_);}
	.st16{fill:url(#SVGID_00000077286732568059434680000010065290810702527647_);}
	.st17{fill:url(#SVGID_00000099657326964619932530000009302296228508185244_);}
	.st18{fill:url(#SVGID_00000028316344289528110760000011590292497481207728_);}
	.st19{fill:url(#SVGID_00000104692583990208652560000001989154690441185707_);}
	.st20{fill:url(#SVGID_00000137818580350881821130000009298739341518198170_);}
	.st21{fill:url(#SVGID_00000109014698140024689570000008868765402117271996_);}
	.st22{fill:url(#SVGID_00000144334329050595079940000006018353098660680849_);}
</style>
<path class="st0" d="M706.4,489.4H43.6c-13.8,0-25-11.2-25-25V47.6c0-13.8,11.2-25,25-25h662.9c13.8,0,25,11.2,25,25v416.8
	C731.4,478.2,720.2,489.4,706.4,489.4z"/>
<g>
	<g>
		<g>
			<path class="st2" d="M250,401.5c0.2,0,0.5,0,0.7,0.1c0.2,0.1,0.5,0.3,0.7,0.5l4.1,4.3c-1.8,2.4-4.1,4.1-6.8,5.3
				c-2.7,1.2-5.9,1.8-9.6,1.8c-3.4,0-6.4-0.6-9.1-1.7c-2.7-1.2-5-2.7-6.8-4.8c-1.9-2-3.3-4.4-4.3-7.2c-1-2.8-1.5-5.8-1.5-9.1
				c0-3.3,0.5-6.4,1.6-9.2c1.1-2.8,2.6-5.2,4.6-7.2c2-2,4.3-3.6,7.1-4.7c2.7-1.1,5.8-1.7,9-1.7c1.7,0,3.3,0.1,4.7,0.4
				c1.5,0.3,2.9,0.7,4.2,1.2c1.3,0.5,2.5,1.2,3.6,1.9c1.1,0.7,2,1.5,2.9,2.4l-3.5,4.7c-0.2,0.3-0.5,0.5-0.8,0.8
				c-0.3,0.2-0.7,0.4-1.3,0.4c-0.4,0-0.7-0.1-1-0.2c-0.3-0.2-0.7-0.4-1-0.6c-0.4-0.2-0.8-0.5-1.2-0.8c-0.4-0.3-1-0.5-1.6-0.8
				c-0.6-0.2-1.3-0.4-2.1-0.6c-0.8-0.2-1.8-0.2-2.8-0.2c-1.7,0-3.3,0.3-4.7,0.9c-1.4,0.6-2.6,1.6-3.7,2.8c-1,1.2-1.8,2.7-2.4,4.5
				c-0.6,1.8-0.8,3.8-0.8,6.1c0,2.3,0.3,4.3,0.9,6.1c0.6,1.8,1.5,3.3,2.5,4.5c1.1,1.2,2.3,2.1,3.8,2.8c1.4,0.6,3,1,4.6,1
				c0.9,0,1.8,0,2.6-0.1c0.8-0.1,1.5-0.2,2.2-0.5c0.7-0.2,1.3-0.5,1.9-0.9c0.6-0.4,1.2-0.8,1.8-1.4c0.2-0.2,0.5-0.4,0.8-0.5
				C249.4,401.6,249.7,401.5,250,401.5z"/>
			<path class="st2" d="M302.9,390.7c0,3.2-0.6,6.2-1.7,9c-1.1,2.8-2.7,5.2-4.7,7.2c-2,2.1-4.5,3.7-7.3,4.8c-2.8,1.2-6,1.7-9.5,1.7
				c-3.5,0-6.6-0.6-9.5-1.7c-2.9-1.2-5.3-2.8-7.3-4.8c-2-2.1-3.6-4.5-4.7-7.2c-1.1-2.8-1.7-5.8-1.7-9c0-3.2,0.6-6.2,1.7-9
				c1.1-2.8,2.7-5.2,4.7-7.2c2-2,4.5-3.7,7.3-4.8c2.9-1.2,6-1.7,9.5-1.7c3.5,0,6.6,0.6,9.5,1.8c2.9,1.2,5.3,2.8,7.3,4.8
				c2,2,3.6,4.5,4.7,7.2C302.4,384.5,302.9,387.5,302.9,390.7z M292.3,390.7c0-2.2-0.3-4.2-0.9-6c-0.6-1.8-1.4-3.3-2.5-4.5
				c-1.1-1.2-2.4-2.2-3.9-2.8c-1.6-0.7-3.3-1-5.3-1c-2,0-3.8,0.3-5.3,1c-1.6,0.7-2.9,1.6-4,2.8c-1.1,1.2-1.9,2.7-2.5,4.5
				c-0.6,1.8-0.9,3.8-0.9,6c0,2.2,0.3,4.2,0.9,6c0.6,1.8,1.4,3.3,2.5,4.5c1.1,1.2,2.4,2.2,4,2.8c1.6,0.6,3.3,1,5.3,1
				c2,0,3.8-0.3,5.3-1c1.6-0.6,2.9-1.6,3.9-2.8c1.1-1.2,1.9-2.7,2.5-4.5C292,395,292.3,393,292.3,390.7z"/>
			<path class="st2" d="M359.2,368.4v44.7h-9.1v-25.7c0-0.6,0-1.2,0-1.9c0-0.7,0.1-1.4,0.2-2.1l-11.9,23c-0.4,0.7-0.9,1.3-1.5,1.6
				c-0.6,0.4-1.3,0.6-2.1,0.6h-1.4c-0.8,0-1.5-0.2-2.1-0.6c-0.6-0.4-1.1-0.9-1.5-1.6l-11.9-23c0.1,0.7,0.1,1.5,0.2,2.2
				c0,0.7,0.1,1.4,0.1,1.9v25.7H309v-44.7h7.9c0.5,0,0.8,0,1.2,0c0.3,0,0.6,0.1,0.9,0.2c0.3,0.1,0.5,0.3,0.7,0.5
				c0.2,0.2,0.4,0.5,0.6,0.9l11.5,22.7c0.4,0.8,0.8,1.6,1.2,2.4c0.4,0.8,0.7,1.7,1.1,2.6c0.3-0.9,0.7-1.8,1.1-2.6
				c0.4-0.9,0.8-1.7,1.2-2.5l11.5-22.6c0.2-0.4,0.4-0.7,0.6-0.9s0.5-0.4,0.7-0.5c0.3-0.1,0.6-0.2,0.9-0.2c0.3,0,0.7,0,1.2,0H359.2z"
				/>
			<path class="st2" d="M383.6,368.4c3.1,0,5.9,0.4,8.1,1.1c2.3,0.7,4.1,1.8,5.6,3.1c1.5,1.3,2.5,2.9,3.2,4.6c0.7,1.8,1,3.7,1,5.8
				c0,2.2-0.4,4.3-1.1,6.1c-0.7,1.9-1.8,3.5-3.3,4.8c-1.5,1.3-3.3,2.4-5.6,3.1c-2.3,0.7-4.9,1.1-8,1.1h-5.4v14.9h-10.4v-44.7H383.6z
				 M383.6,390.3c2.7,0,4.6-0.6,5.8-1.9c1.2-1.3,1.8-3.1,1.8-5.4c0-1-0.2-2-0.5-2.8c-0.3-0.8-0.8-1.6-1.4-2.2
				c-0.6-0.6-1.4-1.1-2.4-1.4c-1-0.3-2.1-0.5-3.4-0.5h-5.4v14.2H383.6z"/>
			<path class="st2" d="M443.8,413.1h-8c-0.9,0-1.6-0.2-2.2-0.6c-0.6-0.4-1-1-1.3-1.6l-2.6-7.8h-17l-2.6,7.8
				c-0.2,0.6-0.6,1.1-1.2,1.5c-0.6,0.5-1.3,0.7-2.2,0.7h-8.1l17.3-44.7h10.6L443.8,413.1z M427.3,396l-4.1-12.2
				c-0.3-0.8-0.6-1.7-1-2.7c-0.3-1.1-0.7-2.2-1-3.4c-0.3,1.2-0.6,2.4-1,3.5c-0.3,1.1-0.7,2-1,2.8l-4.1,12.2H427.3z"/>
			<path class="st2" d="M486.3,368.4v44.7h-5.4c-0.8,0-1.5-0.1-2-0.4c-0.5-0.3-1.1-0.7-1.6-1.3l-21.1-26.6c0.1,0.8,0.1,1.6,0.2,2.3
				c0,0.7,0,1.4,0,2.1v23.9h-9.1v-44.7h5.5c0.4,0,0.8,0,1.1,0.1c0.3,0,0.6,0.1,0.8,0.2c0.2,0.1,0.5,0.3,0.7,0.5
				c0.2,0.2,0.5,0.5,0.8,0.8l21.2,26.8c-0.1-0.9-0.2-1.7-0.2-2.5c0-0.8-0.1-1.6-0.1-2.3v-23.6H486.3z"/>
			<path class="st2" d="M516.4,396.1v17H506v-17l-16.2-27.7h9.1c0.9,0,1.6,0.2,2.1,0.6c0.5,0.4,1,1,1.3,1.6l6.3,13
				c0.5,1,1,2,1.4,2.9c0.4,0.9,0.8,1.8,1.1,2.6c0.3-0.9,0.7-1.8,1.1-2.7c0.4-0.9,0.9-1.8,1.4-2.8l6.3-13c0.1-0.3,0.3-0.5,0.5-0.8
				c0.2-0.3,0.4-0.5,0.7-0.7c0.3-0.2,0.6-0.4,1-0.5c0.4-0.1,0.8-0.2,1.2-0.2h9.2L516.4,396.1z"/>
		</g>
		<g>
			<path class="st2" d="M291.9,428.7h-6.7v18.4h-3.1v-18.4h-6.7v-2.6h16.5V428.7z"/>
			<path class="st2" d="M310.3,447.1h-2.4c-0.3,0-0.5-0.1-0.7-0.2c-0.2-0.1-0.3-0.3-0.4-0.5l-1.9-4.9h-9.3l-1.9,4.9
				c-0.1,0.2-0.2,0.4-0.4,0.5c-0.2,0.2-0.4,0.2-0.7,0.2h-2.4l8.4-21h3.1L310.3,447.1z M304.1,439.3l-3.1-8.2
				c-0.2-0.6-0.4-1.3-0.7-2.1c-0.1,0.4-0.2,0.8-0.3,1.2c-0.1,0.4-0.2,0.7-0.3,1l-3.1,8.1H304.1z"/>
			<path class="st2" d="M329.5,436.9v8.2c-1.1,0.8-2.2,1.3-3.4,1.7c-1.2,0.4-2.5,0.6-3.9,0.6c-1.7,0-3.2-0.3-4.6-0.8
				c-1.4-0.5-2.5-1.3-3.5-2.2c-1-0.9-1.7-2.1-2.2-3.4c-0.5-1.3-0.8-2.8-0.8-4.3c0-1.6,0.3-3,0.8-4.4c0.5-1.3,1.2-2.5,2.2-3.4
				c0.9-0.9,2.1-1.7,3.4-2.2c1.3-0.5,2.8-0.8,4.5-0.8c0.8,0,1.6,0.1,2.3,0.2c0.7,0.1,1.4,0.3,2,0.5c0.6,0.2,1.2,0.5,1.7,0.8
				c0.5,0.3,1,0.7,1.5,1.1l-0.9,1.4c-0.1,0.2-0.3,0.4-0.5,0.4c-0.2,0.1-0.5,0-0.7-0.2c-0.3-0.1-0.5-0.3-0.8-0.5
				c-0.3-0.2-0.7-0.4-1.1-0.5c-0.4-0.2-0.9-0.3-1.5-0.4c-0.6-0.1-1.2-0.2-2-0.2c-1.2,0-2.2,0.2-3.1,0.6c-0.9,0.4-1.7,0.9-2.4,1.6
				c-0.7,0.7-1.2,1.5-1.5,2.5c-0.4,1-0.5,2.1-0.5,3.3c0,1.3,0.2,2.4,0.6,3.5c0.4,1,0.9,1.9,1.6,2.6c0.7,0.7,1.5,1.2,2.5,1.6
				c1,0.4,2.1,0.6,3.3,0.6c0.5,0,0.9,0,1.3-0.1c0.4-0.1,0.8-0.1,1.2-0.2c0.4-0.1,0.7-0.2,1.1-0.4c0.3-0.1,0.7-0.3,1-0.5v-4.4h-3.1
				c-0.2,0-0.4-0.1-0.5-0.2c-0.1-0.1-0.2-0.3-0.2-0.4v-1.8H329.5z"/>
			<path class="st2" d="M345.7,444.5v2.6h-12v-21h3.1v18.4H345.7z"/>
			<path class="st2" d="M351.9,447.1h-3.1v-21h3.1V447.1z"/>
			<path class="st2" d="M374.3,426.1v21h-1.6c-0.2,0-0.4,0-0.6-0.1c-0.2-0.1-0.3-0.2-0.5-0.4l-11.9-15.4c0,0.3,0,0.5,0.1,0.8
				c0,0.3,0,0.5,0,0.7v14.4h-2.7v-21h1.6c0.3,0,0.5,0,0.6,0.1c0.1,0.1,0.3,0.2,0.5,0.4l11.9,15.4c0-0.3-0.1-0.6-0.1-0.8
				c0-0.3,0-0.5,0-0.8v-14.3H374.3z"/>
			<path class="st2" d="M392.5,444.6l0,2.5h-13v-21h13v2.5h-9.9v6.7h8v2.4h-8v6.8H392.5z"/>
			<path class="st2" d="M421,426.1v21h-3.1v-9.5h-11v9.5h-3.1v-21h3.1v9.3h11v-9.3H421z"/>
			<path class="st2" d="M439.2,444.6l0,2.5h-13v-21h13v2.5h-9.9v6.7h8v2.4h-8v6.8H439.2z"/>
			<path class="st2" d="M458.8,447.1H456c-0.6,0-1-0.2-1.2-0.7l-5.2-7.3c-0.2-0.2-0.3-0.4-0.5-0.5c-0.2-0.1-0.5-0.2-0.9-0.2h-2v8.6
				H443v-21h6.1c1.4,0,2.5,0.1,3.5,0.4c1,0.3,1.8,0.7,2.4,1.2c0.6,0.5,1.1,1.1,1.4,1.9c0.3,0.7,0.5,1.5,0.5,2.4
				c0,0.7-0.1,1.4-0.3,2.1c-0.2,0.6-0.6,1.2-1,1.7c-0.4,0.5-1,1-1.6,1.3c-0.6,0.4-1.3,0.7-2.1,0.9c0.4,0.2,0.7,0.6,1,1L458.8,447.1z
				 M449,436.3c0.8,0,1.5-0.1,2.1-0.3s1.1-0.5,1.5-0.8c0.4-0.4,0.7-0.8,0.9-1.3c0.2-0.5,0.3-1,0.3-1.6c0-1.2-0.4-2.1-1.2-2.7
				c-0.8-0.6-2-0.9-3.6-0.9h-2.9v7.7H449z"/>
			<path class="st2" d="M474.5,444.6l0,2.5h-13v-21h13v2.5h-9.9v6.7h8v2.4h-8v6.8H474.5z"/>
		</g>
	</g>
	
		<linearGradient id="SVGID_1_" gradientUnits="userSpaceOnUse" x1="492.5374" y1="319.4603" x2="716.58" y2="319.4603" gradientTransform="matrix(1 0 0 1 -276.2012 -4.100000e-02)">
		<stop  offset="0" style="stop-color:#E0BB53"/>
		<stop  offset="0.8493" style="stop-color:#B57E10"/>
		<stop  offset="1" style="stop-color:#B57E10"/>
	</linearGradient>
	<path class="st3" d="M392.2,318.3c-2.2,0.8-4.4,1.6-6.6,2.2C387.9,319.9,390,319.1,392.2,318.3z"/>
	
		<linearGradient id="SVGID_00000119078708173260745200000015684038026756360591_" gradientUnits="userSpaceOnUse" x1="500.2145" y1="432.576" x2="724.1555" y2="432.576" gradientTransform="matrix(1 0 0 -1 -276.2012 754.2676)">
		<stop  offset="0" style="stop-color:#E0BB53"/>
		<stop  offset="0.8493" style="stop-color:#B57E10"/>
		<stop  offset="1" style="stop-color:#B57E10"/>
	</linearGradient>
	<path style="fill:url(#SVGID_00000119078708173260745200000015684038026756360591_);" d="M393.2,320.5c-2.8,0.9-5.7,1.6-8.6,2.3
		C387.5,322.2,390.4,321.4,393.2,320.5z"/>
	
		<linearGradient id="SVGID_00000051378907203124845280000014729329235547187857_" gradientUnits="userSpaceOnUse" x1="488.4752" y1="436.2383" x2="712.5006" y2="436.2383" gradientTransform="matrix(1 0 0 -1 -276.2012 754.2676)">
		<stop  offset="0" style="stop-color:#E0BB53"/>
		<stop  offset="0.8493" style="stop-color:#B57E10"/>
		<stop  offset="1" style="stop-color:#B57E10"/>
	</linearGradient>
	<path style="fill:url(#SVGID_00000051378907203124845280000014729329235547187857_);" d="M389.7,317.8c-0.5,0.2-1,0.4-1.6,0.5
		C388.7,318.1,389.2,318,389.7,317.8z"/>
	<g>
		<g>
			
				<linearGradient id="SVGID_00000135681077923779592510000010881089144788142759_" gradientUnits="userSpaceOnUse" x1="759.2892" y1="-57.7448" x2="759.2892" y2="-162.1642" gradientTransform="matrix(1 0 0 -1 -325.0371 165.21)">
				<stop  offset="0" style="stop-color:#E0BB53"/>
				<stop  offset="0.8493" style="stop-color:#B57E10"/>
				<stop  offset="1" style="stop-color:#B57E10"/>
			</linearGradient>
			<polygon style="fill:url(#SVGID_00000135681077923779592510000010881089144788142759_);" points="443.4,309.1 443.4,223 
				425.1,223 425.1,327.4 			"/>
			
				<linearGradient id="SVGID_00000041259698640416969470000011133584470869257912_" gradientUnits="userSpaceOnUse" x1="819.7365" y1="-57.7448" x2="819.7365" y2="-101.7169" gradientTransform="matrix(1 0 0 -1 -325.0371 165.21)">
				<stop  offset="0" style="stop-color:#E0BB53"/>
				<stop  offset="0.8493" style="stop-color:#B57E10"/>
				<stop  offset="1" style="stop-color:#B57E10"/>
			</linearGradient>
			<polygon style="fill:url(#SVGID_00000041259698640416969470000011133584470869257912_);" points="503.8,223 485.5,223 
				485.5,266.9 503.9,248.6 			"/>
			
				<linearGradient id="SVGID_00000054963938002088640640000017774584567641336461_" gradientUnits="userSpaceOnUse" x1="789.5131" y1="-57.7448" x2="789.5131" y2="-131.9408" gradientTransform="matrix(1 0 0 -1 -325.0371 165.21)">
				<stop  offset="0" style="stop-color:#E0BB53"/>
				<stop  offset="0.8493" style="stop-color:#B57E10"/>
				<stop  offset="1" style="stop-color:#B57E10"/>
			</linearGradient>
			<polygon style="fill:url(#SVGID_00000054963938002088640640000017774584567641336461_);" points="473.6,223 455.3,223 
				455.3,297.2 473.6,278.8 			"/>
		</g>
		<g>
			
				<linearGradient id="SVGID_00000114035211386110031580000005161874730623793806_" gradientUnits="userSpaceOnUse" x1="-810.4633" y1="257.807" x2="-631.5155" y2="257.807" gradientTransform="matrix(-1 0 0 1 -385.3721 -4.100000e-02)">
				<stop  offset="0" style="stop-color:#E0BB53"/>
				<stop  offset="0.8493" style="stop-color:#B57E10"/>
				<stop  offset="1" style="stop-color:#B57E10"/>
			</linearGradient>
			<polygon style="fill:url(#SVGID_00000114035211386110031580000005161874730623793806_);" points="264.5,266.9 425.1,266.9 
				425.1,248.6 246.1,248.6 			"/>
			
				<linearGradient id="SVGID_00000078730159007427861700000007784223602998095767_" gradientUnits="userSpaceOnUse" x1="-810.4633" y1="318.2544" x2="-691.9592" y2="318.2544" gradientTransform="matrix(-1 0 0 1 -385.3721 -4.100000e-02)">
				<stop  offset="0" style="stop-color:#E0BB53"/>
				<stop  offset="0.8493" style="stop-color:#B57E10"/>
				<stop  offset="1" style="stop-color:#B57E10"/>
			</linearGradient>
			<polygon style="fill:url(#SVGID_00000078730159007427861700000007784223602998095767_);" points="425.1,327.4 425.1,327.3 
				425.1,309.1 306.6,309.1 324.9,327.4 			"/>
			
				<linearGradient id="SVGID_00000105411806290356113170000004337029127169148337_" gradientUnits="userSpaceOnUse" x1="-810.4633" y1="288.0309" x2="-661.739" y2="288.0309" gradientTransform="matrix(-1 0 0 1 -385.3721 -4.100000e-02)">
				<stop  offset="0" style="stop-color:#E0BB53"/>
				<stop  offset="0.8493" style="stop-color:#B57E10"/>
				<stop  offset="1" style="stop-color:#B57E10"/>
			</linearGradient>
			<polygon style="fill:url(#SVGID_00000105411806290356113170000004337029127169148337_);" points="425.1,297.2 425.1,297.1 
				425.1,278.8 276.4,278.8 294.7,297.2 			"/>
		</g>
		
			<linearGradient id="SVGID_00000145033085526289681670000013920141542293267597_" gradientUnits="userSpaceOnUse" x1="104.1017" y1="1259.7963" x2="104.1017" y2="1159.6139" gradientTransform="matrix(0 1 1 0 -834.7051 30.125)">
			<stop  offset="0" style="stop-color:#B57E10"/>
			<stop  offset="0.1507" style="stop-color:#B57E10"/>
			<stop  offset="1" style="stop-color:#E0BB53"/>
		</linearGradient>
		
			<rect x="324.9" y="125.1" style="fill:url(#SVGID_00000145033085526289681670000013920141542293267597_);" width="100.2" height="18.3"/>
		
			<linearGradient id="SVGID_00000005948698861232546540000009822874469093660548_" gradientUnits="userSpaceOnUse" x1="43.6544" y1="1259.7963" x2="43.6544" y2="1159.6139" gradientTransform="matrix(0 1 1 0 -834.7051 30.125)">
			<stop  offset="0" style="stop-color:#B57E10"/>
			<stop  offset="0.1507" style="stop-color:#B57E10"/>
			<stop  offset="1" style="stop-color:#E0BB53"/>
		</linearGradient>
		<polygon style="fill:url(#SVGID_00000005948698861232546540000009822874469093660548_);" points="324.9,64.6 425.1,64.6 
			425.1,64.7 425.1,82.9 324.9,82.9 		"/>
		
			<linearGradient id="SVGID_00000097461248122921453060000013020243565294421376_" gradientUnits="userSpaceOnUse" x1="73.8782" y1="1259.7963" x2="73.8782" y2="1159.6139" gradientTransform="matrix(0 1 1 0 -834.7051 30.125)">
			<stop  offset="0" style="stop-color:#B57E10"/>
			<stop  offset="0.1507" style="stop-color:#B57E10"/>
			<stop  offset="1" style="stop-color:#E0BB53"/>
		</linearGradient>
		<polygon style="fill:url(#SVGID_00000097461248122921453060000013020243565294421376_);" points="324.9,94.8 425.1,94.8 
			425.1,94.9 425.1,113.2 324.9,113.2 		"/>
		<g>
			
				<linearGradient id="SVGID_00000158709677325931873030000015129996754473845148_" gradientUnits="userSpaceOnUse" x1="-701.1201" y1="248.6462" x2="-701.1201" y2="64.6595" gradientTransform="matrix(-1 0 0 1 -385.3721 -4.100000e-02)">
				<stop  offset="0" style="stop-color:#E0BB53"/>
				<stop  offset="0.8493" style="stop-color:#B57E10"/>
				<stop  offset="1" style="stop-color:#B57E10"/>
			</linearGradient>
			<polygon style="fill:url(#SVGID_00000158709677325931873030000015129996754473845148_);" points="306.6,82.9 306.6,248.6 
				324.9,248.6 324.9,64.6 			"/>
			
				<linearGradient id="SVGID_00000137832637184416526760000011807089574796291768_" gradientUnits="userSpaceOnUse" x1="-640.6727" y1="248.6462" x2="-640.6727" y2="125.1069" gradientTransform="matrix(-1 0 0 1 -385.3721 -4.100000e-02)">
				<stop  offset="0" style="stop-color:#E0BB53"/>
				<stop  offset="0.8493" style="stop-color:#B57E10"/>
				<stop  offset="1" style="stop-color:#B57E10"/>
			</linearGradient>
			<polygon style="fill:url(#SVGID_00000137832637184416526760000011807089574796291768_);" points="246.1,248.6 246.2,248.6 
				264.5,248.6 264.5,125.1 246.1,143.4 			"/>
			
				<linearGradient id="SVGID_00000150071677055787443610000010374922351199138470_" gradientUnits="userSpaceOnUse" x1="-670.8962" y1="248.6462" x2="-670.8962" y2="94.8834" gradientTransform="matrix(-1 0 0 1 -385.3721 -4.100000e-02)">
				<stop  offset="0" style="stop-color:#E0BB53"/>
				<stop  offset="0.8493" style="stop-color:#B57E10"/>
				<stop  offset="1" style="stop-color:#B57E10"/>
			</linearGradient>
			<polygon style="fill:url(#SVGID_00000150071677055787443610000010374922351199138470_);" points="276.4,248.6 276.5,248.6 
				294.7,248.6 294.7,94.8 276.4,113.2 			"/>
		</g>
		<g>
			
				<linearGradient id="SVGID_00000181777356194541920300000008356835366922112658_" gradientUnits="userSpaceOnUse" x1="759.2892" y1="169.079" x2="759.2892" y2="64.6595" gradientTransform="matrix(1 0 0 1 -325.0371 -4.100000e-02)">
				<stop  offset="0" style="stop-color:#E0BB53"/>
				<stop  offset="0.8493" style="stop-color:#B57E10"/>
				<stop  offset="1" style="stop-color:#B57E10"/>
			</linearGradient>
			<polygon style="fill:url(#SVGID_00000181777356194541920300000008356835366922112658_);" points="443.4,82.9 443.4,169 
				425.1,169 425.1,64.6 			"/>
			
				<linearGradient id="SVGID_00000037690303865527506670000014369255433712388491_" gradientUnits="userSpaceOnUse" x1="819.7365" y1="169.079" x2="819.7365" y2="125.1069" gradientTransform="matrix(1 0 0 1 -325.0371 -4.100000e-02)">
				<stop  offset="0" style="stop-color:#E0BB53"/>
				<stop  offset="0.8493" style="stop-color:#B57E10"/>
				<stop  offset="1" style="stop-color:#B57E10"/>
			</linearGradient>
			<polygon style="fill:url(#SVGID_00000037690303865527506670000014369255433712388491_);" points="503.8,169 485.5,169 
				485.5,125.1 503.9,143.4 			"/>
			
				<linearGradient id="SVGID_00000137105040648796196070000006482121842361915277_" gradientUnits="userSpaceOnUse" x1="789.5131" y1="169.079" x2="789.5131" y2="94.8834" gradientTransform="matrix(1 0 0 1 -325.0371 -4.100000e-02)">
				<stop  offset="0" style="stop-color:#E0BB53"/>
				<stop  offset="0.8493" style="stop-color:#B57E10"/>
				<stop  offset="1" style="stop-color:#B57E10"/>
			</linearGradient>
			<polygon style="fill:url(#SVGID_00000137105040648796196070000006482121842361915277_);" points="473.6,169 455.3,169 
				455.3,94.8 473.6,113.2 			"/>
		</g>
	</g>
</g>
</svg>
