<?xml version="1.0" encoding="utf-8"?>
<!-- Generator: Adobe Illustrator 26.0.1, SVG Export Plug-In . SVG Version: 6.00 Build 0)  -->
<svg version="1.1" id="Layer_1" xmlns="http://www.w3.org/2000/svg" xmlns:xlink="http://www.w3.org/1999/xlink" x="0px" y="0px"
	 viewBox="0 0 750 512" style="enable-background:new 0 0 750 512;" xml:space="preserve">
<style type="text/css">
	.st0{opacity:0.15;fill:#185ADB;}
	.st1{fill:#768589;}
	.st2{fill:url(#SVGID_1_);}
	.st3{fill:url(#SVGID_00000066504257891829662430000009462720056470714016_);}
	.st4{fill:url(#SVGID_00000099628227053671043190000017030870434916414862_);}
	.st5{fill:url(#SVGID_00000037663222437787289050000011640176389537847218_);}
	.st6{fill:url(#SVGID_00000176035070594714398730000014837803875362063238_);}
</style>
<path class="st0" d="M706.4,489.4H43.6c-13.8,0-25-11.2-25-25V47.6c0-13.8,11.2-25,25-25h662.9c13.8,0,25,11.2,25,25v416.8
	C731.4,478.2,720.2,489.4,706.4,489.4z"/>
<g>
	<g>
		<g>
			<path class="st1" d="M250,401.6c0.2,0,0.5,0,0.7,0.1c0.2,0.1,0.5,0.3,0.7,0.5l4.1,4.3c-1.8,2.4-4.1,4.1-6.8,5.3
				c-2.7,1.2-5.9,1.8-9.6,1.8c-3.4,0-6.4-0.6-9.1-1.7c-2.7-1.2-5-2.7-6.8-4.8c-1.9-2-3.3-4.4-4.3-7.2c-1-2.8-1.5-5.8-1.5-9.1
				c0-3.3,0.5-6.4,1.6-9.2c1.1-2.8,2.6-5.2,4.6-7.2c2-2,4.3-3.6,7.1-4.7c2.7-1.1,5.8-1.7,9-1.7c1.7,0,3.3,0.1,4.7,0.4
				c1.5,0.3,2.9,0.7,4.2,1.2c1.3,0.5,2.5,1.2,3.6,1.9c1.1,0.7,2,1.5,2.9,2.4l-3.5,4.7c-0.2,0.3-0.5,0.5-0.8,0.8
				c-0.3,0.2-0.7,0.4-1.3,0.4c-0.4,0-0.7-0.1-1-0.2c-0.3-0.2-0.7-0.4-1-0.6c-0.4-0.2-0.8-0.5-1.2-0.8c-0.4-0.3-1-0.5-1.6-0.8
				c-0.6-0.2-1.3-0.4-2.1-0.6c-0.8-0.2-1.8-0.2-2.8-0.2c-1.7,0-3.3,0.3-4.7,0.9c-1.4,0.6-2.6,1.6-3.7,2.8c-1,1.2-1.8,2.7-2.4,4.5
				c-0.6,1.8-0.8,3.8-0.8,6.1c0,2.3,0.3,4.3,0.9,6.1c0.6,1.8,1.5,3.3,2.5,4.5c1.1,1.2,2.3,2.1,3.8,2.8c1.4,0.6,3,1,4.6,1
				c0.9,0,1.8,0,2.6-0.1c0.8-0.1,1.5-0.2,2.2-0.5c0.7-0.2,1.3-0.5,1.9-0.9c0.6-0.4,1.2-0.8,1.8-1.4c0.2-0.2,0.5-0.4,0.8-0.5
				C249.4,401.6,249.7,401.6,250,401.6z"/>
			<path class="st1" d="M302.9,390.8c0,3.2-0.6,6.2-1.7,9c-1.1,2.8-2.7,5.2-4.7,7.2c-2,2.1-4.5,3.7-7.3,4.8c-2.8,1.2-6,1.7-9.5,1.7
				c-3.5,0-6.6-0.6-9.5-1.7c-2.9-1.2-5.3-2.8-7.3-4.8c-2-2.1-3.6-4.5-4.7-7.2c-1.1-2.8-1.7-5.8-1.7-9c0-3.2,0.6-6.2,1.7-9
				c1.1-2.8,2.7-5.2,4.7-7.2c2-2,4.5-3.7,7.3-4.8c2.9-1.2,6-1.7,9.5-1.7c3.5,0,6.6,0.6,9.5,1.8c2.9,1.2,5.3,2.8,7.3,4.8
				c2,2,3.6,4.5,4.7,7.2C302.4,384.6,302.9,387.6,302.9,390.8z M292.3,390.8c0-2.2-0.3-4.2-0.9-6c-0.6-1.8-1.4-3.3-2.5-4.5
				c-1.1-1.2-2.4-2.2-3.9-2.8c-1.6-0.7-3.3-1-5.3-1c-2,0-3.8,0.3-5.3,1c-1.6,0.7-2.9,1.6-4,2.8c-1.1,1.2-1.9,2.7-2.5,4.5
				c-0.6,1.8-0.9,3.8-0.9,6c0,2.2,0.3,4.2,0.9,6c0.6,1.8,1.4,3.3,2.5,4.5c1.1,1.2,2.4,2.2,4,2.8c1.6,0.6,3.3,1,5.3,1
				c2,0,3.8-0.3,5.3-1c1.6-0.6,2.9-1.6,3.9-2.8c1.1-1.2,1.9-2.7,2.5-4.5C292,395,292.3,393,292.3,390.8z"/>
			<path class="st1" d="M359.2,368.5v44.7h-9.1v-25.7c0-0.6,0-1.2,0-1.9c0-0.7,0.1-1.4,0.2-2.1l-11.9,23c-0.4,0.7-0.9,1.3-1.5,1.6
				c-0.6,0.4-1.3,0.6-2.1,0.6h-1.4c-0.8,0-1.5-0.2-2.1-0.6c-0.6-0.4-1.1-0.9-1.5-1.6l-11.9-23c0.1,0.7,0.1,1.5,0.2,2.2
				c0,0.7,0.1,1.4,0.1,1.9v25.7H309v-44.7h7.9c0.5,0,0.8,0,1.2,0c0.3,0,0.6,0.1,0.9,0.2c0.3,0.1,0.5,0.3,0.7,0.5
				c0.2,0.2,0.4,0.5,0.6,0.9l11.5,22.7c0.4,0.8,0.8,1.6,1.2,2.4c0.4,0.8,0.7,1.7,1.1,2.6c0.3-0.9,0.7-1.8,1.1-2.6
				c0.4-0.9,0.8-1.7,1.2-2.5l11.5-22.6c0.2-0.4,0.4-0.7,0.6-0.9c0.2-0.2,0.5-0.4,0.7-0.5c0.3-0.1,0.6-0.2,0.9-0.2c0.3,0,0.7,0,1.2,0
				H359.2z"/>
			<path class="st1" d="M383.6,368.5c3.1,0,5.9,0.4,8.1,1.1c2.3,0.7,4.1,1.8,5.6,3.1c1.5,1.3,2.5,2.9,3.2,4.6c0.7,1.8,1,3.7,1,5.8
				c0,2.2-0.4,4.3-1.1,6.1c-0.7,1.9-1.8,3.5-3.3,4.8c-1.5,1.3-3.3,2.4-5.6,3.1c-2.3,0.7-4.9,1.1-8,1.1h-5.4v14.9h-10.4v-44.7H383.6z
				 M383.6,390.4c2.7,0,4.6-0.6,5.8-1.9c1.2-1.3,1.8-3.1,1.8-5.4c0-1-0.2-2-0.5-2.8c-0.3-0.8-0.8-1.6-1.4-2.2
				c-0.6-0.6-1.4-1.1-2.4-1.4c-1-0.3-2.1-0.5-3.4-0.5h-5.4v14.2H383.6z"/>
			<path class="st1" d="M443.8,413.1h-8c-0.9,0-1.6-0.2-2.2-0.6c-0.6-0.4-1-1-1.3-1.6l-2.6-7.8h-17l-2.6,7.8
				c-0.2,0.6-0.6,1.1-1.2,1.5c-0.6,0.5-1.3,0.7-2.2,0.7h-8.1l17.3-44.7h10.6L443.8,413.1z M427.3,396.1l-4.1-12.2
				c-0.3-0.8-0.6-1.7-1-2.7c-0.3-1.1-0.7-2.2-1-3.4c-0.3,1.2-0.6,2.4-1,3.5c-0.3,1.1-0.7,2-1,2.8l-4.1,12.2H427.3z"/>
			<path class="st1" d="M486.3,368.5v44.7h-5.4c-0.8,0-1.5-0.1-2-0.4c-0.5-0.3-1.1-0.7-1.6-1.3l-21.1-26.6c0.1,0.8,0.1,1.6,0.2,2.3
				c0,0.7,0,1.4,0,2.1v23.9h-9.1v-44.7h5.5c0.4,0,0.8,0,1.1,0.1c0.3,0,0.6,0.1,0.8,0.2c0.2,0.1,0.5,0.3,0.7,0.5
				c0.2,0.2,0.5,0.5,0.8,0.8l21.2,26.8c-0.1-0.9-0.2-1.7-0.2-2.5c0-0.8-0.1-1.6-0.1-2.3v-23.6H486.3z"/>
			<path class="st1" d="M516.4,396.1v17H506v-17l-16.2-27.7h9.1c0.9,0,1.6,0.2,2.1,0.6c0.5,0.4,1,1,1.3,1.6l6.3,13
				c0.5,1,1,2,1.4,2.9c0.4,0.9,0.8,1.8,1.1,2.6c0.3-0.9,0.7-1.8,1.1-2.7c0.4-0.9,0.9-1.8,1.4-2.8l6.3-13c0.1-0.3,0.3-0.5,0.5-0.8
				c0.2-0.3,0.4-0.5,0.7-0.7c0.3-0.2,0.6-0.4,1-0.5c0.4-0.1,0.8-0.2,1.2-0.2h9.2L516.4,396.1z"/>
		</g>
		<g>
			<path class="st1" d="M291.9,428.8h-6.7v18.4h-3.1v-18.4h-6.7v-2.6h16.5V428.8z"/>
			<path class="st1" d="M310.3,447.2h-2.4c-0.3,0-0.5-0.1-0.7-0.2c-0.2-0.1-0.3-0.3-0.4-0.5l-1.9-4.9h-9.3l-1.9,4.9
				c-0.1,0.2-0.2,0.4-0.4,0.5c-0.2,0.2-0.4,0.2-0.7,0.2h-2.4l8.4-21h3.1L310.3,447.2z M304.1,439.4l-3.1-8.2
				c-0.2-0.6-0.4-1.3-0.7-2.1c-0.1,0.4-0.2,0.8-0.3,1.2c-0.1,0.4-0.2,0.7-0.3,1l-3.1,8.1H304.1z"/>
			<path class="st1" d="M329.5,437v8.2c-1.1,0.8-2.2,1.3-3.4,1.7c-1.2,0.4-2.5,0.6-3.9,0.6c-1.7,0-3.2-0.3-4.6-0.8
				c-1.4-0.5-2.5-1.3-3.5-2.2c-1-0.9-1.7-2.1-2.2-3.4c-0.5-1.3-0.8-2.8-0.8-4.3c0-1.6,0.3-3,0.8-4.4c0.5-1.3,1.2-2.5,2.2-3.4
				c0.9-0.9,2.1-1.7,3.4-2.2c1.3-0.5,2.8-0.8,4.5-0.8c0.8,0,1.6,0.1,2.3,0.2c0.7,0.1,1.4,0.3,2,0.5c0.6,0.2,1.2,0.5,1.7,0.8
				c0.5,0.3,1,0.7,1.5,1.1l-0.9,1.4c-0.1,0.2-0.3,0.4-0.5,0.4c-0.2,0.1-0.5,0-0.7-0.2c-0.3-0.1-0.5-0.3-0.8-0.5
				c-0.3-0.2-0.7-0.4-1.1-0.5c-0.4-0.2-0.9-0.3-1.5-0.4c-0.6-0.1-1.2-0.2-2-0.2c-1.2,0-2.2,0.2-3.1,0.6c-0.9,0.4-1.7,0.9-2.4,1.6
				c-0.7,0.7-1.2,1.5-1.5,2.5c-0.4,1-0.5,2.1-0.5,3.3c0,1.3,0.2,2.4,0.6,3.5c0.4,1,0.9,1.9,1.6,2.6c0.7,0.7,1.5,1.2,2.5,1.6
				c1,0.4,2.1,0.6,3.3,0.6c0.5,0,0.9,0,1.3-0.1c0.4-0.1,0.8-0.1,1.2-0.2c0.4-0.1,0.7-0.2,1.1-0.4c0.3-0.1,0.7-0.3,1-0.5v-4.4h-3.1
				c-0.2,0-0.4-0.1-0.5-0.2c-0.1-0.1-0.2-0.3-0.2-0.4V437H329.5z"/>
			<path class="st1" d="M345.7,444.6v2.6h-12v-21h3.1v18.4H345.7z"/>
			<path class="st1" d="M351.9,447.2h-3.1v-21h3.1V447.2z"/>
			<path class="st1" d="M374.3,426.2v21h-1.6c-0.2,0-0.4,0-0.6-0.1c-0.2-0.1-0.3-0.2-0.5-0.4l-11.9-15.4c0,0.3,0,0.5,0,0.8
				c0,0.3,0,0.5,0,0.7v14.4h-2.7v-21h1.6c0.3,0,0.5,0,0.6,0.1c0.1,0.1,0.3,0.2,0.5,0.4l11.9,15.4c0-0.3-0.1-0.6-0.1-0.8
				c0-0.3,0-0.5,0-0.8v-14.3H374.3z"/>
			<path class="st1" d="M392.5,444.7l0,2.5h-13v-21h13v2.5h-9.9v6.7h8v2.4h-8v6.8H392.5z"/>
			<path class="st1" d="M421,426.2v21h-3.1v-9.5h-11v9.5h-3.1v-21h3.1v9.3h11v-9.3H421z"/>
			<path class="st1" d="M439.2,444.7l0,2.5h-13v-21h13v2.5h-9.9v6.7h8v2.4h-8v6.8H439.2z"/>
			<path class="st1" d="M458.8,447.2H456c-0.6,0-1-0.2-1.2-0.7l-5.2-7.3c-0.2-0.2-0.3-0.4-0.5-0.5c-0.2-0.1-0.5-0.2-0.9-0.2h-2v8.6
				H443v-21h6.1c1.4,0,2.5,0.1,3.5,0.4c1,0.3,1.8,0.7,2.4,1.2c0.6,0.5,1.1,1.1,1.4,1.9c0.3,0.7,0.5,1.5,0.5,2.4
				c0,0.7-0.1,1.4-0.3,2.1c-0.2,0.6-0.6,1.2-1,1.7c-0.4,0.5-1,1-1.6,1.3c-0.6,0.4-1.3,0.7-2.1,0.9c0.4,0.2,0.7,0.6,1,1L458.8,447.2z
				 M449,436.3c0.8,0,1.5-0.1,2.1-0.3c0.6-0.2,1.1-0.5,1.5-0.8c0.4-0.4,0.7-0.8,0.9-1.3c0.2-0.5,0.3-1,0.3-1.6
				c0-1.2-0.4-2.1-1.2-2.7c-0.8-0.6-2-0.9-3.6-0.9h-2.9v7.7H449z"/>
			<path class="st1" d="M474.5,444.7l0,2.5h-13v-21h13v2.5h-9.9v6.7h8v2.4h-8v6.8H474.5z"/>
		</g>
	</g>
	<g>
		
			<linearGradient id="SVGID_1_" gradientUnits="userSpaceOnUse" x1="258.7783" y1="197.9864" x2="358.4853" y2="197.9864" gradientTransform="matrix(1 0 0 1 -1.000000e-03 0)">
			<stop  offset="1.633990e-03" style="stop-color:#008FC4"/>
			<stop  offset="1" style="stop-color:#00DAF8"/>
		</linearGradient>
		<path class="st2" d="M352.5,188.6l-75.9-44c-3.7-2.1-8.2-2.1-11.9,0c-3.7,2.1-6,6.1-6,10.3V241c0,4.2,2.2,8.1,5.9,10.3
			c1.9,1.1,4,1.6,6,1.6c2,0,4-0.5,5.8-1.5l75.9-42.1c3.8-2.1,6.1-6,6.1-10.3C358.5,194.8,356.3,190.8,352.5,188.6z"/>
		
			<linearGradient id="SVGID_00000043434871121779833180000011413625825035800709_" gradientUnits="userSpaceOnUse" x1="391.5587" y1="119.5417" x2="491.266" y2="119.5417" gradientTransform="matrix(1 0 0 1 -1.000000e-03 0)">
			<stop  offset="0" style="stop-color:#F3903F"/>
			<stop  offset="1" style="stop-color:#FDC70C"/>
		</linearGradient>
		<path style="fill:url(#SVGID_00000043434871121779833180000011413625825035800709_);" d="M485.3,110.2l-75.9-44
			c-3.7-2.1-8.2-2.1-11.9,0c-3.7,2.1-6,6.1-6,10.3v86.1c0,4.2,2.2,8.1,5.9,10.3c1.9,1.1,4,1.6,6,1.6c2,0,4-0.5,5.8-1.5l75.9-42.1
			c3.8-2.1,6.1-6,6.1-10.3C491.3,116.3,489,112.3,485.3,110.2z"/>
		
			<linearGradient id="SVGID_00000130611415054616583080000007277659154025209225_" gradientUnits="userSpaceOnUse" x1="276.8667" y1="119.5417" x2="376.5737" y2="119.5417" gradientTransform="matrix(1 0 0 1 -1.000000e-03 0)">
			<stop  offset="1.633990e-03" style="stop-color:#008FC4"/>
			<stop  offset="1" style="stop-color:#00DAF8"/>
		</linearGradient>
		<path style="fill:url(#SVGID_00000130611415054616583080000007277659154025209225_);" d="M282.8,110.2l75.9-44
			c3.7-2.1,8.2-2.1,11.9,0c3.7,2.1,6,6.1,6,10.3v86.1c0,4.2-2.2,8.1-5.9,10.3c-1.9,1.1-4,1.6-6,1.6c-2,0-4-0.5-5.8-1.5L283,130.9
			c-3.8-2.1-6.1-6-6.1-10.3C276.8,116.3,279.1,112.3,282.8,110.2z"/>
		
			<linearGradient id="SVGID_00000119094906255883423880000004581967163698780083_" gradientUnits="userSpaceOnUse" x1="276.8667" y1="276.4272" x2="376.5737" y2="276.4272" gradientTransform="matrix(1 0 0 1 -1.000000e-03 0)">
			<stop  offset="1.633990e-03" style="stop-color:#008FC4"/>
			<stop  offset="1" style="stop-color:#00DAF8"/>
		</linearGradient>
		<path style="fill:url(#SVGID_00000119094906255883423880000004581967163698780083_);" d="M282.8,285.8l75.9,44
			c3.7,2.1,8.2,2.1,11.9,0c3.7-2.1,6-6.1,6-10.3v-86.1c0-4.2-2.2-8.1-5.9-10.3c-1.9-1.1-4-1.6-6-1.6c-2,0-4,0.5-5.8,1.5L283,265.1
			c-3.8,2.1-6.1,6-6.1,10.3C276.8,279.6,279.1,283.6,282.8,285.8z"/>
		
			<linearGradient id="SVGID_00000136395373255251076710000005387158884688157089_" gradientUnits="userSpaceOnUse" x1="391.5587" y1="276.4272" x2="491.266" y2="276.4272" gradientTransform="matrix(1 0 0 1 -1.000000e-03 0)">
			<stop  offset="0" style="stop-color:#F3903F"/>
			<stop  offset="1" style="stop-color:#FDC70C"/>
		</linearGradient>
		<path style="fill:url(#SVGID_00000136395373255251076710000005387158884688157089_);" d="M485.3,285.8l-75.9,44
			c-3.7,2.1-8.2,2.1-11.9,0c-3.7-2.1-6-6.1-6-10.3v-86.1c0-4.2,2.2-8.1,5.9-10.3c1.9-1.1,4-1.6,6-1.6c2,0,4,0.5,5.8,1.5l75.9,42.1
			c3.8,2.1,6.1,6,6.1,10.3C491.3,279.6,489,283.6,485.3,285.8z"/>
	</g>
</g>
</svg>
